<svg id="Group_40388" data-name="Group 40388" xmlns="http://www.w3.org/2000/svg" xmlns:xlink="http://www.w3.org/1999/xlink" width="215" height="112.415" viewBox="0 0 215 112.415">
  <defs>
    <clipPath id="clip-path">
      <rect id="Rectangle_5948" data-name="Rectangle 5948" width="215" height="112.415" fill="none"/>
    </clipPath>
  </defs>
  <rect id="Rectangle_5910" data-name="Rectangle 5910" width="4.671" height="111.616" transform="translate(180.955 0.4)" fill="#e9eeef"/>
  <path id="Path_113525" data-name="Path 113525" d="M174.938.5v9.619h33.423v102h7.98V.5Z" transform="translate(-35.386 -0.101)" fill="#fff"/>
  <path id="Path_113526" data-name="Path 113526" d="M195.425,25.415V22.269h7.846V37.008h-7.846Zm-5.177-12.857V43.336H177.2v3.326h13.051V77.284H177.2v3.326h13.051v33.945h18.57v-102Z" transform="translate(-35.843 -2.54)" fill="#e9eeef"/>
  <rect id="Rectangle_5911" data-name="Rectangle 5911" width="2.32" height="11.592" transform="translate(165.107 22.875)" fill="#a5b6bc"/>
  <path id="Path_113527" data-name="Path 113527" d="M207.893,24.731v3.146h-7.846V24.731Z" transform="translate(-40.465 -5.003)" fill="#61c7c0"/>
  <rect id="Rectangle_5912" data-name="Rectangle 5912" width="5.527" height="11.592" transform="translate(159.581 22.875)" fill="#fff"/>
  <path id="Path_113528" data-name="Path 113528" d="M98.716,107.423h16.947V124H98.716Zm49.016,0h16.943V124H147.732Zm12.392-9.555H92.795v33.945h27.747V107.423h21.671v24.389h30.962V97.868Z" transform="translate(-18.771 -19.797)" fill="#fff"/>
  <rect id="Rectangle_5913" data-name="Rectangle 5913" width="8.5" height="3.199" transform="translate(145.905 71.545)" fill="#fff"/>
  <path id="Path_113529" data-name="Path 113529" d="M173.175,55.31V82.733h-8.5V64.865h-31.84V79.6H126.2V64.865H98.716V82.726H92.795V55.31h80.38Z" transform="translate(-18.771 -11.188)" fill="#fff"/>
  <rect id="Rectangle_5914" data-name="Rectangle 5914" width="8.5" height="3.199" transform="translate(145.905 37.597)" fill="#fff"/>
  <path id="Path_113530" data-name="Path 113530" d="M173.175,12.558V40.137h-8.5V22.269h-31.84V37.008H126.2V22.269H98.716V40.13H92.795V12.558h80.38Z" transform="translate(-18.771 -2.54)" fill="#fff"/>
  <rect id="Rectangle_5915" data-name="Rectangle 5915" width="6.056" height="16.579" transform="translate(139.848 87.626)" fill="#879ea5"/>
  <rect id="Rectangle_5916" data-name="Rectangle 5916" width="3.337" height="3.199" transform="translate(142.568 71.545)" fill="#fff"/>
  <path id="Path_113531" data-name="Path 113531" d="M180.211,67.288V85.156H169.6V67.288Z" transform="translate(-34.307 -13.611)" fill="#879ea5"/>
  <rect id="Rectangle_5917" data-name="Rectangle 5917" width="3.337" height="3.199" transform="translate(142.568 37.597)" fill="#fff"/>
  <path id="Path_113532" data-name="Path 113532" d="M180.211,24.731V42.6H169.6V24.731Z" transform="translate(-34.307 -5.003)" fill="#a5b6bc"/>
  <path id="Path_113533" data-name="Path 113533" d="M176.874,89.687v3.2H169.6v-3.2Z" transform="translate(-34.307 -18.142)" fill="#fff"/>
  <path id="Path_113534" data-name="Path 113534" d="M176.874,47.13v3.2H169.6v-3.2Z" transform="translate(-34.307 -9.533)" fill="#fff"/>
  <path id="Path_113535" data-name="Path 113535" d="M36.1,90.166H54.475V104.9H36.1Zm0-33.949H54.475V70.953H36.1ZM30.417,22.269H54.475V37.008H36.1V24.789H30.417Zm-4.336-9.711v102H65.719V80.611h80.91V77.284H115.908V70.953H96.44v6.332H65.719V46.662h80.91V43.336H115.908V37.008H96.44v6.328H65.719V12.558Z" transform="translate(-5.276 -2.54)" fill="#fff"/>
  <rect id="Rectangle_5918" data-name="Rectangle 5918" width="10.886" height="16.579" transform="translate(128.963 87.626)" fill="#a5b6bc"/>
  <rect id="Rectangle_5919" data-name="Rectangle 5919" width="10.614" height="3.199" transform="translate(124.679 71.545)" fill="#fff"/>
  <rect id="Rectangle_5920" data-name="Rectangle 5920" width="10.614" height="17.868" transform="translate(124.679 53.677)" fill="#879ea5"/>
  <rect id="Rectangle_5921" data-name="Rectangle 5921" width="10.614" height="3.199" transform="translate(124.679 37.597)" fill="#fff"/>
  <rect id="Rectangle_5922" data-name="Rectangle 5922" width="10.614" height="17.868" transform="translate(124.679 19.728)" fill="#879ea5"/>
  <rect id="Rectangle_5923" data-name="Rectangle 5923" width="9.227" height="3.199" transform="translate(115.452 71.545)" fill="#fff"/>
  <path id="Path_113536" data-name="Path 113536" d="M153.6,67.288V85.156h-9.227V82.024h-1.387V67.288Z" transform="translate(-28.924 -13.611)" fill="#879ea5"/>
  <rect id="Rectangle_5924" data-name="Rectangle 5924" width="9.227" height="3.199" transform="translate(115.452 37.597)" fill="#fff"/>
  <path id="Path_113537" data-name="Path 113537" d="M153.6,24.731V42.6h-9.227V39.471h-1.387V24.731Z" transform="translate(-28.924 -5.003)" fill="#879ea5"/>
  <path id="Path_113538" data-name="Path 113538" d="M143.519,112.092h6.272v13.9h-6.272Zm-2.355,22.144H152V109.846H141.164Z" transform="translate(-28.555 -22.22)" fill="#00a499"/>
  <rect id="Rectangle_5925" data-name="Rectangle 5925" width="6.272" height="13.899" transform="translate(114.964 89.872)" fill="#a5b6bc"/>
  <path id="Path_113539" data-name="Path 113539" d="M143.505,88.893v3.2h-4.82V85.761h4.82Z" transform="translate(-28.053 -17.348)" fill="#fff"/>
  <path id="Path_113540" data-name="Path 113540" d="M143.505,46.336v3.2h-4.82V43.208h4.82Z" transform="translate(-28.053 -8.74)" fill="#fff"/>
  <path id="Path_113541" data-name="Path 113541" d="M129.676,112.092h6.272v13.9h-6.272Zm-2.1,22.144h10.837V109.846H127.579Z" transform="translate(-25.807 -22.22)" fill="#00a499"/>
  <rect id="Rectangle_5926" data-name="Rectangle 5926" width="6.272" height="13.899" transform="translate(103.87 89.872)" fill="#a5b6bc"/>
  <rect id="Rectangle_5927" data-name="Rectangle 5927" width="8.433" height="14.735" transform="translate(98.993 53.677)" fill="#879ea5"/>
  <rect id="Rectangle_5928" data-name="Rectangle 5928" width="8.433" height="14.739" transform="translate(98.993 19.728)" fill="#879ea5"/>
  <path id="Path_113542" data-name="Path 113542" d="M121.367,67.288V82.024h-7.829v3.125h-2.931V67.288Z" transform="translate(-22.374 -13.611)" fill="#a5b6bc"/>
  <path id="Path_113543" data-name="Path 113543" d="M121.367,24.731V39.471h-7.829v3.121h-2.931V24.731Z" transform="translate(-22.374 -5.003)" fill="#879ea5"/>
  <rect id="Rectangle_5929" data-name="Rectangle 5929" width="6.056" height="16.579" transform="translate(90.836 87.626)" fill="#879ea5"/>
  <rect id="Rectangle_5930" data-name="Rectangle 5930" width="2.931" height="3.206" transform="translate(88.233 71.538)" fill="#fff"/>
  <rect id="Rectangle_5931" data-name="Rectangle 5931" width="2.931" height="3.206" transform="translate(88.233 37.589)" fill="#fff"/>
  <rect id="Rectangle_5932" data-name="Rectangle 5932" width="10.89" height="16.579" transform="translate(79.945 87.626)" fill="#879ea5"/>
  <rect id="Rectangle_5933" data-name="Rectangle 5933" width="8.288" height="3.206" transform="translate(79.946 71.538)" fill="#fff"/>
  <rect id="Rectangle_5934" data-name="Rectangle 5934" width="8.288" height="17.861" transform="translate(79.946 53.677)" fill="#879ea5"/>
  <rect id="Rectangle_5935" data-name="Rectangle 5935" width="8.288" height="3.206" transform="translate(79.946 37.589)" fill="#fff"/>
  <rect id="Rectangle_5936" data-name="Rectangle 5936" width="8.288" height="17.861" transform="translate(79.946 19.728)" fill="#879ea5"/>
  <rect id="Rectangle_5937" data-name="Rectangle 5937" width="5.921" height="3.206" transform="translate(74.024 71.538)" fill="#fff"/>
  <rect id="Rectangle_5938" data-name="Rectangle 5938" width="5.921" height="3.206" transform="translate(74.024 37.589)" fill="#fff"/>
  <path id="Path_113544" data-name="Path 113544" d="M80.42,107.423h4.312v7.214H80.42Zm-4.65,24.389H89.35V97.868H75.77Z" transform="translate(-15.327 -19.797)" fill="#e9eeef"/>
  <path id="Path_113545" data-name="Path 113545" d="M89.35,82.726v3.206H75.77V55.31H89.35ZM84.732,64.865H80.421v7.218h4.312Z" transform="translate(-15.327 -11.188)" fill="#e9eeef"/>
  <path id="Path_113546" data-name="Path 113546" d="M89.35,40.13v3.206H75.77V12.558H89.35ZM84.732,22.269H80.421v7.218h4.312Z" transform="translate(-15.327 -2.54)" fill="#e9eeef"/>
  <rect id="Rectangle_5939" data-name="Rectangle 5939" width="4.312" height="7.215" transform="translate(65.094 87.626)" fill="#69868f"/>
  <rect id="Rectangle_5940" data-name="Rectangle 5940" width="4.312" height="7.218" transform="translate(65.094 53.677)" fill="#69868f"/>
  <rect id="Rectangle_5941" data-name="Rectangle 5941" width="4.312" height="7.218" transform="translate(65.094 19.728)" fill="#69868f"/>
  <rect id="Rectangle_5942" data-name="Rectangle 5942" width="9.337" height="14.735" transform="translate(39.864 87.626)" fill="#879ea5"/>
  <rect id="Rectangle_5943" data-name="Rectangle 5943" width="9.337" height="14.735" transform="translate(39.864 53.677)" fill="#879ea5"/>
  <path id="Path_113547" data-name="Path 113547" d="M59.308,27.892V40.11H49.972V27.892h9.337Z" transform="translate(-10.108 -5.642)" fill="#879ea5"/>
  <rect id="Rectangle_5944" data-name="Rectangle 5944" width="6.614" height="2.522" transform="translate(42.586 19.728)" fill="#fff"/>
  <path id="Path_113548" data-name="Path 113548" d="M48.961,24.731v2.522H31.518V24.731Z" transform="translate(-6.375 -5.003)" fill="#fff"/>
  <rect id="Rectangle_5945" data-name="Rectangle 5945" width="9.037" height="14.735" transform="translate(30.827 87.626)" fill="#879ea5"/>
  <rect id="Rectangle_5946" data-name="Rectangle 5946" width="9.037" height="14.735" transform="translate(30.827 53.677)" fill="#879ea5"/>
  <rect id="Rectangle_5947" data-name="Rectangle 5947" width="9.037" height="12.218" transform="translate(30.827 22.25)" fill="#879ea5"/>
  <g id="Group_40381" data-name="Group 40381">
    <g id="Group_40380" data-name="Group 40380" clip-path="url(#clip-path)">
      <path id="Path_113549" data-name="Path 113549" d="M178.25,114.556H26.081v-102H178.25Z" transform="translate(-5.276 -2.54)" fill="none" stroke="#053544" stroke-linecap="round" stroke-linejoin="round" stroke-width="1"/>
    </g>
  </g>
  <path id="Path_113550" data-name="Path 113550" d="M92.795,12.558V43.336" transform="translate(-18.77 -2.54)" fill="none" stroke="#053544" stroke-linecap="round" stroke-linejoin="round" stroke-width="1"/>
  <path id="Path_113551" data-name="Path 113551" d="M92.795,55.31V85.932" transform="translate(-18.77 -11.188)" fill="none" stroke="#053544" stroke-linecap="round" stroke-linejoin="round" stroke-width="1"/>
  <g id="Group_40383" data-name="Group 40383">
    <g id="Group_40382" data-name="Group 40382" clip-path="url(#clip-path)">
      <line id="Line_1015" data-name="Line 1015" y2="33.945" transform="translate(74.024 78.071)" fill="none" stroke="#053544" stroke-linecap="round" stroke-linejoin="round" stroke-width="1"/>
      <path id="Path_113552" data-name="Path 113552" d="M169.731,131.812V97.867H75.77v33.945" transform="translate(-15.327 -19.797)" fill="none" stroke="#053544" stroke-linecap="round" stroke-linejoin="round" stroke-width="1"/>
    </g>
  </g>
  <line id="Line_1016" data-name="Line 1016" y2="3.326" transform="translate(141.353 74.744)" fill="none" stroke="#053544" stroke-linecap="round" stroke-linejoin="round" stroke-width="1"/>
  <line id="Line_1017" data-name="Line 1017" y2="3.326" transform="translate(141.353 40.796)" fill="none" stroke="#053544" stroke-linecap="round" stroke-linejoin="round" stroke-width="1"/>
  <path id="Path_113553" data-name="Path 113553" d="M169.731,12.558V43.336H125.958V37.008H106.491v6.328H75.77V12.558" transform="translate(-15.327 -2.54)" fill="none" stroke="#053544" stroke-linecap="round" stroke-linejoin="round" stroke-width="1"/>
  <path id="Path_113554" data-name="Path 113554" d="M138.685,43.208h4.82v6.328" transform="translate(-28.053 -8.74)" fill="none" stroke="#053544" stroke-linecap="round" stroke-linejoin="round" stroke-width="1"/>
  <path id="Path_113555" data-name="Path 113555" d="M141.7,47.13h29.528v3.2" transform="translate(-28.664 -9.533)" fill="none" stroke="#053544" stroke-linecap="round" stroke-linejoin="round" stroke-width="1"/>
  <path id="Path_113556" data-name="Path 113556" d="M178.719,47.13h11.837" transform="translate(-36.151 -9.533)" fill="none" stroke="#053544" stroke-linecap="round" stroke-linejoin="round" stroke-width="1"/>
  <path id="Path_113557" data-name="Path 113557" d="M107.428,47.121H80.4" transform="translate(-16.263 -9.532)" fill="none" stroke="#053544" stroke-linecap="round" stroke-linejoin="round" stroke-width="1"/>
  <path id="Path_113558" data-name="Path 113558" d="M130.779,85.932h-4.82V79.6H106.491v6.331H75.77V55.31h93.961V85.932H130.779Z" transform="translate(-15.327 -11.188)" fill="none" stroke="#053544" stroke-linecap="round" stroke-linejoin="round" stroke-width="1"/>
  <path id="Path_113559" data-name="Path 113559" d="M138.685,85.76h4.82v6.332" transform="translate(-28.053 -17.348)" fill="none" stroke="#053544" stroke-linecap="round" stroke-linejoin="round" stroke-width="1"/>
  <path id="Path_113560" data-name="Path 113560" d="M141.7,89.687h29.528v3.2" transform="translate(-28.664 -18.142)" fill="none" stroke="#053544" stroke-linecap="round" stroke-linejoin="round" stroke-width="1"/>
  <path id="Path_113561" data-name="Path 113561" d="M178.719,89.687h11.837" transform="translate(-36.151 -18.142)" fill="none" stroke="#053544" stroke-linecap="round" stroke-linejoin="round" stroke-width="1"/>
  <path id="Path_113562" data-name="Path 113562" d="M107.428,89.678H80.4" transform="translate(-16.263 -18.14)" fill="none" stroke="#053544" stroke-linecap="round" stroke-linejoin="round" stroke-width="1"/>
  <rect id="Rectangle_5950" data-name="Rectangle 5950" width="4.312" height="7.218" transform="translate(65.094 19.728)" fill="none" stroke="#053544" stroke-linecap="round" stroke-linejoin="round" stroke-width="1"/>
  <rect id="Rectangle_5951" data-name="Rectangle 5951" width="4.312" height="7.218" transform="translate(65.094 53.677)" fill="none" stroke="#053544" stroke-linecap="round" stroke-linejoin="round" stroke-width="1"/>
  <path id="Path_113563" data-name="Path 113563" d="M100.218,45.8V24.731H127.7V39.471" transform="translate(-20.272 -5.003)" fill="none" stroke="#053544" stroke-linecap="round" stroke-linejoin="round" stroke-width="1"/>
  <path id="Path_113564" data-name="Path 113564" d="M142.988,39.47V24.731h31.841V45.8" transform="translate(-28.923 -5.003)" fill="none" stroke="#053544" stroke-linecap="round" stroke-linejoin="round" stroke-width="1"/>
  <path id="Path_113565" data-name="Path 113565" d="M110.607,45.8V24.731" transform="translate(-22.374 -5.003)" fill="none" stroke="#053544" stroke-linecap="round" stroke-linejoin="round" stroke-width="1"/>
  <line id="Line_1018" data-name="Line 1018" y1="14.739" transform="translate(98.993 19.728)" fill="none" stroke="#053544" stroke-linecap="round" stroke-linejoin="round" stroke-width="1"/>
  <path id="Path_113566" data-name="Path 113566" d="M156.294,45.8V24.731" transform="translate(-31.615 -5.003)" fill="none" stroke="#053544" stroke-linecap="round" stroke-linejoin="round" stroke-width="1"/>
  <path id="Path_113567" data-name="Path 113567" d="M169.6,45.8V24.731" transform="translate(-34.307 -5.003)" fill="none" stroke="#053544" stroke-linecap="round" stroke-linejoin="round" stroke-width="1"/>
  <path id="Path_113568" data-name="Path 113568" d="M100.218,88.355V67.288H127.7V82.024" transform="translate(-20.272 -13.611)" fill="none" stroke="#053544" stroke-linecap="round" stroke-linejoin="round" stroke-width="1"/>
  <path id="Path_113569" data-name="Path 113569" d="M142.988,82.024V67.288h31.841V88.355" transform="translate(-28.923 -13.611)" fill="none" stroke="#053544" stroke-linecap="round" stroke-linejoin="round" stroke-width="1"/>
  <path id="Path_113570" data-name="Path 113570" d="M110.607,88.355V67.288" transform="translate(-22.374 -13.611)" fill="none" stroke="#053544" stroke-linecap="round" stroke-linejoin="round" stroke-width="1"/>
  <line id="Line_1019" data-name="Line 1019" y1="14.735" transform="translate(98.993 53.677)" fill="none" stroke="#053544" stroke-linecap="round" stroke-linejoin="round" stroke-width="1"/>
  <path id="Path_113571" data-name="Path 113571" d="M156.294,88.355V67.288" transform="translate(-31.615 -13.611)" fill="none" stroke="#053544" stroke-linecap="round" stroke-linejoin="round" stroke-width="1"/>
  <path id="Path_113572" data-name="Path 113572" d="M169.6,88.355V67.288" transform="translate(-34.307 -13.611)" fill="none" stroke="#053544" stroke-linecap="round" stroke-linejoin="round" stroke-width="1"/>
  <rect id="Rectangle_5952" data-name="Rectangle 5952" width="4.312" height="7.215" transform="translate(65.094 87.626)" fill="none" stroke="#053544" stroke-linecap="round" stroke-linejoin="round" stroke-width="1"/>
  <path id="Path_113573" data-name="Path 113573" d="M111.108,109.846h6.056v16.579H100.217V109.846Z" transform="translate(-20.272 -22.22)" fill="none" stroke="#053544" stroke-linecap="round" stroke-linejoin="round" stroke-width="1"/>
  <line id="Line_1020" data-name="Line 1020" y1="16.579" transform="translate(90.836 87.626)" fill="none" stroke="#053544" stroke-linecap="round" stroke-linejoin="round" stroke-width="1"/>
  <path id="Path_113574" data-name="Path 113574" d="M172.55,109.846h6.056v16.579H161.663V109.846Z" transform="translate(-32.701 -22.22)" fill="none" stroke="#053544" stroke-linecap="round" stroke-linejoin="round" stroke-width="1"/>
  <line id="Line_1021" data-name="Line 1021" y1="16.579" transform="translate(139.849 87.626)" fill="none" stroke="#053544" stroke-linecap="round" stroke-linejoin="round" stroke-width="1"/>
  <g id="Group_40385" data-name="Group 40385">
    <g id="Group_40384" data-name="Group 40384" clip-path="url(#clip-path)">
      <path id="Path_113575" data-name="Path 113575" d="M127.579,134.236V109.846h21.671v24.389" transform="translate(-25.807 -22.22)" fill="none" stroke="#053544" stroke-linecap="round" stroke-linejoin="round" stroke-width="1"/>
      <line id="Line_1022" data-name="Line 1022" y2="24.39" transform="translate(112.609 87.626)" fill="none" stroke="#053544" stroke-linecap="round" stroke-linejoin="round" stroke-width="1"/>
    </g>
  </g>
  <rect id="Rectangle_5954" data-name="Rectangle 5954" width="6.272" height="13.899" transform="translate(103.87 89.872)" fill="none" stroke="#053544" stroke-linecap="round" stroke-linejoin="round" stroke-width="1"/>
  <rect id="Rectangle_5955" data-name="Rectangle 5955" width="6.272" height="13.899" transform="translate(114.964 89.872)" fill="none" stroke="#053544" stroke-linecap="round" stroke-linejoin="round" stroke-width="1"/>
  <path id="Path_113576" data-name="Path 113576" d="M207.893,27.877V39.47h-7.846V24.731h7.846Z" transform="translate(-40.465 -5.003)" fill="none" stroke="#053544" stroke-linecap="round" stroke-linejoin="round" stroke-width="1"/>
  <path id="Path_113577" data-name="Path 113577" d="M200.046,28.675h7.846" transform="translate(-40.465 -5.8)" fill="none" stroke="#053544" stroke-linecap="round" stroke-linejoin="round" stroke-width="1"/>
  <line id="Line_1023" data-name="Line 1023" y2="11.592" transform="translate(165.107 22.875)" fill="none" stroke="#053544" stroke-linecap="round" stroke-linejoin="round" stroke-width="1"/>
  <path id="Path_113578" data-name="Path 113578" d="M38.644,27.892V40.11H57.017V27.892" transform="translate(-7.817 -5.642)" fill="none" stroke="#053544" stroke-linecap="round" stroke-linejoin="round" stroke-width="1"/>
  <path id="Path_113579" data-name="Path 113579" d="M48.961,24.731H31.518v2.522H55.575V24.731Z" transform="translate(-6.375 -5.003)" fill="none" stroke="#053544" stroke-linecap="round" stroke-linejoin="round" stroke-width="1"/>
  <line id="Line_1024" data-name="Line 1024" y1="12.218" transform="translate(39.863 22.25)" fill="none" stroke="#053544" stroke-linecap="round" stroke-linejoin="round" stroke-width="1"/>
  <line id="Line_1025" data-name="Line 1025" y1="2.522" transform="translate(42.586 19.728)" fill="none" stroke="#053544" stroke-linecap="round" stroke-linejoin="round" stroke-width="1"/>
  <path id="Path_113580" data-name="Path 113580" d="M47.68,67.288H38.644V82.024H57.017V67.288Z" transform="translate(-7.817 -13.611)" fill="none" stroke="#053544" stroke-linecap="round" stroke-linejoin="round" stroke-width="1"/>
  <line id="Line_1026" data-name="Line 1026" y1="14.735" transform="translate(39.863 53.677)" fill="none" stroke="#053544" stroke-linecap="round" stroke-linejoin="round" stroke-width="1"/>
  <path id="Path_113581" data-name="Path 113581" d="M47.68,109.846H38.644v14.735H57.017V109.846Z" transform="translate(-7.817 -22.22)" fill="none" stroke="#053544" stroke-linecap="round" stroke-linejoin="round" stroke-width="1"/>
  <line id="Line_1027" data-name="Line 1027" y1="14.735" transform="translate(39.863 87.626)" fill="none" stroke="#053544" stroke-linecap="round" stroke-linejoin="round" stroke-width="1"/>
  <g id="Group_40387" data-name="Group 40387">
    <g id="Group_40386" data-name="Group 40386" clip-path="url(#clip-path)">
      <path id="Path_113582" data-name="Path 113582" d="M174.939,10.119V.5h46.075V112.117H208.362" transform="translate(-35.387 -0.101)" fill="none" stroke="#053544" stroke-linecap="round" stroke-linejoin="round" stroke-width="1"/>
      <line id="Line_1028" data-name="Line 1028" y2="111.617" transform="translate(180.955 0.399)" fill="none" stroke="#053544" stroke-linecap="round" stroke-linejoin="round" stroke-width="1"/>
      <path id="Path_113583" data-name="Path 113583" d="M21.692,132.649c1.934-4.514,6.954.88,6.4,4.559H.5c0-5.064,5.023-6.568,6.331-4.132v-5.692a2.844,2.844,0,1,1,5.688,0v3.49c1.035-4.05,3.879-2.7,3.271,2.484,1.322-5.822,5.424-4.812,5.9-.709" transform="translate(-0.101 -25.192)" fill="#30b5ac"/>
      <path id="Path_113584" data-name="Path 113584" d="M28.092,137.208H.5c0-5.064,5.023-6.568,6.33-4.132v-5.692a2.844,2.844,0,1,1,5.688,0v3.49c1.036-4.051,3.88-2.7,3.271,2.484,1.322-5.822,5.424-4.812,5.9-.709C23.626,128.134,28.645,133.529,28.092,137.208Z" transform="translate(-0.101 -25.192)" fill="none" stroke="#053544" stroke-linecap="round" stroke-linejoin="round" stroke-width="1"/>
      <path id="Path_113585" data-name="Path 113585" d="M190.061,125.281a8.223,8.223,0,1,1,5.342-14.475c-.109-7.712,8.319-15.494,12.942-10.533.258-13.09,11.943-12.829,12.253-.78,1.035-2.2,3.588-2.458,5.626-1.106,2.076,1.381,3.616,4.435,2.458,8.821,2.087-3.39,8.344,0,5.844,9.491,1.815-2.535,3.887-1.934,5.166-.109a6.569,6.569,0,0,1,.812,1.624c-2.535-.045-4.968,2.578-4.82,5.756-1.6-1.593-4.916-.594-6.41,1.914l-.095-.06a9.216,9.216,0,0,1-2.677-1.077,5.358,5.358,0,0,1-2.857.964,5.823,5.823,0,0,1-1.949-.23,4.12,4.12,0,0,1-3.182-3.283,3.981,3.981,0,0,1-2.722,3.023,1.848,1.848,0,0,1-2.617-1.162,3.964,3.964,0,0,1-4.647.94,14.3,14.3,0,0,1-1.247.72,14.855,14.855,0,0,1-1.786.791c-2.829,1.042-5.816,1.158-7.211-.734a3.955,3.955,0,0,1-7.211-.558,7.975,7.975,0,0,1-1.013.064" transform="translate(-36.783 -18.297)" fill="#61c7c0"/>
      <path id="Path_113586" data-name="Path 113586" d="M221.484,133.506a1.974,1.974,0,0,0,2.218.424v0c-.149,2.072-.282,4.287-.332,5.088h-2.431c.085-1.253.35-3.555.541-5.512Z" transform="translate(-44.691 -27.006)" fill="#a5b6bc"/>
      <path id="Path_113587" data-name="Path 113587" d="M233.734,134.594c.364,2.4.886,4.6.886,4.6h-2.906c.074-.8.085-2.938.071-4.827v0a5.823,5.823,0,0,0,1.949.23" transform="translate(-46.871 -27.179)" fill="#a5b6bc"/>
      <path id="Path_113588" data-name="Path 113588" d="M212.26,139.255a26.8,26.8,0,0,0-.767-3.8,14.943,14.943,0,0,0,1.787-.791,35.966,35.966,0,0,1,1.324,4.594Z" transform="translate(-42.781 -27.239)" fill="#a5b6bc"/>
      <path id="Path_113589" data-name="Path 113589" d="M240.576,137.352a5.57,5.57,0,0,1,.533-4.428c1.494-2.507,4.813-3.507,6.41-1.914-.148-3.178,2.285-5.8,4.82-5.756,1.847.031,3.75,1.486,4.742,5.187,1.582-3.99,7.408,1,5.886,6.911Z" transform="translate(-48.617 -25.336)" fill="#30b5ac"/>
      <path id="Path_113590" data-name="Path 113590" d="M255.36,106.287l-4.414,1.953c-1.279-1.826-3.351-2.426-5.166.109,2.5-9.492-3.757-12.882-5.844-9.492,1.158-4.385-.381-7.44-2.458-8.82l8.443-40.866,5.837,31.11-1.5,1.822,1.5,1.067Z" transform="translate(-48.037 -9.946)" fill="#00a499"/>
      <path id="Path_113591" data-name="Path 113591" d="M240.5,118.215a6.508,6.508,0,0,0-.812-1.623c-1.279-1.827-3.351-2.427-5.166.108,2.5-9.492-3.757-12.881-5.844-9.492,1.158-4.386-.381-7.439-2.458-8.82-2.037-1.354-4.591-1.091-5.626,1.1-.31-12.049-12-12.31-12.253.78-4.622-4.962-13.051,2.821-12.941,10.533a8.223,8.223,0,1,0-5.343,14.475,7.988,7.988,0,0,0,1.014-.064,3.954,3.954,0,0,0,7.211.558c1.394,1.893,4.382,1.777,7.211.735a14.87,14.87,0,0,0,1.787-.791,14,14,0,0,0,1.246-.72,3.966,3.966,0,0,0,4.648-.939,1.847,1.847,0,0,0,2.617,1.161,3.981,3.981,0,0,0,2.723-3.023,4.118,4.118,0,0,0,3.181,3.284,5.823,5.823,0,0,0,1.949.23,5.355,5.355,0,0,0,2.857-.964,9.166,9.166,0,0,0,2.676,1.077" transform="translate(-36.783 -18.297)" fill="none" stroke="#053544" stroke-linecap="round" stroke-linejoin="round" stroke-width="1"/>
      <path id="Path_113592" data-name="Path 113592" d="M198.842,115.967a6.258,6.258,0,0,1,2.094,4.841c.869-3.17,5.361-3.142,5.4,2,.834-2.165,3.39-1.473,3.99.826" transform="translate(-40.222 -23.458)" fill="none" stroke="#053544" stroke-linecap="round" stroke-linejoin="round" stroke-width="1"/>
      <path id="Path_113593" data-name="Path 113593" d="M252.338,125.254c1.847.032,3.75,1.487,4.742,5.188,1.582-3.99,7.408,1,5.886,6.91H240.576a5.568,5.568,0,0,1,.533-4.427c1.494-2.507,4.813-3.507,6.41-1.915C247.37,127.831,249.8,125.208,252.338,125.254Z" transform="translate(-48.617 -25.336)" fill="none" stroke="#053544" stroke-linecap="round" stroke-linejoin="round" stroke-width="1"/>
      <path id="Path_113594" data-name="Path 113594" d="M237.477,90.037l8.443-40.866,5.837,31.109-1.5,1.822,1.5,1.067,3.6,23.119-4.414,1.953" transform="translate(-48.037 -9.946)" fill="none" stroke="#053544" stroke-linecap="round" stroke-linejoin="round" stroke-width="1"/>
      <path id="Path_113595" data-name="Path 113595" d="M213.28,134.661a36.1,36.1,0,0,1,1.324,4.594H212.26a26.8,26.8,0,0,0-.767-3.8" transform="translate(-42.781 -27.239)" fill="none" stroke="#053544" stroke-linecap="round" stroke-linejoin="round" stroke-width="1"/>
      <path id="Path_113596" data-name="Path 113596" d="M223.7,133.934c-.148,2.072-.282,4.287-.332,5.089h-2.43c.085-1.254.35-3.556.541-5.512" transform="translate(-44.691 -27.006)" fill="none" stroke="#053544" stroke-linecap="round" stroke-linejoin="round" stroke-width="1"/>
      <path id="Path_113597" data-name="Path 113597" d="M233.734,134.595c.364,2.4.886,4.6.886,4.6h-2.906c.074-.8.085-2.938.071-4.827" transform="translate(-46.871 -27.18)" fill="none" stroke="#053544" stroke-linecap="round" stroke-linejoin="round" stroke-width="1"/>
    </g>
  </g>
</svg>
