<svg id="Group_40379" data-name="Group 40379" xmlns="http://www.w3.org/2000/svg" xmlns:xlink="http://www.w3.org/1999/xlink" width="215" height="106.686" viewBox="0 0 215 106.686">
  <defs>
    <clipPath id="clip-path">
      <rect id="Rectangle_5909" data-name="Rectangle 5909" width="215" height="106.686" fill="none"/>
    </clipPath>
  </defs>
  <g id="Group_40378" data-name="Group 40378" clip-path="url(#clip-path)">
    <path id="Path_113459" data-name="Path 113459" d="M39.723,129.466c1.509-3.234,3.7,1.236,1.945,4.408H.5c.246-3.5,3.384-4.965,4.9-3.152v-3.549l-2.712-2.42a1.455,1.455,0,1,1,2.047-2.063l.665.732V119.8a2.8,2.8,0,1,1,5.6,0V125c.656-1.581,2.5-2.283,3.09.429.668-2.446,2.741-.279,3.089,1.745.183-2.4,2.6-3.161,3.6-1.745v-2.325L19.117,121.2a1.108,1.108,0,1,1,1.689-1.434l.036.043a2.975,2.975,0,0,1,5.9.56v4c.722-1.732,3.378-1.446,4.29,1.06.574-1.931,2.381.1,2.345,1.46,1.141-4.614,5.506-.322,6.349,2.574" transform="translate(-0.127 -29.823)" fill="#61c7c0"/>
    <path id="Path_113460" data-name="Path 113460" d="M20.843,119.808a2.975,2.975,0,0,1,5.9.561v4c.721-1.732,3.377-1.446,4.289,1.06.574-1.932,2.381.095,2.345,1.459,1.141-4.614,5.506-.321,6.35,2.574,1.508-3.233,3.7,1.237,1.945,4.408H.5c.247-3.5,3.385-4.965,4.9-3.152v-3.548l-2.712-2.421a1.454,1.454,0,1,1,2.046-2.062l.666.731V119.8a2.8,2.8,0,1,1,5.6,0V125c.656-1.581,2.5-2.282,3.089.43.669-2.447,2.742-.279,3.089,1.744.184-2.4,2.6-3.161,3.6-1.744v-2.325L19.118,121.2a1.108,1.108,0,1,1,1.689-1.433Z" transform="translate(-0.127 -29.823)" fill="none" stroke="#053544" stroke-linecap="round" stroke-linejoin="round" stroke-width="1"/>
    <path id="Path_113461" data-name="Path 113461" d="M59.751,44.934c8.9-3.477,7.455,17.7-.41,17.276,1.056,7.53-1.24,12.076-7.359,11.354.227,4.572-6.844,5.408-8.438,2.152-.371,1.384-2.014,2.167-3.922,2.367-2.581.269-5.651-.531-6.707-2.367a3.69,3.69,0,0,1-3.836,1.945,3.328,3.328,0,0,1-2.361-1.945,5.913,5.913,0,0,1-.814.6,7.636,7.636,0,0,1-2.686.99,6.836,6.836,0,0,1-2.249.03c-2.279-.367-4.116-2.06-3.647-5.763-4.155,2.115-10.281.777-9.461-6.589-10.383-5.03-6.1-23.763,1.826-20.457-2.243-4.745,2.126-9.626,4.641-6.989l-.151-11.878a4.082,4.082,0,0,1,8.156-.282l.209,3.716c-.209-3.716,2.673-10.048,4.827-5.87l1.188-18.3A4.734,4.734,0,0,1,33.161.5h.121a4.731,4.731,0,0,1,4.726,4.631l.161,7.648,1.456-2.118a1.621,1.621,0,0,1,2.726,1.751l-2.4,4a5.6,5.6,0,0,0-.8,2.879v5.759c1.732-2.961,4.4-2.643,4.6,1.958.964-3.44,4.965-.679,6.034,2.991-.026-4.388,3.375-4.188,4.385.318,3.313-2.988,8.2,4.778,5.585,14.62" transform="translate(-0.439 -0.127)" fill="#00a499"/>
    <path id="Path_113462" data-name="Path 113462" d="M35.662,103.393a3.69,3.69,0,0,0,3.836-1.945c1.056,1.837,4.126,2.637,6.707,2.368l0,.045c0,2.217.057,4.438.057,6.654,0,5.71-.419,5.588-.419,9.615a90.229,90.229,0,0,0,.691,9.78H32.16c-.083-13.82.885-11.964.327-20.248a12.531,12.531,0,0,1-1.6-1.184,11.52,11.52,0,0,1-1.83-2.017,9.357,9.357,0,0,1-1.247-2.44,8.1,8.1,0,0,1-.262-.957,6.831,6.831,0,0,0,2.249-.03v0a6.912,6.912,0,0,0,1.25,1.833,8.645,8.645,0,0,0,1.437,1.22v-4.047a5.825,5.825,0,0,0,.814-.6,3.328,3.328,0,0,0,2.362,1.945" transform="translate(-7.023 -25.86)" fill="#c3cfd2"/>
    <path id="Path_113463" data-name="Path 113463" d="M33.734,132.722c-.082-13.82.885-11.964.328-20.248" transform="translate(-8.598 -28.671)" fill="none" stroke="#053544" stroke-linecap="round" stroke-linejoin="round" stroke-width="1"/>
    <path id="Path_113464" data-name="Path 113464" d="M34.176,106.3v-4.05" transform="translate(-8.712 -26.065)" fill="none" stroke="#053544" stroke-linecap="round" stroke-linejoin="round" stroke-width="1"/>
    <path id="Path_113465" data-name="Path 113465" d="M39.62,78.083c-2.581.269-5.651-.531-6.707-2.368a3.691,3.691,0,0,1-3.837,1.945,3.329,3.329,0,0,1-2.361-1.945,5.765,5.765,0,0,1-.814.6,7.626,7.626,0,0,1-2.685.99,6.8,6.8,0,0,1-2.25.03c-2.279-.367-4.116-2.059-3.646-5.762-4.155,2.115-10.281.777-9.462-6.589-10.383-5.031-6.1-23.763,1.827-20.458-2.243-4.745,2.125-9.625,4.64-6.988l-.151-11.879a4.081,4.081,0,0,1,8.156-.282l.21,3.716c-.21-3.716,2.673-10.048,4.827-5.871l1.187-18.3A4.735,4.735,0,0,1,33.16.5h.121A4.731,4.731,0,0,1,38.007,5.13l.161,7.648,1.456-2.119a1.621,1.621,0,0,1,2.726,1.752l-2.4,4a5.6,5.6,0,0,0-.8,2.88v5.759c1.732-2.962,4.4-2.644,4.6,1.957.964-3.44,4.965-.679,6.034,2.992-.026-4.389,3.374-4.188,4.385.318,3.312-2.988,8.2,4.778,5.584,14.62,8.9-3.477,7.455,17.7-.41,17.276C60.4,69.74,58.1,74.285,51.981,73.564c.227,4.571-6.844,5.408-8.438,2.151C43.172,77.1,41.529,77.883,39.62,78.083Z" transform="translate(-0.439 -0.127)" fill="none" stroke="#053544" stroke-linecap="round" stroke-linejoin="round" stroke-width="1"/>
    <path id="Path_113466" data-name="Path 113466" d="M30.571,103.583a6.912,6.912,0,0,0,1.25,1.833,8.584,8.584,0,0,0,1.437,1.22c.052.039.108.075.161.111a9.254,9.254,0,0,0,1.833.931c.066.027.131.053.194.086" transform="translate(-7.793 -26.405)" fill="none" stroke="#053544" stroke-linecap="round" stroke-linejoin="round" stroke-width="1"/>
    <path id="Path_113467" data-name="Path 113467" d="M33.185,110.62a.054.054,0,0,1-.019-.013l-.013-.006c-.229-.125-.452-.253-.666-.384a12.53,12.53,0,0,1-1.6-1.184,11.521,11.521,0,0,1-1.83-2.017,9.334,9.334,0,0,1-1.247-2.44,8.442,8.442,0,0,1-.262-.957" transform="translate(-7.023 -26.414)" fill="none" stroke="#053544" stroke-linecap="round" stroke-linejoin="round" stroke-width="1"/>
    <path id="Path_113468" data-name="Path 113468" d="M41.636,103.473q.118.777.243,1.545c.154.922.314,1.843.5,2.742.1.446.19.895.3,1.311a6.552,6.552,0,0,0,.351,1.063l.013.033a1.663,1.663,0,0,1,.134.45" transform="translate(-10.614 -26.377)" fill="none" stroke="#053544" stroke-linecap="round" stroke-linejoin="round" stroke-width="1"/>
    <path id="Path_113469" data-name="Path 113469" d="M39.007,111.241a9.951,9.951,0,0,1-.262-1.44c-.063-.512-.1-1-.138-1.489-.069-.977-.105-1.934-.138-2.9q-.019-.678-.033-1.358" transform="translate(-9.798 -26.526)" fill="none" stroke="#053544" stroke-linecap="round" stroke-linejoin="round" stroke-width="1"/>
    <path id="Path_113470" data-name="Path 113470" d="M33.736,130.737H48.113a90.1,90.1,0,0,1-.691-9.779c0-4.027.419-3.906.419-9.616,0-2.217-.056-4.437-.056-6.654" transform="translate(-8.6 -26.686)" fill="none" stroke="#053544" stroke-linecap="round" stroke-linejoin="round" stroke-width="1"/>
    <path id="Path_113471" data-name="Path 113471" d="M242.535,61.293l5.08,9.311h-5.08Z" transform="translate(-61.825 -15.624)" fill="#69868f"/>
    <path id="Path_113472" data-name="Path 113472" d="M231.923,60.88v51.334H200.905V51.57l15.509-28.42,15.509,28.42Zm-9.439,37.655V70.958h-12.37V98.536h12.37Zm-2.535-48.5c0-2.794-1.633-5.061-3.65-5.061a2.7,2.7,0,0,0-.984.187c-1.539.594-2.667,2.552-2.667,4.874s1.128,4.28,2.667,4.874a2.7,2.7,0,0,0,.984.187c2.017,0,3.65-2.267,3.65-5.061" transform="translate(-51.213 -5.901)" fill="#e9eeef"/>
    <rect id="Rectangle_5885" data-name="Rectangle 5885" width="2.249" height="27.577" transform="translate(169.021 65.057)" fill="#c3cfd2"/>
    <path id="Path_113473" data-name="Path 113473" d="M223.385,87.315v27.577h-10.12v-2.623h8.49V89.938h-8.49V87.315Z" transform="translate(-54.364 -22.258)" fill="#fff"/>
    <path id="Path_113474" data-name="Path 113474" d="M221.23,52.437c2.017,0,3.65,2.266,3.65,5.061s-1.633,5.06-3.65,5.06a2.7,2.7,0,0,1-.984-.187c1.538-.593,2.666-2.551,2.666-4.873s-1.128-4.28-2.666-4.874a2.7,2.7,0,0,1,.984-.187" transform="translate(-56.144 -13.367)" fill="#fff"/>
    <rect id="Rectangle_5886" data-name="Rectangle 5886" width="4.345" height="11.229" transform="translate(163.046 78.782)" fill="#879ea5"/>
    <rect id="Rectangle_5887" data-name="Rectangle 5887" width="4.345" height="11.101" transform="translate(163.046 67.681)" fill="#879ea5"/>
    <path id="Path_113475" data-name="Path 113475" d="M219.333,52.688c1.538.594,2.666,2.551,2.666,4.874s-1.128,4.28-2.666,4.873c-1.538-.593-2.666-2.551-2.666-4.873s1.128-4.28,2.666-4.874" transform="translate(-55.231 -13.431)" fill="#69868f"/>
    <path id="Path_113476" data-name="Path 113476" d="M175.851,23.149,160.342,51.57l-5.079,9.311H41.782L62.367,23.149H175.851Zm-30.3,13.866,3.571-6.546H129.761l-7.07,6.546V53h14.141Zm-53.394,0,3.571-6.546H76.367L69.3,37.015V53H83.438Z" transform="translate(-10.651 -5.901)" fill="#a5b6bc"/>
    <rect id="Rectangle_5888" data-name="Rectangle 5888" width="4.146" height="11.229" transform="translate(158.9 78.782)" fill="#69868f"/>
    <rect id="Rectangle_5889" data-name="Rectangle 5889" width="4.146" height="11.101" transform="translate(158.9 67.681)" fill="#879ea5"/>
    <rect id="Rectangle_5890" data-name="Rectangle 5890" width="3.899" height="9.576" transform="translate(148.236 7.673)" fill="#c3cfd2"/>
    <path id="Path_113477" data-name="Path 113477" d="M162.108,61.293v60.645H115.966V80.682H94.852v35.425h-3.6v2.916h-3.6v2.916H48.71V70.6H157.028Zm-13.174,46.966V80.682H128.09v27.577h20.845Zm-66.21,0V80.682H61.88v27.577H82.725Z" transform="translate(-12.417 -15.624)" fill="#fff"/>
    <rect id="Rectangle_5891" data-name="Rectangle 5891" width="5.444" height="9.576" transform="translate(142.791 7.673)" fill="#fff"/>
    <path id="Path_113478" data-name="Path 113478" d="M179.227,32.974l-3.571,6.546h-8.723l-7.071-6.546Z" transform="translate(-40.751 -8.405)" fill="#c3cfd2"/>
    <path id="Path_113479" data-name="Path 113479" d="M176.862,112.269v2.623h-18.6V87.315h18.6v2.623h-15.6v22.33h15.6Z" transform="translate(-40.344 -22.258)" fill="#fff"/>
    <rect id="Rectangle_5892" data-name="Rectangle 5892" width="7.615" height="11.229" transform="translate(128.903 78.782)" fill="#879ea5"/>
    <rect id="Rectangle_5893" data-name="Rectangle 5893" width="7.615" height="11.101" transform="translate(128.903 67.681)" fill="#879ea5"/>
    <path id="Path_113480" data-name="Path 113480" d="M178.074,41.759l-8.723,15.987V41.759Z" transform="translate(-43.17 -10.645)" fill="#69868f"/>
    <rect id="Rectangle_5894" data-name="Rectangle 5894" width="7.982" height="11.229" transform="translate(120.921 78.782)" fill="#879ea5"/>
    <rect id="Rectangle_5895" data-name="Rectangle 5895" width="7.982" height="11.101" transform="translate(120.921 67.681)" fill="#69868f"/>
    <path id="Path_113481" data-name="Path 113481" d="M164.513,39.52V55.508H150.372V39.52l7.07-6.546Zm-2.3,13.692V40.524h-9.55V53.212Z" transform="translate(-38.332 -8.406)" fill="#fff"/>
    <rect id="Rectangle_5896" data-name="Rectangle 5896" width="9.55" height="6.484" transform="translate(114.336 38.323)" fill="#879ea5"/>
    <rect id="Rectangle_5897" data-name="Rectangle 5897" width="9.55" height="6.205" transform="translate(114.336 32.118)" fill="#69868f"/>
    <rect id="Rectangle_5898" data-name="Rectangle 5898" width="2.249" height="27.577" transform="translate(115.674 65.057)" fill="#c3cfd2"/>
    <path id="Path_113482" data-name="Path 113482" d="M136.514,134.86v5.831h-7.2v-2.916h3.6V134.86Z" transform="translate(-32.965 -34.378)" fill="#c3cfd2"/>
    <path id="Path_113483" data-name="Path 113483" d="M131.753,87.315V122.74H110.639V87.315ZM129.391,98.3V89.63H113V98.3h16.394Z" transform="translate(-28.203 -22.258)" fill="#00a499"/>
    <rect id="Rectangle_5899" data-name="Rectangle 5899" width="4.479" height="8.671" transform="translate(96.709 67.372)" fill="#a5b6bc"/>
    <path id="Path_113484" data-name="Path 113484" d="M126.924,134.86v2.916H105.81V134.86h21.114Z" transform="translate(-26.972 -34.378)" fill="#fff"/>
    <rect id="Rectangle_5900" data-name="Rectangle 5900" width="7.431" height="8.671" transform="translate(89.276 67.372)" fill="#879ea5"/>
    <path id="Path_113485" data-name="Path 113485" d="M122.1,138.773v2.916H100.982v-2.916H122.1Z" transform="translate(-25.742 -35.375)" fill="#fff"/>
    <rect id="Rectangle_5901" data-name="Rectangle 5901" width="4.483" height="8.671" transform="translate(84.793 67.372)" fill="#879ea5"/>
    <path id="Path_113486" data-name="Path 113486" d="M107.565,32.974l-3.571,6.546H95.271L88.2,32.974Z" transform="translate(-22.483 -8.405)" fill="#c3cfd2"/>
    <path id="Path_113487" data-name="Path 113487" d="M106.413,41.759,97.69,57.747V41.759Z" transform="translate(-24.902 -10.645)" fill="#69868f"/>
    <path id="Path_113488" data-name="Path 113488" d="M92.852,39.52V55.508H78.711V39.52l7.07-6.546Zm-2.3,13.692V40.524h-9.55V53.212Z" transform="translate(-20.064 -8.406)" fill="#fff"/>
    <rect id="Rectangle_5902" data-name="Rectangle 5902" width="9.55" height="6.484" transform="translate(60.942 38.323)" fill="#69868f"/>
    <rect id="Rectangle_5903" data-name="Rectangle 5903" width="9.55" height="6.205" transform="translate(60.942 32.118)" fill="#879ea5"/>
    <path id="Path_113489" data-name="Path 113489" d="M88,112.269v2.623h-18.6V87.315H88v2.623H72.4v22.33H88Z" transform="translate(-17.692 -22.258)" fill="#fff"/>
    <rect id="Rectangle_5904" data-name="Rectangle 5904" width="7.619" height="11.229" transform="translate(62.689 78.782)" fill="#879ea5"/>
    <rect id="Rectangle_5905" data-name="Rectangle 5905" width="7.619" height="11.101" transform="translate(62.689 67.681)" fill="#a5b6bc"/>
    <rect id="Rectangle_5906" data-name="Rectangle 5906" width="7.979" height="11.229" transform="translate(54.71 78.782)" fill="#69868f"/>
    <rect id="Rectangle_5907" data-name="Rectangle 5907" width="7.979" height="11.101" transform="translate(54.71 67.681)" fill="#879ea5"/>
    <rect id="Rectangle_5908" data-name="Rectangle 5908" width="2.249" height="27.577" transform="translate(49.464 65.057)" fill="#c3cfd2"/>
    <line id="Line_1001" data-name="Line 1001" y1="60.645" transform="translate(149.692 45.669)" fill="none" stroke="#053544" stroke-linecap="round" stroke-linejoin="round" stroke-width="1"/>
    <path id="Path_113490" data-name="Path 113490" d="M193.126,61.293v60.645H48.71V70.6" transform="translate(-12.417 -15.624)" fill="none" stroke="#053544" stroke-linecap="round" stroke-linejoin="round" stroke-width="1"/>
    <line id="Line_1002" data-name="Line 1002" y1="37.73" x2="20.585" transform="translate(31.131 17.249)" fill="none" stroke="#053544" stroke-linecap="round" stroke-linejoin="round" stroke-width="1"/>
    <path id="Path_113491" data-name="Path 113491" d="M69.41,23.15H182.894" transform="translate(-17.694 -5.901)" fill="none" stroke="#053544" stroke-linecap="round" stroke-linejoin="round" stroke-width="1"/>
    <path id="Path_113492" data-name="Path 113492" d="M41.782,60.881H155.263l5.08-9.311,15.508-28.42L191.36,51.57l5.08,9.311" transform="translate(-10.651 -5.901)" fill="none" stroke="#053544" stroke-linecap="round" stroke-linejoin="round" stroke-width="1"/>
    <line id="Line_1003" data-name="Line 1003" x1="5.08" transform="translate(180.709 54.979)" fill="none" stroke="#053544" stroke-linecap="round" stroke-linejoin="round" stroke-width="1"/>
    <path id="Path_113493" data-name="Path 113493" d="M110.639,122.74V87.315h21.114v41.256" transform="translate(-28.203 -22.258)" fill="none" stroke="#053544" stroke-linecap="round" stroke-linejoin="round" stroke-width="1"/>
    <path id="Path_113494" data-name="Path 113494" d="M136.514,134.86h-3.6v2.916h-3.6v2.916" transform="translate(-32.965 -34.378)" fill="none" stroke="#053544" stroke-linecap="round" stroke-linejoin="round" stroke-width="1"/>
    <path id="Path_113495" data-name="Path 113495" d="M125.693,134.86H104.58v2.916h-3.6v2.916" transform="translate(-25.742 -34.378)" fill="none" stroke="#053544" stroke-linecap="round" stroke-linejoin="round" stroke-width="1"/>
    <line id="Line_1004" data-name="Line 1004" x2="17.515" transform="translate(78.838 103.398)" fill="none" stroke="#053544" stroke-linecap="round" stroke-linejoin="round" stroke-width="1"/>
    <path id="Path_113496" data-name="Path 113496" d="M125.718,99.093H130.2V90.422H113.8v8.671h11.915Z" transform="translate(-29.01 -23.05)" fill="none" stroke="#053544" stroke-linecap="round" stroke-linejoin="round" stroke-width="1"/>
    <line id="Line_1005" data-name="Line 1005" y1="8.671" transform="translate(89.277 67.372)" fill="none" stroke="#053544" stroke-linecap="round" stroke-linejoin="round" stroke-width="1"/>
    <line id="Line_1006" data-name="Line 1006" y1="8.671" transform="translate(96.708 67.372)" fill="none" stroke="#053544" stroke-linecap="round" stroke-linejoin="round" stroke-width="1"/>
    <path id="Path_113497" data-name="Path 113497" d="M68.636,87.315H66.387v27.577H87.231V87.315Z" transform="translate(-16.923 -22.258)" fill="none" stroke="#053544" stroke-linecap="round" stroke-linejoin="round" stroke-width="1"/>
    <path id="Path_113498" data-name="Path 113498" d="M89.026,113.166h-15.6V90.836h15.6" transform="translate(-18.718 -23.155)" fill="none" stroke="#053544" stroke-linecap="round" stroke-linejoin="round" stroke-width="1"/>
    <line id="Line_1007" data-name="Line 1007" y2="27.577" transform="translate(51.713 65.057)" fill="none" stroke="#053544" stroke-linecap="round" stroke-linejoin="round" stroke-width="1"/>
    <path id="Path_113499" data-name="Path 113499" d="M84.137,113.166V90.836" transform="translate(-21.448 -23.155)" fill="none" stroke="#053544" stroke-linecap="round" stroke-linejoin="round" stroke-width="1"/>
    <path id="Path_113500" data-name="Path 113500" d="M73.428,105.735h15.6" transform="translate(-18.718 -26.953)" fill="none" stroke="#053544" stroke-linecap="round" stroke-linejoin="round" stroke-width="1"/>
    <path id="Path_113501" data-name="Path 113501" d="M157.5,87.315h-2.249v27.577h20.845V87.315Z" transform="translate(-39.575 -22.258)" fill="none" stroke="#053544" stroke-linecap="round" stroke-linejoin="round" stroke-width="1"/>
    <path id="Path_113502" data-name="Path 113502" d="M177.888,113.166h-15.6V90.836h15.6" transform="translate(-41.37 -23.155)" fill="none" stroke="#053544" stroke-linecap="round" stroke-linejoin="round" stroke-width="1"/>
    <line id="Line_1008" data-name="Line 1008" y2="27.577" transform="translate(117.923 65.057)" fill="none" stroke="#053544" stroke-linecap="round" stroke-linejoin="round" stroke-width="1"/>
    <path id="Path_113503" data-name="Path 113503" d="M173,113.166V90.836" transform="translate(-44.101 -23.155)" fill="none" stroke="#053544" stroke-linecap="round" stroke-linejoin="round" stroke-width="1"/>
    <path id="Path_113504" data-name="Path 113504" d="M162.291,105.735h15.6" transform="translate(-41.37 -26.953)" fill="none" stroke="#053544" stroke-linecap="round" stroke-linejoin="round" stroke-width="1"/>
    <path id="Path_113505" data-name="Path 113505" d="M223.385,87.315v27.577h-10.12V87.315Z" transform="translate(-54.364 -22.258)" fill="none" stroke="#053544" stroke-linecap="round" stroke-linejoin="round" stroke-width="1"/>
    <path id="Path_113506" data-name="Path 113506" d="M213.265,113.166h8.491V90.836h-8.491" transform="translate(-54.364 -23.155)" fill="none" stroke="#053544" stroke-linecap="round" stroke-linejoin="round" stroke-width="1"/>
    <path id="Path_113507" data-name="Path 113507" d="M218.828,113.166V90.836" transform="translate(-55.782 -23.155)" fill="none" stroke="#053544" stroke-linecap="round" stroke-linejoin="round" stroke-width="1"/>
    <path id="Path_113508" data-name="Path 113508" d="M221.755,105.735h-8.491" transform="translate(-54.364 -26.953)" fill="none" stroke="#053544" stroke-linecap="round" stroke-linejoin="round" stroke-width="1"/>
    <path id="Path_113509" data-name="Path 113509" d="M226.848,87.315H229.1v27.577h-2.249" transform="translate(-57.826 -22.258)" fill="none" stroke="#053544" stroke-linecap="round" stroke-linejoin="round" stroke-width="1"/>
    <path id="Path_113510" data-name="Path 113510" d="M220.245,62.435c1.538-.594,2.666-2.551,2.666-4.874s-1.128-4.28-2.666-4.873" transform="translate(-56.143 -13.431)" fill="none" stroke="#053544" stroke-linecap="round" stroke-linejoin="round" stroke-width="1"/>
    <path id="Path_113511" data-name="Path 113511" d="M219.333,62.371a2.7,2.7,0,0,0,.984.187c2.017,0,3.65-2.267,3.65-5.061s-1.633-5.06-3.65-5.06a2.7,2.7,0,0,0-.984.187c-1.538.593-2.666,2.551-2.666,4.873S217.8,61.778,219.333,62.371Z" transform="translate(-55.231 -13.367)" fill="none" stroke="#053544" stroke-linecap="round" stroke-linejoin="round" stroke-width="1"/>
    <path id="Path_113512" data-name="Path 113512" d="M166.932,55.507l8.723-15.987,3.571-6.546H159.861" transform="translate(-40.751 -8.405)" fill="none" stroke="#053544" stroke-linecap="round" stroke-linejoin="round" stroke-width="1"/>
    <path id="Path_113513" data-name="Path 113513" d="M157.442,32.974l-7.071,6.546V55.508h14.142V39.519Z" transform="translate(-38.332 -8.405)" fill="none" stroke="#053544" stroke-linecap="round" stroke-linejoin="round" stroke-width="1"/>
    <path id="Path_113514" data-name="Path 113514" d="M153.452,49.311V43.106H163V55.795h-9.55Z" transform="translate(-39.117 -10.988)" fill="none" stroke="#053544" stroke-linecap="round" stroke-linejoin="round" stroke-width="1"/>
    <line id="Line_1009" data-name="Line 1009" x2="9.55" transform="translate(114.335 38.323)" fill="none" stroke="#053544" stroke-linecap="round" stroke-linejoin="round" stroke-width="1"/>
    <line id="Line_1010" data-name="Line 1010" x2="8.723" transform="translate(126.181 31.114)" fill="none" stroke="#053544" stroke-linecap="round" stroke-linejoin="round" stroke-width="1"/>
    <path id="Path_113515" data-name="Path 113515" d="M95.271,55.507l8.723-15.987,3.571-6.546H88.2" transform="translate(-22.483 -8.405)" fill="none" stroke="#053544" stroke-linecap="round" stroke-linejoin="round" stroke-width="1"/>
    <path id="Path_113516" data-name="Path 113516" d="M85.781,32.974,78.71,39.519V55.508H92.852V39.519Z" transform="translate(-20.064 -8.405)" fill="none" stroke="#053544" stroke-linecap="round" stroke-linejoin="round" stroke-width="1"/>
    <path id="Path_113517" data-name="Path 113517" d="M81.791,49.311V43.106h9.55V55.795h-9.55Z" transform="translate(-20.85 -10.988)" fill="none" stroke="#053544" stroke-linecap="round" stroke-linejoin="round" stroke-width="1"/>
    <line id="Line_1011" data-name="Line 1011" x2="9.55" transform="translate(60.942 38.323)" fill="none" stroke="#053544" stroke-linecap="round" stroke-linejoin="round" stroke-width="1"/>
    <line id="Line_1012" data-name="Line 1012" x2="8.723" transform="translate(72.787 31.114)" fill="none" stroke="#053544" stroke-linecap="round" stroke-linejoin="round" stroke-width="1"/>
    <path id="Path_113518" data-name="Path 113518" d="M191.644,19.874V10.3h9.343v9.576" transform="translate(-48.853 -2.625)" fill="none" stroke="#053544" stroke-linecap="round" stroke-linejoin="round" stroke-width="1"/>
    <line id="Line_1013" data-name="Line 1013" y1="9.576" transform="translate(148.236 7.673)" fill="none" stroke="#053544" stroke-linecap="round" stroke-linejoin="round" stroke-width="1"/>
    <line id="Line_1014" data-name="Line 1014" y2="3.496" transform="translate(101.257 83.232)" fill="none" stroke="#053544" stroke-linecap="round" stroke-linejoin="round" stroke-width="1"/>
    <path id="Path_113519" data-name="Path 113519" d="M259.712,123.733c2.86-3.637,8.986-1.125,7.72,5.7,1.663-2.365,4.939,1.161,3.3,4.6H250.312a25.969,25.969,0,0,1,.685-4.755v-.007a1.321,1.321,0,0,1-1.466-1.056c-.9,1.059-3.687,1.18-4.113-1.181a5.645,5.645,0,0,1-2.512,1.194c.882,1.135,2.544,1.65,2.544,3.185v2.62H221.987c-1.013-4.506,3.585-10.432,6.769-8.2.623-1.951,2.814-2.656,3.673-.915,0-2.823,2.361-3.532,3.62-2.6a4.986,4.986,0,0,1-.4-1.965,4.358,4.358,0,0,1,4.116-4.564,3.822,3.822,0,0,1,2.03.59v-4.486a3.148,3.148,0,1,1,6.3,0v3.9c1.027-1.525,3.234-.358,2.623,2.7,2.545-3.155,6.664.243,6.07,4.123,1.165-2.063,2.922-.335,2.922,1.121" transform="translate(-56.551 -27.721)" fill="#61c7c0"/>
    <path id="Path_113520" data-name="Path 113520" d="M258.2,135.53v.007a25.969,25.969,0,0,0-.685,4.755h-4.86v-2.62c0-1.535-1.663-2.05-2.545-3.185a5.644,5.644,0,0,0,2.512-1.194c.426,2.361,3.217,2.24,4.113,1.181a1.322,1.322,0,0,0,1.466,1.056" transform="translate(-63.757 -33.978)" fill="#fff"/>
    <path id="Path_113521" data-name="Path 113521" d="M259.712,123.736v0c0-1.457-1.758-3.184-2.922-1.122.594-3.88-3.525-7.277-6.07-4.122.61-3.057-1.6-4.225-2.623-2.7v-3.9a3.148,3.148,0,0,0-6.3,0v4.486a3.828,3.828,0,0,0-2.03-.59,4.358,4.358,0,0,0-4.116,4.565,4.989,4.989,0,0,0,.4,1.965c-1.259-.931-3.624-.224-3.62,2.6-.859-1.741-3.05-1.036-3.673.915-3.185-2.233-7.782,3.693-6.769,8.2h48.744c1.64-3.44-1.636-6.966-3.3-4.6,1.266-6.824-4.86-9.337-7.72-5.7" transform="translate(-56.551 -27.721)" fill="none" stroke="#053544" stroke-linecap="round" stroke-linejoin="round" stroke-width="1"/>
    <path id="Path_113522" data-name="Path 113522" d="M245.616,131.352a2.758,2.758,0,0,0,3.351,2.64,5.644,5.644,0,0,0,2.512-1.194c.426,2.361,3.217,2.24,4.112,1.181a1.323,1.323,0,0,0,1.466,1.056,1.121,1.121,0,0,0,.7-.22" transform="translate(-62.611 -33.483)" fill="none" stroke="#053544" stroke-linecap="round" stroke-linejoin="round" stroke-width="1"/>
    <path id="Path_113523" data-name="Path 113523" d="M250.11,134.891l0,0c.882,1.135,2.545,1.65,2.545,3.184v2.62" transform="translate(-63.756 -34.386)" fill="none" stroke="#053544" stroke-linecap="round" stroke-linejoin="round" stroke-width="1"/>
    <path id="Path_113524" data-name="Path 113524" d="M260.053,141.059a25.97,25.97,0,0,1,.685-4.755" transform="translate(-66.291 -34.746)" fill="none" stroke="#053544" stroke-linecap="round" stroke-linejoin="round" stroke-width="1"/>
  </g>
</svg>
