<svg xmlns="http://www.w3.org/2000/svg" xmlns:xlink="http://www.w3.org/1999/xlink" width="1442" height="302.462" viewBox="0 0 1442 302.462">
  <defs>
    <clipPath id="clip-path">
      <rect id="Rectangle_6302" data-name="Rectangle 6302" width="1442" height="302.462" transform="translate(-1 468.538)" fill="none"/>
    </clipPath>
    <clipPath id="clip-path-2">
      <rect id="Rectangle_5628" data-name="Rectangle 5628" width="1442" height="302.462" fill="none"/>
    </clipPath>
  </defs>
  <g id="Group_40689" data-name="Group 40689" transform="translate(1 -468.538)">
    <g id="Mask_Group_15" data-name="Mask Group 15" clip-path="url(#clip-path)">
      <path id="Path_111097" data-name="Path 111097" d="M3558.125,2175.4s276.914-77.453,737.3-78.641,776.2,73.98,776.2,73.98l4.213,36.861H3544.387Z" transform="translate(-3580 -1407)" fill="#f6f6f6" stroke="#f6f6f6" stroke-width="1"/>
    </g>
    <g id="Group_40334" data-name="Group 40334" transform="translate(-1 468.538)">
      <g id="Group_40329" data-name="Group 40329">
        <g id="Group_40328" data-name="Group 40328" clip-path="url(#clip-path-2)">
          <path id="Path_112160" data-name="Path 112160" d="M1227.1,214.529c-11.1-4.564-17.209-7.087-20.714-8.515a54.169,54.169,0,0,1-12.072-6.807c-7.113-5.29-12.11-9.025-16.584-13.614-1.594-1.67-2.753-3.391-4.64-3.569a3.735,3.735,0,0,0-1.326.1A4.024,4.024,0,0,0,1169,187.11a28.977,28.977,0,0,0,4,8.362,133.6,133.6,0,0,0,1.848,16.406l-.816.382a9.36,9.36,0,0,0-1.16.65h-.013c-2.421.727-9.139,3.149-11.485,4.015-.663.243-1.325.485-1.976.727a27.023,27.023,0,0,1-7.941,1.313v-.038c-4.245-2.142-12.352-6.042-16.75-7.9a4.138,4.138,0,0,0-4.232,7.01c1.045.855,2.091,1.658,3.161,2.473-.688.09-1.389.179-2.116.268a4.005,4.005,0,0,0-3.531,3.455h-.013q-1.815.306-3.632.65a4.129,4.129,0,0,0,.471,8.171c4.615.344,15.514.777,27.738.777.994,0,8.885-2.243,13.882-3.7q2.543-.364,5.086-.765l.013-.013a10.543,10.543,0,0,1,.969.586,10.247,10.247,0,0,0,3.722,1.492l1.874.344c.012.14.038.28.051.421-4.194,7.559-8.63,15.309-13.462,23.557a22.723,22.723,0,0,1-32.926,6.921s-.012.013-.012,0a21.423,21.423,0,0,1-2.384-1.976c-23.009-21.861-39.16-40.931-59.44-64.6a.012.012,0,0,1-.013-.012c-6.335-9.459,18.343-30.364,25.609-26.158l46.451,39.122,35.31-78.651a35.382,35.382,0,0,1,12.2-14.646v-.013a35.465,35.465,0,0,1,22.5-6.182c1.733.114,3.441.229,5.124.356v1.556c-12.989,19.159-16.788,40.714-5.507,42.983,12.467,2.5,40.766-19.605,44.59-40.485h.013a69.5,69.5,0,0,1,57.923,52.391c7.814,32.059,13.143,62.015,19.708,100.385a24.937,24.937,0,0,1-11.486,25.443,25.461,25.461,0,0,1-23.761,1.3,562.942,562.942,0,0,1-60.077-30.81c-9.331-5.583-18.2-11.345-26.91-17.463,8.681,5.7,26.056-26.349,15.5-30.683" fill="#61c7c0"/>
          <path id="Path_112161" data-name="Path 112161" d="M1302.121,140.965l-.013.013a69.218,69.218,0,0,0-45.9-27.012h-.012c-.537-.076-1.046-.153-1.581-.216a4.013,4.013,0,0,1-3.467-3.99c.013-4.092-.026-14.175,0-41.9a16.318,16.318,0,0,0,9.458-5.635c0,20.931,41.428,48.121,41.518,78.74" fill="#69868f"/>
          <path id="Path_112162" data-name="Path 112162" d="M1260,46.661c4.232,2.995,4.793,10.249.6,15.564a16.312,16.312,0,0,1-9.458,5.634c-.026,27.726.013,37.809,0,41.9a4.013,4.013,0,0,0,3.467,3.99c.536.063,1.046.14,1.581.216-3.824,20.88-32.123,42.984-44.59,40.485-11.281-2.269-7.483-23.824,5.507-42.983V95.444l-10.823-.726a22.787,22.787,0,0,1-7.189-1.657A23.216,23.216,0,0,1,1184.7,69.925c.153-2.18.319-4.347.472-6.489.854-11.842,1.581-22.792,1.453-30.874-.293-18.113,28.159-19.324,28.159-19.324,0,29.968,31.932,24.946,31.932,34.978,5.876-3.722,10.414-3.62,13.282-1.555m-45.877,30.3c7.355,0,9.28-7.087,9.28-7.087a60.7,60.7,0,0,1-17.553,0s.918,7.087,8.273,7.087" fill="#fff"/>
          <path id="Path_112163" data-name="Path 112163" d="M1218.881,1c38.994,0,41.314,29.217,41.135,45.648l-.012.013c-2.869-2.065-7.407-2.167-13.283,1.555,0-10.032-31.932-5.01-31.932-34.979,0,0-28.452,1.211-28.158,19.325.127,8.082-.6,19.032-1.454,30.874-4.155-5.456-7.865-13.474-8.171-25.278C1176.471,18.26,1189.409,1,1218.881,1" fill="#69868f"/>
          <path id="Path_112164" data-name="Path 112164" d="M1224.4,253.868l-44.844-5.658c-.3-4.682-.456-8.365-1.4-16.013.064-.127.141-.242.2-.37,10.912,2.04,20.383,4.22,30.16,11.205,1.02.727,2.053,1.453,3.085,2.18,8.706,6.119,3.464,3.073,12.795,8.656" fill="#61c7c0"/>
          <path id="Path_112165" data-name="Path 112165" d="M1133.64,220.507c8.592-1.058,13.946-1.287,17.821-1.542a27.036,27.036,0,0,0,7.941-1.313c.65-.243,1.313-.485,1.976-.727,2.345-.867,9.063-3.289,11.485-4.015h.013a9.234,9.234,0,0,1,1.16-.65l.816-.383,4.92-2.333a2.916,2.916,0,0,0,.88-4.627,72.51,72.51,0,0,1-7.648-9.446,28.965,28.965,0,0,1-4-8.362,4.024,4.024,0,0,1,2.766-4.984,3.733,3.733,0,0,1,1.326-.1c1.886.179,3.046,1.9,4.64,3.569,4.474,4.589,9.471,8.324,16.584,13.614a54.108,54.108,0,0,0,12.072,6.807c3.505,1.428,9.611,3.952,20.714,8.516,10.554,4.334-6.82,36.38-15.5,30.682-1.032-.726-2.065-1.453-3.085-2.18-9.777-6.985-19.248-9.165-30.16-11.2-.076-.013-.165-.039-.255-.051l-1.873-.345a10.242,10.242,0,0,1-3.723-1.491,10.107,10.107,0,0,0-.968-.586c-3.251-1.721-5.8-.472-19.274,1.313-2.448.331-18.076-1.364-20.587-1.683a4.059,4.059,0,0,1-3.684-4.755,4,4,0,0,1,3.531-3.454c.727-.09,1.428-.179,2.116-.268" fill="#fff"/>
          <path id="Path_112166" data-name="Path 112166" d="M1223.406,69.873s-1.925,7.087-9.28,7.087-8.273-7.087-8.273-7.087a60.63,60.63,0,0,0,17.553,0" fill="#c3cfd2"/>
          <path id="Path_112167" data-name="Path 112167" d="M1217.109,95.444v14.468c-1.683-.127-3.391-.242-5.124-.357a35.472,35.472,0,0,0-22.5,6.183c3.276-8.35,7.3-15.947,9.611-22.665V93.06a22.76,22.76,0,0,0,7.189,1.657Z" fill="#69868f"/>
          <path id="Path_112168" data-name="Path 112168" d="M1180.652,204.918a2.916,2.916,0,0,1-.88,4.627l-4.92,2.333A133.558,133.558,0,0,1,1173,195.472a72.51,72.51,0,0,0,7.648,9.446" fill="#61c7c0"/>
          <path id="Path_112169" data-name="Path 112169" d="M1178.358,231.827c-.064.127-.14.242-.2.37-.013-.141-.038-.281-.051-.421.089.013.179.038.255.051" fill="#fff"/>
          <path id="Path_112170" data-name="Path 112170" d="M1166.439,230.132c-5,1.453-12.887,3.7-13.882,3.7-12.224,0-23.123-.434-27.738-.778a4.129,4.129,0,0,1-.471-8.171q1.816-.344,3.633-.65h.012a4.06,4.06,0,0,0,3.684,4.755c2.512.318,18.14,2.014,20.587,1.682,13.474-1.784,16.023-3.033,19.274-1.313l-.013.013q-2.543.4-5.086.765" fill="#fff"/>
          <path id="Path_112171" data-name="Path 112171" d="M1151.461,218.927v.038c-3.875.255-9.229.485-17.821,1.543-1.07-.816-2.116-1.619-3.161-2.473a4.138,4.138,0,0,1,4.232-7.011c4.4,1.861,12.5,5.761,16.75,7.9" fill="#fff"/>
          <path id="Path_112172" data-name="Path 112172" d="M1074.9,152.552l20.625,17.374c-7.266-4.206-31.944,16.7-25.609,26.158-5.392-6.285-11.065-12.888-17.247-19.95-8.171-9.356-47.178-16.482-53.806-17.96a5.078,5.078,0,0,1-4.054-5.393,4.939,4.939,0,0,1,5.227-4.4l36.954,2.447a16.527,16.527,0,0,0,6.832-1.147,11.753,11.753,0,0,1,1.989-.548l-4.283-6.922a5.1,5.1,0,0,1,.879-6.539,4.96,4.96,0,0,1,6.6.114L1062.1,147.9a19.823,19.823,0,0,1,12.8,4.653" fill="#fff"/>
          <path id="Path_112173" data-name="Path 112173" d="M1076.851,43.716V120h-38.726l-6.769,12.11L1024.575,120H985.849V43.716Z" fill="#e9eeef"/>
          <path id="Path_112174" data-name="Path 112174" d="M1260.6,62.225c0,20.931,41.428,48.121,41.518,78.74" fill="none" stroke="#053544" stroke-linecap="round" stroke-linejoin="round" stroke-width="2"/>
          <path id="Path_112175" data-name="Path 112175" d="M1189.486,115.738c3.276-8.349,7.3-15.947,9.611-22.665" fill="none" stroke="#053544" stroke-linecap="round" stroke-linejoin="round" stroke-width="2"/>
          <path id="Path_112176" data-name="Path 112176" d="M1185.177,63.436c-4.156-5.456-7.865-13.474-8.171-25.278C1176.471,18.26,1189.409,1,1218.881,1c38.994,0,41.313,29.217,41.135,45.648" fill="none" stroke="#053544" stroke-linecap="round" stroke-linejoin="round" stroke-width="2"/>
          <line id="Line_783" data-name="Line 783" x2="13.397" y2="67.509" transform="translate(1269.577 169.952)" fill="none" stroke="#053544" stroke-linecap="round" stroke-linejoin="round" stroke-width="2"/>
          <path id="Path_112177" data-name="Path 112177" d="M1172.864,212.91c-.051.025-.089.064-.14.089" fill="none" stroke="#053544" stroke-linecap="round" stroke-linejoin="round" stroke-width="2"/>
          <path id="Path_112178" data-name="Path 112178" d="M1295.352,242.535q-6.482-2.658-12.378-5.073c-26.323-10.785-43.965-18.038-55.871-22.933-11.1-4.563-17.208-7.087-20.714-8.515a54.13,54.13,0,0,1-12.072-6.807c-7.112-5.29-12.109-9.025-16.584-13.614-1.593-1.67-2.753-3.391-4.64-3.569a3.728,3.728,0,0,0-1.325.1A4.025,4.025,0,0,0,1169,187.11a28.965,28.965,0,0,0,4,8.362,72.591,72.591,0,0,0,7.648,9.446,2.916,2.916,0,0,1-.879,4.627l-4.921,2.333-.815.382a9.418,9.418,0,0,0-1.16.65" fill="none" stroke="#053544" stroke-linecap="round" stroke-linejoin="round" stroke-width="2"/>
          <path id="Path_112179" data-name="Path 112179" d="M1171.525,229.367q-2.543.4-5.086.765" fill="none" stroke="#053544" stroke-linecap="round" stroke-linejoin="round" stroke-width="2"/>
          <path id="Path_112180" data-name="Path 112180" d="M1069.93,196.1c20.281,23.672,36.432,42.741,59.44,64.6a21.621,21.621,0,0,0,2.384,1.976c0,.013.013,0,.013,0a22.721,22.721,0,0,0,32.926-6.922c4.831-8.247,9.267-16,13.461-23.557.064-.127.14-.242.2-.37" fill="none" stroke="#053544" stroke-linecap="round" stroke-linejoin="round" stroke-width="2"/>
          <path id="Path_112181" data-name="Path 112181" d="M1217.109,109.912c-1.683-.127-3.391-.242-5.124-.357a35.471,35.471,0,0,0-22.5,6.182v.013a35.391,35.391,0,0,0-12.2,14.647l-35.31,78.65-46.451-39.121L1074.9,152.552a19.812,19.812,0,0,0-12.8-4.653l-13.092-12.11a4.959,4.959,0,0,0-6.6-.115,5.1,5.1,0,0,0-.879,6.539l4.283,6.922a11.819,11.819,0,0,0-1.989.548,16.533,16.533,0,0,1-6.833,1.148l-36.954-2.448a4.939,4.939,0,0,0-5.226,4.4,5.077,5.077,0,0,0,4.054,5.392c6.628,1.479,45.635,8.6,53.806,17.961,6.182,7.062,11.855,13.665,17.247,19.949" fill="none" stroke="#053544" stroke-linecap="round" stroke-linejoin="round" stroke-width="2"/>
          <path id="Path_112182" data-name="Path 112182" d="M1185.866,142.788c-6.947,18.636-11.689,25.125-12.773,39.236v.013" fill="none" stroke="#053544" stroke-linecap="round" stroke-linejoin="round" stroke-width="2"/>
          <path id="Path_112183" data-name="Path 112183" d="M1173,195.472a133.6,133.6,0,0,0,1.848,16.406" fill="none" stroke="#053544" stroke-linecap="round" stroke-linejoin="round" stroke-width="2"/>
          <path id="Path_112184" data-name="Path 112184" d="M1178.1,231.776c.013.14.038.28.051.421.56,4.537,1.052,9.753,1.4,16.013" fill="none" stroke="#053544" stroke-linecap="round" stroke-linejoin="round" stroke-width="2"/>
          <path id="Path_112185" data-name="Path 112185" d="M1070.758,197.091a6.634,6.634,0,0,1-.829-.994c-.012,0-.012-.013-.012-.013-6.336-9.458,18.343-30.364,25.609-26.157" fill="none" stroke="#053544" stroke-linecap="round" stroke-linejoin="round" stroke-width="2"/>
          <path id="Path_112186" data-name="Path 112186" d="M1227.1,214.529c10.555,4.334-6.82,36.381-15.5,30.683" fill="none" stroke="#053544" stroke-linecap="round" stroke-linejoin="round" stroke-width="2"/>
          <path id="Path_112187" data-name="Path 112187" d="M1172.876,212.91h-.013c-2.422.727-9.14,3.149-11.485,4.015-.663.243-1.326.485-1.976.727a27.036,27.036,0,0,1-7.941,1.313c-3.876.255-9.229.484-17.821,1.542-.688.09-1.389.179-2.116.268a4,4,0,0,0-3.531,3.455,4.059,4.059,0,0,0,3.684,4.754c2.511.319,18.139,2.014,20.587,1.683,13.473-1.785,16.023-3.034,19.273-1.313a10.414,10.414,0,0,1,.969.586,10.246,10.246,0,0,0,3.722,1.492l1.874.344c.09.013.179.038.255.051,10.912,2.039,20.383,4.219,30.16,11.205,1.02.726,2.052,1.453,3.085,2.179,8.706,6.119,17.578,11.881,26.909,17.464a563.243,563.243,0,0,0,60.078,30.81,25.461,25.461,0,0,0,23.761-1.3,24.936,24.936,0,0,0,11.485-25.443c-6.565-38.37-11.893-68.326-19.707-100.385a69.509,69.509,0,0,0-57.923-52.391h-.013c-.535-.077-1.045-.153-1.581-.217a4.012,4.012,0,0,1-3.467-3.99c.013-4.091-.026-14.175,0-41.9a16.317,16.317,0,0,0,9.458-5.634c4.194-5.316,3.633-12.569-.6-15.564-2.868-2.065-7.406-2.167-13.282,1.555,0-10.032-31.932-5.01-31.932-34.979,0,0-28.452,1.211-28.159,19.325.128,8.082-.6,19.032-1.453,30.874-.153,2.141-.319,4.308-.472,6.488A23.215,23.215,0,0,0,1199.1,93.06a22.788,22.788,0,0,0,7.189,1.658l10.823.726v16.024c-12.99,19.159-16.788,40.714-5.507,42.983,12.467,2.5,40.766-19.605,44.59-40.485" fill="none" stroke="#053544" stroke-linecap="round" stroke-linejoin="round" stroke-width="2"/>
          <path id="Path_112188" data-name="Path 112188" d="M1133.653,220.52l-.013-.013c-1.07-.816-2.116-1.619-3.161-2.473a4.138,4.138,0,0,1,4.232-7.011c4.4,1.861,12.5,5.762,16.75,7.9" fill="none" stroke="#053544" stroke-linecap="round" stroke-linejoin="round" stroke-width="2"/>
          <path id="Path_112189" data-name="Path 112189" d="M1127.981,224.23q-1.816.306-3.633.65a4.129,4.129,0,0,0,.472,8.171c4.613.344,15.513.778,27.737.778.995,0,8.886-2.244,13.881-3.7,2.067-.6,3.646-1.071,4.03-1.186" fill="none" stroke="#053544" stroke-linecap="round" stroke-linejoin="round" stroke-width="2"/>
          <path id="Path_112190" data-name="Path 112190" d="M1258.015,51.747c-5.061.433-5.774,6.221-5.774,6.221" fill="none" stroke="#053544" stroke-linecap="round" stroke-linejoin="round" stroke-width="2"/>
          <path id="Path_112191" data-name="Path 112191" d="M1189.741,45.4c4.551-2.843,10.835-3.353,10.835-3.353" fill="none" stroke="#053544" stroke-linecap="round" stroke-linejoin="round" stroke-width="2"/>
          <path id="Path_112192" data-name="Path 112192" d="M1214.126,42.174c5.8-.127,13.155,3.225,13.155,3.225" fill="none" stroke="#053544" stroke-linecap="round" stroke-linejoin="round" stroke-width="2"/>
          <line id="Line_784" data-name="Line 784" y2="3.607" transform="translate(1195.656 52.461)" fill="none" stroke="#053544" stroke-linecap="round" stroke-linejoin="round" stroke-width="3"/>
          <line id="Line_785" data-name="Line 785" y2="4.742" transform="translate(1219.442 51.964)" fill="none" stroke="#053544" stroke-linecap="round" stroke-linejoin="round" stroke-width="3"/>
          <path id="Path_112193" data-name="Path 112193" d="M1206.491,53.1c.344,1.759-3.9,8.923,4.525,7.712" fill="none" stroke="#053544" stroke-linecap="round" stroke-linejoin="round" stroke-width="2"/>
          <path id="Path_112194" data-name="Path 112194" d="M1205.854,69.873a60.624,60.624,0,0,0,17.552,0s-1.925,7.087-9.28,7.087S1205.854,69.873,1205.854,69.873Z" fill="none" stroke="#053544" stroke-linecap="round" stroke-linejoin="round" stroke-width="2"/>
          <path id="Path_112195" data-name="Path 112195" d="M1038.125,120l-6.769,12.11L1024.575,120H985.849V43.717h91V120Z" fill="none" stroke="#053544" stroke-linecap="round" stroke-linejoin="round" stroke-width="2"/>
          <line id="Line_786" data-name="Line 786" x2="13.295" transform="translate(1004.766 63.857)" fill="none" stroke="#053544" stroke-linecap="round" stroke-linejoin="round" stroke-width="2"/>
          <line id="Line_787" data-name="Line 787" x2="32.493" transform="translate(1025.442 63.857)" fill="none" stroke="#053544" stroke-linecap="round" stroke-linejoin="round" stroke-width="2"/>
          <line id="Line_788" data-name="Line 788" x2="53.169" transform="translate(1004.766 76.311)" fill="none" stroke="#053544" stroke-linecap="round" stroke-linejoin="round" stroke-width="2"/>
          <line id="Line_789" data-name="Line 789" x2="34.392" transform="translate(1004.766 88.765)" fill="none" stroke="#053544" stroke-linecap="round" stroke-linejoin="round" stroke-width="2"/>
          <line id="Line_790" data-name="Line 790" x2="10.975" transform="translate(1046.959 88.765)" fill="none" stroke="#053544" stroke-linecap="round" stroke-linejoin="round" stroke-width="2"/>
          <line id="Line_791" data-name="Line 791" x2="27.674" transform="translate(1017.513 101.206)" fill="none" stroke="#053544" stroke-linecap="round" stroke-linejoin="round" stroke-width="2"/>
        </g>
      </g>
      <g id="Group_40331" data-name="Group 40331">
        <g id="Group_40330" data-name="Group 40330" clip-path="url(#clip-path-2)">
          <path id="Path_112196" data-name="Path 112196" d="M436,269.3c-4.423,9.305-10.516,13.6-21.313,17.056l-1.874,2.473a96.024,96.024,0,0,0-6.514,9.394l-.026.039a4.808,4.808,0,0,1-5,2.371,4.912,4.912,0,0,1-3.723-6.795c.8-1.848,1.683-3.633,2.588-5.366q-4.436,4.34-8.961,8.617a4.894,4.894,0,0,1-8.222-3.008c-.089.127-.179.255-.281.4l-.025.038a4.839,4.839,0,0,1-5.188,1.963,4.918,4.918,0,0,1-3.072-7.189c1.415-2.461,2.817-4.819,4.27-7.215q2.18-3.557,4.5-7.075,1.434-2.179,2.983-4.347c-1.237.115-2.473.217-3.71.319-2.562.191-5.061.357-7.686.446a5.061,5.061,0,0,1-5.3-4.27,4.919,4.919,0,0,1,2.906-5.1h.013a4.707,4.707,0,0,1,1.275-.357l.1-.013c1.964-.255,4.016-.573,6.043-.918.459-.076.9-.153,1.351-.229,2.46-.433,4.92-.918,7.342-1.453,2.97-.663,5.915-1.4,8.719-2.269a13.343,13.343,0,0,0,6.081-3.99l4.079-4.627,2.945-3.315c10.911-9.586,35.59,2.843,30.325,17.171a16.071,16.071,0,0,1-3.2,5.124l.051.051A7.1,7.1,0,0,0,436,269.3" fill="#fff"/>
          <path id="Path_112197" data-name="Path 112197" d="M274.681,117.659a65.389,65.389,0,0,1,41.823-6.7c25.8,4.449,48.262,8.617,73.131,13.627a57.877,57.877,0,0,1,37.477,25.826c14.544,23.021,25.66,41.556,39.262,66.056,4.665,8.413,2.651,18.267-3.646,25.685-4.831,5.673-11.88,12.455-19.758,19.9h-2.346c5.264-14.328-19.414-26.757-30.326-17.171l15.462-17.4a5.989,5.989,0,0,0,.409-7.457l-25.928-36.355c-2.754,28.452-6.728,36.688-11.09,51.443-19.743,1.762-68.312,6.392-115.534,11.048.533-33.649.541-44.4,5.36-81.242l-59.211,31.792a21.983,21.983,0,0,1-29.5-8.452c-6.208-10.835-1.8-24.717,9.242-30.58,17.3-9.217,52.85-28.134,75.17-40.014" fill="#a5b6bc"/>
          <path id="Path_112198" data-name="Path 112198" d="M442.957,262.047c-1.785,1.7-3.62,3.416-5.481,5.175l-.051-.051a16.071,16.071,0,0,0,3.2-5.124Z" fill="#fff"/>
          <path id="Path_112199" data-name="Path 112199" d="M397.258,274.871c-.943,1.173-1.912,2.333-2.881,3.48-3.34,4-6.781,8-10.21,11.919l-.039.038a4.9,4.9,0,0,0,7.05,6.781q4.531-4.282,8.961-8.617" fill="none" stroke="#053544" stroke-linecap="round" stroke-linejoin="round" stroke-width="2"/>
          <path id="Path_112200" data-name="Path 112200" d="M372.362,262.047a4.753,4.753,0,0,1,1.275-.357l.1-.013c1.963-.255,4.015-.573,6.042-.917.459-.077.9-.153,1.351-.23,2.46-.433,4.921-.918,7.343-1.453,2.97-.663,5.914-1.4,8.719-2.269a13.346,13.346,0,0,0,6.08-3.99l4.079-4.627,2.945-3.315,15.462-17.4a5.99,5.99,0,0,0,.408-7.458L400.24,183.664a212.249,212.249,0,0,1-11.089,51.443" fill="none" stroke="#053544" stroke-linecap="round" stroke-linejoin="round" stroke-width="2"/>
          <path id="Path_112201" data-name="Path 112201" d="M382.955,294.081c-.089.127-.178.255-.28.4l-.026.038a4.836,4.836,0,0,1-5.188,1.963,4.918,4.918,0,0,1-3.072-7.189c1.415-2.46,2.817-4.818,4.27-7.215q2.18-3.557,4.5-7.075c.956-1.453,1.95-2.906,2.983-4.346-1.237.114-2.473.216-3.71.318-2.562.191-5.06.357-7.686.446a5.062,5.062,0,0,1-5.3-4.27,4.921,4.921,0,0,1,2.906-5.1" fill="none" stroke="#053544" stroke-linecap="round" stroke-linejoin="round" stroke-width="2"/>
          <path id="Path_112202" data-name="Path 112202" d="M408.259,247.158a12.083,12.083,0,0,1,2.04-2.282c10.911-9.586,35.59,2.843,30.325,17.171a16.071,16.071,0,0,1-3.2,5.124c-.281.319-.574.625-.893.943" fill="none" stroke="#053544" stroke-linecap="round" stroke-linejoin="round" stroke-width="2"/>
          <path id="Path_112203" data-name="Path 112203" d="M442.969,262.047c7.878-7.444,14.927-14.226,19.758-19.9,6.3-7.419,8.311-17.273,3.646-25.686-13.6-24.5-24.717-43.035-39.262-66.056a57.873,57.873,0,0,0-37.476-25.826c-24.87-5.01-47.331-9.178-73.131-13.627a65.392,65.392,0,0,0-41.824,6.7c-22.32,11.881-57.872,30.8-75.17,40.014-11.04,5.863-15.45,19.745-9.242,30.58a21.982,21.982,0,0,0,29.5,8.452l59.211-31.792c-4.819,36.84-6.616,60.4-4.768,97.134" fill="none" stroke="#053544" stroke-linecap="round" stroke-linejoin="round" stroke-width="2"/>
          <path id="Path_112204" data-name="Path 112204" d="M404.842,280.148l-1.428,2.447c-1.1,1.9-2.2,3.85-3.276,5.877-.9,1.734-1.784,3.518-2.587,5.367a4.91,4.91,0,0,0,3.722,6.794,4.809,4.809,0,0,0,5-2.371l.025-.038a95.908,95.908,0,0,1,6.514-9.395l1.874-2.473c10.8-3.455,16.89-7.75,21.313-17.056a7.114,7.114,0,0,1,1.479-2.078c1.861-1.759,3.7-3.48,5.481-5.175" fill="none" stroke="#053544" stroke-linecap="round" stroke-linejoin="round" stroke-width="2"/>
          <path id="Path_112205" data-name="Path 112205" d="M366.346,115.1l5.8,6.029-1.8,19.912L357.8,127.717Z" fill="#a5b6bc"/>
          <path id="Path_112206" data-name="Path 112206" d="M357.805,127.717l12.543,13.321,1.8-19.911-5.8-6.03Z" fill="none" stroke="#053544" stroke-linecap="round" stroke-linejoin="round" stroke-width="2"/>
          <path id="Path_112207" data-name="Path 112207" d="M393.064,35.745c-.561,16.469,7.113,38.216,1.377,51.537-6.846,15.883-28.1,17.349-28.1,17.349v17.782c0,10.135-37.082,5.3-37.082-8.3V73.247c-17.4-2.077-16.992-17.667-5.711-19.72a18.186,18.186,0,0,1,9.293.995c13.155,0,21.479-5.367,23.672-18.752h35.7c.28,0,.561-.012.841-.025" fill="#fff"/>
          <path id="Path_112208" data-name="Path 112208" d="M323.553,53.515c-1.989-20.434,6.412-33.347,18.483-26.935C348.614,13.5,365.249,12,374.414,17.886a15.586,15.586,0,0,1,13.627-7.495h4.181a12.691,12.691,0,0,1,.842,25.354c-.281.013-.561.026-.842.026h-35.7C354.325,49.155,346,54.522,332.846,54.522a18.186,18.186,0,0,0-9.293-.994Z" fill="#69868f"/>
          <path id="Path_112209" data-name="Path 112209" d="M393.064,35.745c-.561,16.469,7.113,38.216,1.377,51.537-6.846,15.883-28.1,17.349-28.1,17.349v17.782c0,10.135-37.082,5.3-37.082-8.3V73.247c-17.4-2.077-16.992-17.667-5.711-19.72a18.186,18.186,0,0,1,9.293.995c13.155,0,21.479-5.367,23.672-18.752h35.7c.28,0,.561-.012.841-.025a12.691,12.691,0,0,0-.841-25.354h-4.181a15.585,15.585,0,0,0-13.627,7.495C365.25,12,348.614,13.5,342.037,26.58c-12.072-6.412-20.472,6.5-18.484,26.935" fill="none" stroke="#053544" stroke-linecap="round" stroke-linejoin="round" stroke-width="2"/>
          <path id="Path_112210" data-name="Path 112210" d="M376.11,62.884c.6,1.989,5,5.851,0,8.859" fill="none" stroke="#053544" stroke-linecap="round" stroke-linejoin="round" stroke-width="2"/>
          <path id="Path_112211" data-name="Path 112211" d="M364.727,78.13c3.327,2.792,9.752,2.664,13.13,1.007" fill="none" stroke="#053544" stroke-linecap="round" stroke-linejoin="round" stroke-width="2"/>
          <line id="Line_792" data-name="Line 792" y1="3.556" transform="translate(362.037 61.342)" fill="none" stroke="#053544" stroke-linecap="round" stroke-linejoin="round" stroke-width="3"/>
          <line id="Line_793" data-name="Line 793" y1="3.505" transform="translate(384.434 60.335)" fill="none" stroke="#053544" stroke-linecap="round" stroke-linejoin="round" stroke-width="3"/>
          <path id="Path_112212" data-name="Path 112212" d="M355.676,55.287c3.748-2.32,10.16-3.327,10.16-3.327" fill="none" stroke="#053544" stroke-linecap="round" stroke-linejoin="round" stroke-width="2"/>
          <path id="Path_112213" data-name="Path 112213" d="M380.215,51.845a31.332,31.332,0,0,1,8.439,3.085" fill="none" stroke="#053544" stroke-linecap="round" stroke-linejoin="round" stroke-width="2"/>
          <path id="Path_112214" data-name="Path 112214" d="M321.794,60.526c3.238-.268,6.361,3.518,6.361,5.316" fill="none" stroke="#053544" stroke-linecap="round" stroke-linejoin="round" stroke-width="2"/>
          <path id="Path_112215" data-name="Path 112215" d="M329.264,107.563l15.679,18.993-14.251,13.117-7.649-27.049Z" fill="#a5b6bc"/>
          <path id="Path_112216" data-name="Path 112216" d="M323.043,112.624l6.221-5.061,15.679,18.994-14.252,13.117Z" fill="none" stroke="#053544" stroke-linecap="round" stroke-linejoin="round" stroke-width="2"/>
          <path id="Path_112217" data-name="Path 112217" d="M240.441,33.285c5.991,5.991,1.453,20.255-10.134,31.855A53.878,53.878,0,0,1,220.3,73.069c-1.771-6.692-3.658-13.04-4.6-18.279C191.734,55.9,201.116,74.7,179.165,74.7c-9.7,0-11.727.178-14.889-.854-12.836-4.181-24.385,13.027-3.735,20.586V119.7c-11.013-9.649-27.355-27.457-23.862-45.992a74.694,74.694,0,0,1,9.675-19.643c13.626-19.134,35.106-24.131,62.6-11.026,11.537-11.32,25.546-15.692,31.486-9.752" fill="#69868f"/>
          <path id="Path_112218" data-name="Path 112218" d="M220.3,73.069c5.94,22.461,10.529,48.784-26.527,50.224v23.888a9.084,9.084,0,0,1-3.7,7.3c-11.791,8.668-36.559,4.78-49.79-3.812h-.013a98.55,98.55,0,0,0-.956-12.122h5.3a15.929,15.929,0,0,0,15.921-15.934V94.433c-20.651-7.559-9.1-24.768,3.735-20.586,3.161,1.032,5.188.854,14.889.854,21.95,0,12.568-18.8,36.533-19.912.944,5.24,2.83,11.588,4.6,18.28" fill="#fff"/>
          <path id="Path_112219" data-name="Path 112219" d="M139.177,50.787l7.177,3.276a74.686,74.686,0,0,0-9.675,19.644l-7.827-2.92c0-6.845,6.016-16.826,10.325-20" fill="#f5cc7c"/>
          <path id="Path_112220" data-name="Path 112220" d="M139.318,138.552a98.551,98.551,0,0,1,.956,12.123,82.374,82.374,0,0,1-4.066,27.126c-15.616,47.866-77.185,17.846-77.185,17.846,66.35-32.047,27.738-70.467,27.738-101.9s33.066-55.667,52.417-42.958c-4.309,3.174-10.325,13.155-10.325,20-8.477,16.214,6.411,38.968,10.465,67.764" fill="#69868f"/>
          <path id="Path_112221" data-name="Path 112221" d="M139.318,138.552h5.3a15.929,15.929,0,0,0,15.921-15.934V94.434c-20.65-7.559-9.1-24.768,3.735-20.587,3.161,1.033,5.188.854,14.889.854,21.951,0,12.569-18.8,36.533-19.911.944,5.239,2.83,11.587,4.6,18.279,5.94,22.461,10.529,48.784-26.527,50.225v23.888a9.08,9.08,0,0,1-3.7,7.3c-11.791,8.668-36.559,4.78-49.79-3.811" fill="none" stroke="#053544" stroke-linecap="round" stroke-linejoin="round" stroke-width="2"/>
          <path id="Path_112222" data-name="Path 112222" d="M146.354,54.063l-7.177-3.276c-4.308,3.174-10.325,13.155-10.325,20l7.827,2.919a74.694,74.694,0,0,1,9.675-19.643c13.627-19.134,35.106-24.131,62.6-11.026,11.536-11.32,25.545-15.692,31.485-9.752,5.992,5.991,1.454,20.255-10.134,31.855A53.9,53.9,0,0,1,220.3,73.069" fill="none" stroke="#053544" stroke-linecap="round" stroke-linejoin="round" stroke-width="2"/>
          <path id="Path_112223" data-name="Path 112223" d="M136.679,73.707c-3.493,18.534,12.849,36.342,23.863,45.992" fill="none" stroke="#053544" stroke-linecap="round" stroke-linejoin="round" stroke-width="2"/>
          <path id="Path_112224" data-name="Path 112224" d="M128.852,70.787c-8.477,16.214,6.412,38.968,10.465,67.764a98.356,98.356,0,0,1,.957,12.123,82.347,82.347,0,0,1-4.067,27.126c-15.615,47.866-77.184,17.846-77.184,17.846,66.349-32.046,27.738-70.467,27.738-101.9s33.066-55.667,52.416-42.958" fill="none" stroke="#053544" stroke-linecap="round" stroke-linejoin="round" stroke-width="2"/>
          <path id="Path_112225" data-name="Path 112225" d="M155.481,81.011c2.218-.319,5.061,2.014,5.061,4.971" fill="none" stroke="#053544" stroke-linecap="round" stroke-linejoin="round" stroke-width="2"/>
          <path id="Path_112226" data-name="Path 112226" d="M207.528,81.215c0,10.147,5.43,8.426,5.43,10.542s-5.43,3.544-5.43,3.544" fill="none" stroke="#053544" stroke-linecap="round" stroke-linejoin="round" stroke-width="2"/>
          <line id="Line_794" data-name="Line 794" y2="3.225" transform="translate(193.531 85.472)" fill="none" stroke="#053544" stroke-linecap="round" stroke-linejoin="round" stroke-width="3"/>
          <line id="Line_795" data-name="Line 795" y2="1.989" transform="translate(217.05 85.001)" fill="none" stroke="#053544" stroke-linecap="round" stroke-linejoin="round" stroke-width="3"/>
          <path id="Path_112227" data-name="Path 112227" d="M185.9,79.723c4.334-2.282,12.2-3.3,12.2-3.3" fill="none" stroke="#053544" stroke-linecap="round" stroke-linejoin="round" stroke-width="2"/>
          <path id="Path_112228" data-name="Path 112228" d="M213.978,76.817a44.526,44.526,0,0,1,7.24,1.1" fill="none" stroke="#053544" stroke-linecap="round" stroke-linejoin="round" stroke-width="2"/>
          <path id="Path_112229" data-name="Path 112229" d="M193.43,102.605c2.167,1.173,6.973,1.976,9.178,1.135" fill="none" stroke="#053544" stroke-linecap="round" stroke-linejoin="round" stroke-width="2"/>
          <path id="Path_112230" data-name="Path 112230" d="M317.269,275.674c-1.925-3.888,3-7.916,3.6-12.951.089-.676.038-1.249-.115-1.211a5.4,5.4,0,0,1,.089-1.02,6.765,6.765,0,0,1,1.632-3.505,6.921,6.921,0,0,1,5.341-2.435,7.023,7.023,0,0,1,6.96,7.062,16.809,16.809,0,0,1-1.619,5.787A37.518,37.518,0,0,1,326,277.14a5.345,5.345,0,0,1-7.547.127,5.435,5.435,0,0,1-1.185-1.593" fill="#fff"/>
          <path id="Path_112231" data-name="Path 112231" d="M319.92,285.54c-.523-2.8,1.81-5.175,2.817-6.807A5.333,5.333,0,0,0,326,277.14a37.539,37.539,0,0,0,7.152-9.739c6.386,1.81,8.54,11.421-4.832,21.415a5.156,5.156,0,0,1-2.919,1.045,5.243,5.243,0,0,1-4.474-2.1,5.172,5.172,0,0,1-1.007-2.218" fill="#fff"/>
          <path id="Path_112232" data-name="Path 112232" d="M266,262.544a16.435,16.435,0,0,0,3.862-1.9,14.674,14.674,0,0,0,3.4,1.325,4.541,4.541,0,0,0,3.811,4.449c7.61,1.262,14.621,2.256,20.536,2.945,7.954.918,14.647-4.385,19.261-7.2a9.516,9.516,0,0,1,3.965-1.67,5.387,5.387,0,0,0-.09,1.019c.153-.038.2.536.115,1.211-.6,5.036-5.519,9.064-3.6,12.952a5.453,5.453,0,0,0,1.186,1.593,5.3,5.3,0,0,0,4.283,1.466c-1.007,1.632-3.34,4-2.817,6.807a5.172,5.172,0,0,0,1.007,2.218,5.241,5.241,0,0,0,4.474,2.1v.013c-6.017,7.062-16.444,11.524-24.258,11.575-60.154.484-114.47-12.378-114.6-12.4-17.31-4.461-29.433-14.2-40.74-27h-.012c-4.258-4.819-8.414-10.083-12.671-15.654-1.453-1.9-2.868-3.837-4.245-5.774a1.544,1.544,0,0,0-.127-.191c-9.268-14.889,30.618-37.057,36.125-29.1a.21.21,0,0,0,.038.051c6.68,10.478,13.525,19.822,19.886,26.208,7.432,8.439,33.232,16.52,60,22.55,4.577,1.032,9.178,2,13.716,2.906a13.861,13.861,0,0,0,7.483-.5" fill="#fff"/>
          <path id="Path_112233" data-name="Path 112233" d="M273.266,261.971a14.7,14.7,0,0,1-3.4-1.326c-1.172-.663-1.771-1.415-1.631-2.23l1.708-9.523a.429.429,0,0,0-.026.179c0,7.075,51.117,7.075,51.117,0a.551.551,0,0,0-.026-.2h.013l1.441,8.107.012.013a6.762,6.762,0,0,0-1.63,3.505,9.52,9.52,0,0,0-3.965,1.67c-11.907,3.149-33.755,2.626-43.608-.191" fill="#f5cc7c"/>
          <path id="Path_112234" data-name="Path 112234" d="M321,248.866a.551.551,0,0,1,.026.2c0,7.075-51.117,7.075-51.117,0a.429.429,0,0,1,.026-.179v-.025c.509-3.671,15.092-5.367,28.541-5.061,11.459.243,22.091,1.925,22.524,5.061" fill="#fff"/>
          <path id="Path_112235" data-name="Path 112235" d="M316.874,262.162c-4.615,2.817-11.307,8.12-19.261,7.2-5.915-.688-12.926-1.682-20.536-2.944a4.539,4.539,0,0,1-3.811-4.449c9.853,2.817,31.7,3.34,43.608.191" fill="#053544"/>
          <path id="Path_112236" data-name="Path 112236" d="M298.479,243.755v.051c-13.448-.306-28.031,1.389-28.541,5.061v.025l-1.708,9.522c-.14.816.459,1.568,1.631,2.231a16.377,16.377,0,0,1-3.862,1.9c-5.6-7.176-11.753-15.844-18.2-25.583a66.175,66.175,0,0,0,.956-19.249,22.369,22.369,0,0,0-2.855-8.591c8.859-6.96,22.1-13.168,25.392-8.056,0,.012.013.012.013.025,11.46,18.19,22.206,35.144,27.177,42.665" fill="#fff"/>
          <path id="Path_112237" data-name="Path 112237" d="M164.876,211.326c-5.507-7.954-45.393,14.213-36.126,29.1-4.244-6.03-8.145-12.237-11.867-18.407q-3.174-5.335-5.877-10.644c-21.033-41.186-20.587-78.931,14.111-78.931,25.992,0,17.133,20.523,53,20.523,7.037,0,12.085-2.549,15.654-6.641a119.648,119.648,0,0,0,22.269-3.748A22.713,22.713,0,0,1,240.862,152.6c7.776,12.442,19.427,31.015,30.428,48.465-3.289-5.111-16.533,1.1-25.393,8.057a22.371,22.371,0,0,1,2.856,8.591,66.174,66.174,0,0,1-.956,19.249c-1.148,6.284-1.307,7.877-1.9,13.321-7.2.857-17.671,2.985-26.467,3.33-16.323-4.837-29.632-10.351-34.63-16.027-6.361-6.386-13.206-15.73-19.886-26.208a.187.187,0,0,1-.038-.051" fill="#01a499"/>
          <path id="Path_112238" data-name="Path 112238" d="M147.387,263.807l-32.722,5.084c-1.16-13.69-3.073-38.916-3.659-57.514q2.715,5.3,5.876,10.644c3.722,6.17,7.623,12.377,11.868,18.407a1.621,1.621,0,0,1,.127.191c1.377,1.938,2.792,3.875,4.245,5.775,4.258,5.57,10.007,12.6,14.265,17.413" fill="#01a499"/>
          <line id="Line_796" data-name="Line 796" x2="1.44" y2="8.107" transform="translate(321.017 248.866)" fill="none" stroke="#053544" stroke-linecap="round" stroke-linejoin="round" stroke-width="2"/>
          <path id="Path_112239" data-name="Path 112239" d="M114.666,268.891c-1.27-13.993-2.969-35.6-3.66-57.514" fill="none" stroke="#053544" stroke-linecap="round" stroke-linejoin="round" stroke-width="2"/>
          <path id="Path_112240" data-name="Path 112240" d="M325.4,289.874c-6.017,7.062-16.444,11.523-24.258,11.574-60.154.485-114.47-12.377-114.6-12.4-17.31-4.461-29.433-14.2-40.74-27" fill="none" stroke="#053544" stroke-linecap="round" stroke-linejoin="round" stroke-width="2"/>
          <path id="Path_112241" data-name="Path 112241" d="M128.878,240.619c1.377,1.938,2.792,3.875,4.245,5.775,4.257,5.57,8.413,10.835,12.671,15.653" fill="none" stroke="#053544" stroke-linecap="round" stroke-linejoin="round" stroke-width="2"/>
          <path id="Path_112242" data-name="Path 112242" d="M271.29,201.064c-11-17.451-22.652-36.024-30.428-48.465a22.713,22.713,0,0,0-24.819-10.019,119.638,119.638,0,0,1-22.269,3.747c-3.569,4.092-8.617,6.642-15.654,6.642-35.87,0-27.011-20.523-53-20.523-34.7,0-35.144,37.744-14.111,78.931q2.715,5.3,5.877,10.643c3.722,6.17,7.623,12.378,11.867,18.407" fill="none" stroke="#053544" stroke-linecap="round" stroke-linejoin="round" stroke-width="2"/>
          <path id="Path_112243" data-name="Path 112243" d="M298.479,243.755c-4.971-7.521-15.717-24.475-27.177-42.665" fill="none" stroke="#053544" stroke-linecap="round" stroke-linejoin="round" stroke-width="2"/>
          <path id="Path_112244" data-name="Path 112244" d="M226.815,171.452c0,16.049,13.091,26.68,19.083,37.668a22.368,22.368,0,0,1,2.855,8.592,66.17,66.17,0,0,1-.956,19.248c-.738,4.044-1.64,8.124-2.271,13.321" fill="none" stroke="#053544" stroke-linecap="round" stroke-linejoin="round" stroke-width="2"/>
          <path id="Path_112245" data-name="Path 112245" d="M128.878,240.619a1.623,1.623,0,0,0-.127-.191c-9.268-14.889,30.618-37.056,36.125-29.1" fill="none" stroke="#053544" stroke-linecap="round" stroke-linejoin="round" stroke-width="2"/>
          <path id="Path_112246" data-name="Path 112246" d="M319.959,285.515c-.013.013-.026.025-.038.025-6.948,6.553-12.658,6.5-15.322,7.062" fill="none" stroke="#053544" stroke-linecap="round" stroke-linejoin="round" stroke-width="2"/>
          <path id="Path_112247" data-name="Path 112247" d="M269.939,248.866c.509-3.671,15.092-5.367,28.54-5.061,11.46.243,22.091,1.925,22.524,5.061a.551.551,0,0,1,.026.2c0,7.075-51.116,7.075-51.116,0a.429.429,0,0,1,.026-.179" fill="none" stroke="#053544" stroke-linecap="round" stroke-linejoin="round" stroke-width="2"/>
          <path id="Path_112248" data-name="Path 112248" d="M316.874,262.162c-11.906,3.149-33.755,2.626-43.608-.191a14.716,14.716,0,0,1-3.4-1.326c-1.173-.663-1.772-1.415-1.631-2.231l1.708-9.522v-.025" fill="none" stroke="#053544" stroke-linecap="round" stroke-linejoin="round" stroke-width="2"/>
          <path id="Path_112249" data-name="Path 112249" d="M273.266,261.932v.038a4.539,4.539,0,0,0,3.81,4.449c7.612,1.262,14.621,2.256,20.536,2.945,7.954.917,14.647-4.385,19.262-7.2a9.5,9.5,0,0,1,3.965-1.669" fill="none" stroke="#053544" stroke-linecap="round" stroke-linejoin="round" stroke-width="2"/>
          <path id="Path_112250" data-name="Path 112250" d="M317.307,275.648c-.013.013-.025.013-.038.025A54.485,54.485,0,0,1,302.954,283" fill="none" stroke="#053544" stroke-linecap="round" stroke-linejoin="round" stroke-width="2"/>
          <path id="Path_112251" data-name="Path 112251" d="M137.444,161.675a535.079,535.079,0,0,0,27.432,49.65.176.176,0,0,0,.038.051c6.68,10.479,13.525,19.822,19.886,26.209,7.432,8.438,33.232,16.52,60,22.55,4.576,1.032,9.178,2,13.716,2.906a13.861,13.861,0,0,0,7.483-.5,16.435,16.435,0,0,0,3.862-1.9.1.1,0,0,0,.051-.026" fill="none" stroke="#053544" stroke-linecap="round" stroke-linejoin="round" stroke-width="2"/>
          <path id="Path_112252" data-name="Path 112252" d="M247.784,236.948a.013.013,0,0,0,.013.013c6.45,9.739,12.607,18.407,18.2,25.583,0,.013,0,.013.013.026" fill="none" stroke="#053544" stroke-linecap="round" stroke-linejoin="round" stroke-width="2"/>
          <path id="Path_112253" data-name="Path 112253" d="M271.3,201.09c0-.013-.013-.013-.013-.025-3.289-5.112-16.533,1.1-25.392,8.056" fill="none" stroke="#053544" stroke-linecap="round" stroke-linejoin="round" stroke-width="2"/>
          <path id="Path_112254" data-name="Path 112254" d="M322.47,256.986a6.929,6.929,0,0,1,5.341-2.435,7.024,7.024,0,0,1,6.96,7.062,16.8,16.8,0,0,1-1.619,5.787A37.478,37.478,0,0,1,326,277.139a5.343,5.343,0,0,1-7.546.128,5.426,5.426,0,0,1-1.186-1.594c-1.925-3.887,3-7.916,3.6-12.951.089-.675.038-1.249-.115-1.211a5.487,5.487,0,0,1,.089-1.02A6.78,6.78,0,0,1,322.47,256.986Z" fill="none" stroke="#053544" stroke-linecap="round" stroke-linejoin="round" stroke-width="2"/>
          <path id="Path_112255" data-name="Path 112255" d="M333.152,267.4c6.386,1.81,8.541,11.422-4.831,21.415a5.17,5.17,0,0,1-2.919,1.046,5.244,5.244,0,0,1-4.475-2.1,5.191,5.191,0,0,1-1.007-2.218c-.522-2.8,1.81-5.175,2.818-6.807" fill="none" stroke="#053544" stroke-linecap="round" stroke-linejoin="round" stroke-width="2"/>
          <path id="Path_112256" data-name="Path 112256" d="M107.526,155.416a7.011,7.011,0,1,1,0,14.022H81.254a7.011,7.011,0,1,1,0-14.022h26.272Z" fill="#fff"/>
          <path id="Path_112257" data-name="Path 112257" d="M104.9,141.394a7.011,7.011,0,0,1,0,14.022H83.357a7.011,7.011,0,0,1,0-14.022Z" fill="#fff"/>
          <path id="Path_112258" data-name="Path 112258" d="M103.753,169.438a7.011,7.011,0,0,1,0,14.022H83.829a7.011,7.011,0,0,1,0-14.022Z" fill="#fff"/>
          <path id="Path_112259" data-name="Path 112259" d="M103.753,169.438a7.011,7.011,0,0,1,0,14.022H83.829a7.011,7.011,0,0,1,0-14.022" fill="none" stroke="#053544" stroke-linecap="round" stroke-linejoin="round" stroke-width="2"/>
          <path id="Path_112260" data-name="Path 112260" d="M104.9,155.416h2.626a7.011,7.011,0,1,1,0,14.022H81.254a7.011,7.011,0,1,1,0-14.022h2.1" fill="none" stroke="#053544" stroke-linecap="round" stroke-linejoin="round" stroke-width="2"/>
          <path id="Path_112261" data-name="Path 112261" d="M104.9,155.416H83.357a7.011,7.011,0,0,1,0-14.022H104.9a7.011,7.011,0,0,1,0,14.022Z" fill="none" stroke="#053544" stroke-linecap="round" stroke-linejoin="round" stroke-width="2"/>
        </g>
      </g>
      <g id="Group_40333" data-name="Group 40333">
        <g id="Group_40332" data-name="Group 40332" clip-path="url(#clip-path-2)">
          <path id="Path_112262" data-name="Path 112262" d="M1441,288.81q-53.31-10.17-106.824-18.819" fill="none" stroke="#053544" stroke-linecap="round" stroke-linejoin="round" stroke-width="2"/>
          <path id="Path_112263" data-name="Path 112263" d="M1224.4,253.868q-27.3-3.607-54.644-6.823" fill="none" stroke="#053544" stroke-linecap="round" stroke-linejoin="round" stroke-width="2"/>
          <path id="Path_112264" data-name="Path 112264" d="M1109.1,240.4a3842.377,3842.377,0,0,0-640.343-11.361" fill="none" stroke="#053544" stroke-linecap="round" stroke-linejoin="round" stroke-width="2"/>
          <path id="Path_112265" data-name="Path 112265" d="M421.339,232.453q-60.606,4.741-121.084,11.4" fill="none" stroke="#053544" stroke-linecap="round" stroke-linejoin="round" stroke-width="2"/>
          <path id="Path_112266" data-name="Path 112266" d="M256,248.99q-18.292,2.23-36.568,4.636" fill="none" stroke="#053544" stroke-linecap="round" stroke-linejoin="round" stroke-width="2"/>
          <path id="Path_112267" data-name="Path 112267" d="M147.387,263.807Q74.019,274.884,1,288.81" fill="none" stroke="#053544" stroke-linecap="round" stroke-linejoin="round" stroke-width="2"/>
        </g>
      </g>
    </g>
  </g>
</svg>
