<svg xmlns="http://www.w3.org/2000/svg" xmlns:xlink="http://www.w3.org/1999/xlink" width="1120" height="494.771" viewBox="0 0 1120 494.771">
  <defs>
    <clipPath id="clip-path">
      <rect id="Rectangle_5682" data-name="Rectangle 5682" width="1120" height="494.771" fill="none"/>
    </clipPath>
  </defs>
  <g id="Group_40802" data-name="Group 40802" transform="translate(-89 -4005)">
    <g id="Group_40344" data-name="Group 40344" transform="translate(89 4005)">
      <g id="Group_40343" data-name="Group 40343" clip-path="url(#clip-path)">
        <path id="Path_112371" data-name="Path 112371" d="M903.76,131.2h101.034c-1.434-10.555-3.948-13.151-9.214-8.383,1.46-6.544-5.646-12.113-9.884-8.384-1.8-5.188-7.526-10.766-9.527-3.729-1.666-19.818-16.64-10.016-21.892,7.655-2.158-3.462-9.147-6.136-11.605,2.75-.1-15.131-14.082-10.405-19.14,3.3-5.867-7.645-19.772,6.792-19.772,6.792" transform="translate(-102.764 -11.342)" fill="#f7f7f7"/>
        <path id="Path_112373" data-name="Path 112373" d="M162.007,118.1H305.043c-6.214-9.491-22.888-34.193-38.293-14.416-.188-10.2-8.216-14.065-13.515-5.405.667-9.739-11.992-17.459-22.751,2.477,9.988-39.389-27.683-30.28-43.716,8.785-3.884-11.262-19.322-3.556-24.761,8.56" transform="translate(-18.421 -8.568)" fill="#f7f7f7"/>
        <rect id="Rectangle_5633" data-name="Rectangle 5633" width="5.876" height="113.534" transform="translate(981.96 277.418)" fill="#fff"/>
        <path id="Path_112374" data-name="Path 112374" d="M1101.945,305.009v7.09H897.3v-7.09Z" transform="translate(-102.029 -34.682)" fill="#fff"/>
        <path id="Path_112375" data-name="Path 112375" d="M1051.1,252.722l34.211,38.731H880.668l-23.6-16.4-25.295-17.575L806.477,239.9l-25.3-17.575L751.03,201.37V185.789h267.049Zm-33.812-8.96V214.523l-26.669-18.364H976.769l-27.236,18.364,14.42,29.239Z" transform="translate(-85.397 -21.125)" fill="#fff"/>
        <path id="Path_112376" data-name="Path 112376" d="M1062.7,313.009V426.543H886.61v-23.9H939.3V330.522H886.61V313.009H1062.7Zm-12.763,17.513H977.818V402.64h72.118Z" transform="translate(-100.813 -35.591)" fill="#f9fafa"/>
        <path id="Path_112377" data-name="Path 112377" d="M1061.638,404.887H989.52V332.769h72.118Zm-4.431-4.431V337.2H1017.74v63.255Zm-45.263,0V337.2H993.951v63.255Z" transform="translate(-112.515 -37.838)" fill="#fff"/>
        <rect id="Rectangle_5634" data-name="Rectangle 5634" width="39.467" height="31.933" transform="translate(905.225 330.684)" fill="#edf0f2"/>
        <rect id="Rectangle_5635" data-name="Rectangle 5635" width="39.467" height="31.322" transform="translate(905.225 299.362)" fill="#edf0f2"/>
        <path id="Path_112378" data-name="Path 112378" d="M1044.607,215.853v29.239H991.27V215.853l26.669-18.364ZM1026.385,235.4V213.832h-17.779V235.4h17.779Z" transform="translate(-112.714 -22.456)" fill="#fff"/>
        <rect id="Rectangle_5636" data-name="Rectangle 5636" width="8.748" height="15.616" transform="translate(904.923 197.323)" fill="#edf0f2"/>
        <path id="Path_112379" data-name="Path 112379" d="M1028.609,215.929v5.947H1010.83v-5.947Z" transform="translate(-114.938 -24.553)" fill="#fff"/>
        <path id="Path_112380" data-name="Path 112380" d="M1016.089,197.489,989.42,215.853H975l27.236-18.364Z" transform="translate(-110.864 -22.456)" fill="#fff"/>
        <rect id="Rectangle_5637" data-name="Rectangle 5637" width="9.031" height="15.616" transform="translate(895.892 197.323)" fill="#edf0f2"/>
        <rect id="Rectangle_5638" data-name="Rectangle 5638" width="17.992" height="31.933" transform="translate(881.437 330.684)" fill="#edf0f2"/>
        <rect id="Rectangle_5639" data-name="Rectangle 5639" width="17.992" height="31.322" transform="translate(881.437 299.362)" fill="#edf0f2"/>
        <path id="Path_112381" data-name="Path 112381" d="M989.42,218.209v29.239L975,218.209Z" transform="translate(-110.864 -24.812)" fill="#e4e9eb"/>
        <path id="Path_112382" data-name="Path 112382" d="M939.3,404.887H886.61V332.769H939.3Zm-4.431-4.431V337.2H895.411v63.255Z" transform="translate(-100.813 -37.838)" fill="#fff"/>
        <rect id="Rectangle_5640" data-name="Rectangle 5640" width="39.458" height="31.933" transform="translate(794.597 330.684)" fill="#edf0f2"/>
        <rect id="Rectangle_5641" data-name="Rectangle 5641" width="39.458" height="31.322" transform="translate(794.597 299.362)" fill="#edf0f2"/>
        <path id="Path_112383" data-name="Path 112383" d="M864.036,305.009v7.09H604.76v-7.09Z" transform="translate(-68.765 -34.682)" fill="#fff"/>
        <path id="Path_112384" data-name="Path 112384" d="M864.036,302.905H604.76l23.6-16.4H840.434Z" transform="translate(-68.765 -32.578)" fill="#e4e9eb"/>
        <path id="Path_112385" data-name="Path 112385" d="M855.778,402.64v23.9H615.46V313.009H855.778V402.64Z" transform="translate(-69.982 -35.591)" fill="#fff"/>
        <path id="Path_112386" data-name="Path 112386" d="M818.167,266.679l25.295,17.575H631.39l25.295-17.575Z" transform="translate(-71.793 -30.323)" fill="#e4e9eb"/>
        <path id="Path_112387" data-name="Path 112387" d="M796.118,246.839l25.295,17.584H659.93l25.3-17.584Z" transform="translate(-75.038 -28.067)" fill="#e4e9eb"/>
        <path id="Path_112388" data-name="Path 112388" d="M799.364,244.584H688.48l25.295-17.575H774.06Z" transform="translate(-78.285 -25.812)" fill="#e4e9eb"/>
        <path id="Path_112389" data-name="Path 112389" d="M747.163,203.369l30.143,20.952H717.02Z" transform="translate(-81.53 -23.124)" fill="#e4e9eb"/>
        <line id="Line_813" data-name="Line 813" x1="259.276" transform="translate(535.995 270.327)" fill="none" stroke="#b4c2c7" stroke-linecap="round" stroke-linejoin="round" stroke-width="2"/>
        <line id="Line_814" data-name="Line 814" x1="212.072" transform="translate(559.597 253.931)" fill="none" stroke="#b4c2c7" stroke-linecap="round" stroke-linejoin="round" stroke-width="2"/>
        <line id="Line_815" data-name="Line 815" x1="161.483" transform="translate(584.892 236.356)" fill="none" stroke="#b4c2c7" stroke-linecap="round" stroke-linejoin="round" stroke-width="2"/>
        <line id="Line_816" data-name="Line 816" x1="110.884" transform="translate(610.195 218.772)" fill="none" stroke="#b4c2c7" stroke-linecap="round" stroke-linejoin="round" stroke-width="2"/>
        <line id="Line_817" data-name="Line 817" x1="60.286" transform="translate(635.49 201.196)" fill="none" stroke="#b4c2c7" stroke-linecap="round" stroke-linejoin="round" stroke-width="2"/>
        <path id="Path_112390" data-name="Path 112390" d="M864.036,300.542v-7.09l-23.6-16.4L815.139,259.48,789.845,241.9l-25.3-17.575L734.4,203.369l-30.143,20.952L678.96,241.9l-25.3,17.584-25.295,17.575-23.6,16.4v7.09H864.036Z" transform="translate(-68.765 -23.124)" fill="none" stroke="#b4c2c7" stroke-linecap="round" stroke-linejoin="round" stroke-width="2"/>
        <path id="Path_112391" data-name="Path 112391" d="M855.778,313.009V426.543H615.46V313.009" transform="translate(-69.982 -35.591)" fill="none" stroke="#b4c2c7" stroke-linecap="round" stroke-linejoin="round" stroke-width="2"/>
        <path id="Path_112392" data-name="Path 112392" d="M1034.711,185.789l33.023,66.933,34.211,38.731v7.09H897.3" transform="translate(-102.029 -21.125)" fill="none" stroke="#b4c2c7" stroke-linecap="round" stroke-linejoin="round" stroke-width="2"/>
        <line id="Line_818" data-name="Line 818" x1="204.645" transform="translate(795.271 270.327)" fill="none" stroke="#b4c2c7" stroke-linecap="round" stroke-linejoin="round" stroke-width="2"/>
        <path id="Path_112393" data-name="Path 112393" d="M1113.816,313.009V426.543h-5.876V313.009" transform="translate(-125.98 -35.591)" fill="none" stroke="#b4c2c7" stroke-linecap="round" stroke-linejoin="round" stroke-width="2"/>
        <path id="Path_112394" data-name="Path 112394" d="M1062.7,313.009V426.543H886.61" transform="translate(-100.813 -35.591)" fill="none" stroke="#b4c2c7" stroke-linecap="round" stroke-linejoin="round" stroke-width="2"/>
        <rect id="Rectangle_5642" data-name="Rectangle 5642" width="72.118" height="72.118" transform="translate(877.005 294.931)" fill="none" stroke="#b4c2c7" stroke-linecap="round" stroke-linejoin="round" stroke-width="2"/>
        <path id="Path_112395" data-name="Path 112395" d="M1012.512,369.09v31.933H994.52V337.769h17.992Z" transform="translate(-113.083 -38.407)" fill="none" stroke="#b4c2c7" stroke-linecap="round" stroke-linejoin="round" stroke-width="2"/>
        <path id="Path_112396" data-name="Path 112396" d="M1060.827,369.09v31.933H1021.36V337.769h39.466Z" transform="translate(-116.135 -38.407)" fill="none" stroke="#b4c2c7" stroke-linecap="round" stroke-linejoin="round" stroke-width="2"/>
        <line id="Line_819" data-name="Line 819" x2="17.992" transform="translate(881.437 330.684)" fill="none" stroke="#b4c2c7" stroke-linecap="round" stroke-linejoin="round" stroke-width="2"/>
        <line id="Line_820" data-name="Line 820" x2="39.467" transform="translate(905.225 330.684)" fill="none" stroke="#b4c2c7" stroke-linecap="round" stroke-linejoin="round" stroke-width="2"/>
        <path id="Path_112397" data-name="Path 112397" d="M886.61,332.769H939.3v72.118H886.61" transform="translate(-100.813 -37.838)" fill="none" stroke="#b4c2c7" stroke-linecap="round" stroke-linejoin="round" stroke-width="2"/>
        <path id="Path_112398" data-name="Path 112398" d="M936,369.09v31.933H896.54V337.769H936Z" transform="translate(-101.942 -38.407)" fill="none" stroke="#b4c2c7" stroke-linecap="round" stroke-linejoin="round" stroke-width="2"/>
        <line id="Line_821" data-name="Line 821" x2="39.458" transform="translate(794.597 330.684)" fill="none" stroke="#b4c2c7" stroke-linecap="round" stroke-linejoin="round" stroke-width="2"/>
        <path id="Path_112399" data-name="Path 112399" d="M1018.079,185.789H751.03V201.37" transform="translate(-85.397 -21.125)" fill="none" stroke="#b4c2c7" stroke-linecap="round" stroke-linejoin="round" stroke-width="2"/>
        <path id="Path_112400" data-name="Path 112400" d="M991.27,245.092V215.853l26.669-18.364,26.669,18.364v29.239Z" transform="translate(-112.714 -22.456)" fill="none" stroke="#b4c2c7" stroke-linecap="round" stroke-linejoin="round" stroke-width="2"/>
        <path id="Path_112401" data-name="Path 112401" d="M989.42,218.209H975l14.42,29.239" transform="translate(-110.864 -24.812)" fill="none" stroke="#b4c2c7" stroke-linecap="round" stroke-linejoin="round" stroke-width="2"/>
        <path id="Path_112402" data-name="Path 112402" d="M1016.089,197.489h-13.853L975,215.853" transform="translate(-110.864 -22.456)" fill="none" stroke="#b4c2c7" stroke-linecap="round" stroke-linejoin="round" stroke-width="2"/>
        <path id="Path_112403" data-name="Path 112403" d="M1028.609,221.876v15.617H1010.83V215.929h17.779Z" transform="translate(-114.938 -24.553)" fill="none" stroke="#b4c2c7" stroke-linecap="round" stroke-linejoin="round" stroke-width="2"/>
        <line id="Line_822" data-name="Line 822" y1="15.616" transform="translate(904.923 197.323)" fill="none" stroke="#b4c2c7" stroke-linecap="round" stroke-linejoin="round" stroke-width="2"/>
        <path id="Path_112404" data-name="Path 112404" d="M1010.83,222.639h17.779" transform="translate(-114.938 -25.316)" fill="none" stroke="#b4c2c7" stroke-linecap="round" stroke-linejoin="round" stroke-width="2"/>
        <line id="Line_823" data-name="Line 823" x1="39.928" transform="translate(925.778 231.596)" fill="none" stroke="#b4c2c7" stroke-linecap="round" stroke-linejoin="round" stroke-width="2"/>
        <line id="Line_824" data-name="Line 824" x1="5.141" transform="translate(913.059 231.596)" fill="none" stroke="#b4c2c7" stroke-linecap="round" stroke-linejoin="round" stroke-width="2"/>
        <path id="Path_112405" data-name="Path 112405" d="M200.626,205.574,193.74,188.7h22.122v10.724l4.121,10.095H233.6V188.7H377.212l40.238,98.68H233.987Z" transform="translate(-22.03 -21.456)" fill="#fff"/>
        <path id="Path_112406" data-name="Path 112406" d="M409.445,425.068H251.02V300.039H409.445Zm-25.72-7.436v-73.97a27.506,27.506,0,0,0-27.511-27.5h-44.82a27.8,27.8,0,0,0-6.754.833,27.518,27.518,0,0,0-20.757,26.669v73.97h99.841Z" transform="translate(-28.543 -34.116)" fill="#fff"/>
        <path id="Path_112407" data-name="Path 112407" d="M391.949,345.731V419.7h-68.6V318.229h41.089a27.506,27.506,0,0,1,27.511,27.5" transform="translate(-36.767 -36.185)" fill="#edf0f2"/>
        <path id="Path_112408" data-name="Path 112408" d="M322,318.229V419.7H311.52V319.062a27.8,27.8,0,0,1,6.754-.833Z" transform="translate(-35.422 -36.185)" fill="#fff"/>
        <path id="Path_112409" data-name="Path 112409" d="M308.857,319.169V419.808H288.1v-73.97a27.518,27.518,0,0,1,20.757-26.669" transform="translate(-32.759 -36.292)" fill="#edf0f2"/>
        <path id="Path_112410" data-name="Path 112410" d="M241.11,289.544V414.573H191.044V314.023H163.87V289.544l33.36-81.8,33.36,81.8Zm-13.649,101.8v-53.16H205.676s-3.811.86-3.811,3.634,3.811,3.634,3.811,3.634v45.892ZM203.168,240.39h-8.136v37.34h8.136Z" transform="translate(-18.633 -23.621)" fill="#fff"/>
        <path id="Path_112411" data-name="Path 112411" d="M236.963,186.408v20.819H223.35V168.549h13.613Z" transform="translate(-25.396 -19.165)" fill="#fff"/>
        <rect id="Rectangle_5643" data-name="Rectangle 5643" width="21.785" height="25.251" transform="translate(187.043 342.472)" fill="#e4e9eb"/>
        <rect id="Rectangle_5644" data-name="Rectangle 5644" width="21.785" height="20.642" transform="translate(187.043 321.83)" fill="#fff"/>
        <path id="Path_112412" data-name="Path 112412" d="M235.13,354.919v7.268s-3.82-.869-3.82-3.634,3.82-3.634,3.82-3.634" transform="translate(-26.301 -40.357)" fill="#fff"/>
        <path id="Path_112413" data-name="Path 112413" d="M210.551,354.919h21.785s-3.82.86-3.82,3.634,3.82,3.634,3.82,3.634H210.551s-3.811-.869-3.811-3.634,3.811-3.634,3.811-3.634" transform="translate(-23.508 -40.357)" fill="#fff"/>
        <path id="Path_112414" data-name="Path 112414" d="M222.821,168.549v38.678L218.7,197.132V168.549Z" transform="translate(-24.868 -19.165)" fill="#e4e9eb"/>
        <rect id="Rectangle_5645" data-name="Rectangle 5645" width="8.136" height="37.34" transform="translate(176.399 216.769)" fill="#e4e9eb"/>
        <path id="Path_112415" data-name="Path 112415" d="M195.464,205.574l-33.36,81.8H148.34l40.238-98.68Z" transform="translate(-16.867 -21.456)" fill="#edf0f2"/>
        <path id="Path_112416" data-name="Path 112416" d="M189.278,327.659v100.55H148.34V353.574l4.751-3.013,12.062-7.631,12.062-7.64Zm-12.452,77.32V359.087H161.714v45.892Z" transform="translate(-16.867 -37.257)" fill="#f9fafa"/>
        <path id="Path_112417" data-name="Path 112417" d="M189.5,327.659l-12.062,7.631H150.27l12.054-7.631Z" transform="translate(-17.087 -37.257)" fill="#fff"/>
        <path id="Path_112418" data-name="Path 112418" d="M175.886,336.269l-12.062,7.64H136.65l12.062-7.64h27.174Z" transform="translate(-15.538 -38.236)" fill="#fff"/>
        <rect id="Rectangle_5646" data-name="Rectangle 5646" width="15.111" height="25.251" transform="translate(144.847 342.472)" fill="#e4e9eb"/>
        <rect id="Rectangle_5647" data-name="Rectangle 5647" width="15.111" height="20.642" transform="translate(144.847 321.83)" fill="#e4e9eb"/>
        <path id="Path_112419" data-name="Path 112419" d="M162.277,344.889l-12.062,7.631H123.05l12.054-7.631Z" transform="translate(-13.992 -39.216)" fill="#fff"/>
        <path id="Path_112420" data-name="Path 112420" d="M148.666,353.5l-4.751,3.013-7.312,4.626H109.43l12.062-7.64h27.174Z" transform="translate(-12.443 -40.195)" fill="#fff"/>
        <path id="Path_112421" data-name="Path 112421" d="M144.853,356.9v74.635H117.67V361.525h19.871Z" transform="translate(-13.38 -40.582)" fill="#fff"/>
        <path id="Path_112422" data-name="Path 112422" d="M163.87,425.068H399.535V300.039" transform="translate(-18.633 -34.116)" fill="none" stroke="#b4c2c7" stroke-linecap="round" stroke-linejoin="round" stroke-width="2"/>
        <line id="Line_825" data-name="Line 825" y2="74.635" transform="translate(131.473 316.317)" fill="none" stroke="#b4c2c7" stroke-linecap="round" stroke-linejoin="round" stroke-width="2"/>
        <path id="Path_112423" data-name="Path 112423" d="M158.617,432.127H117.67V362.119" transform="translate(-13.38 -41.175)" fill="none" stroke="#b4c2c7" stroke-linecap="round" stroke-linejoin="round" stroke-width="2"/>
        <line id="Line_826" data-name="Line 826" y1="125.029" transform="translate(222.477 265.922)" fill="none" stroke="#b4c2c7" stroke-linecap="round" stroke-linejoin="round" stroke-width="2"/>
        <path id="Path_112424" data-name="Path 112424" d="M150.27,321.653l12.054-7.631V289.543l33.36-81.8v-.009" transform="translate(-17.087 -23.62)" fill="none" stroke="#b4c2c7" stroke-linecap="round" stroke-linejoin="round" stroke-width="2"/>
        <path id="Path_112425" data-name="Path 112425" d="M123.05,351.54l12.054-7.631,12.062-7.64" transform="translate(-13.992 -38.236)" fill="none" stroke="#b4c2c7" stroke-linecap="round" stroke-linejoin="round" stroke-width="2"/>
        <path id="Path_112426" data-name="Path 112426" d="M184.854,428.209V327.659l-12.062,7.631-12.062,7.64-12.062,7.631-4.751,3.013L136.6,358.2H109.43l12.062-7.64" transform="translate(-12.443 -37.257)" fill="none" stroke="#b4c2c7" stroke-linecap="round" stroke-linejoin="round" stroke-width="2"/>
        <path id="Path_112427" data-name="Path 112427" d="M162.1,287.379H148.34l40.238-98.68,6.887,16.875,33.36,81.8H412.287L372.049,188.7H228.434" transform="translate(-16.867 -21.456)" fill="none" stroke="#b4c2c7" stroke-linecap="round" stroke-linejoin="round" stroke-width="2"/>
        <line id="Line_827" data-name="Line 827" x1="22.122" transform="translate(171.71 167.243)" fill="none" stroke="#b4c2c7" stroke-linecap="round" stroke-linejoin="round" stroke-width="2"/>
        <rect id="Rectangle_5648" data-name="Rectangle 5648" width="8.136" height="37.34" transform="translate(176.399 216.769)" fill="none" stroke="#b4c2c7" stroke-linecap="round" stroke-linejoin="round" stroke-width="2"/>
        <line id="Line_828" data-name="Line 828" x1="27.174" transform="translate(145.237 290.402)" fill="none" stroke="#b4c2c7" stroke-linecap="round" stroke-linejoin="round" stroke-width="2"/>
        <path id="Path_112428" data-name="Path 112428" d="M178.541,383.761v25.25H163.43V363.119h15.111Z" transform="translate(-18.583 -41.289)" fill="none" stroke="#b4c2c7" stroke-linecap="round" stroke-linejoin="round" stroke-width="2"/>
        <line id="Line_829" data-name="Line 829" x2="15.111" transform="translate(144.847 342.472)" fill="none" stroke="#b4c2c7" stroke-linecap="round" stroke-linejoin="round" stroke-width="2"/>
        <path id="Path_112429" data-name="Path 112429" d="M232.825,383.761v25.25H211.04V363.119h21.785Z" transform="translate(-23.997 -41.289)" fill="none" stroke="#b4c2c7" stroke-linecap="round" stroke-linejoin="round" stroke-width="2"/>
        <line id="Line_830" data-name="Line 830" x2="21.785" transform="translate(187.043 342.472)" fill="none" stroke="#b4c2c7" stroke-linecap="round" stroke-linejoin="round" stroke-width="2"/>
        <path id="Path_112430" data-name="Path 112430" d="M235.13,362.187v-7.268s-3.82.86-3.82,3.634S235.13,362.187,235.13,362.187Z" transform="translate(-26.301 -40.357)" fill="none" stroke="#b4c2c7" stroke-linecap="round" stroke-linejoin="round" stroke-width="2"/>
        <path id="Path_112431" data-name="Path 112431" d="M210.551,362.187s-3.811-.869-3.811-3.634,3.811-3.634,3.811-3.634h21.785" transform="translate(-23.508 -40.357)" fill="none" stroke="#b4c2c7" stroke-linecap="round" stroke-linejoin="round" stroke-width="2"/>
        <path id="Path_112432" data-name="Path 112432" d="M319.342,419.7h68.6v-73.97a27.506,27.506,0,0,0-27.51-27.5h-44.82a27.8,27.8,0,0,0-6.754.833A27.518,27.518,0,0,0,288.1,345.731V419.7h31.242Z" transform="translate(-32.759 -36.185)" fill="none" stroke="#b4c2c7" stroke-linecap="round" stroke-linejoin="round" stroke-width="2"/>
        <line id="Line_831" data-name="Line 831" y2="101.472" transform="translate(286.583 282.044)" fill="none" stroke="#b4c2c7" stroke-linecap="round" stroke-linejoin="round" stroke-width="2"/>
        <line id="Line_832" data-name="Line 832" y1="100.639" transform="translate(276.098 282.877)" fill="none" stroke="#b4c2c7" stroke-linecap="round" stroke-linejoin="round" stroke-width="2"/>
        <path id="Path_112433" data-name="Path 112433" d="M222.821,168.549v38.678h13.613V168.549H218.7v28.583l4.121,10.095" transform="translate(-24.868 -19.165)" fill="none" stroke="#b4c2c7" stroke-linecap="round" stroke-linejoin="round" stroke-width="2"/>
        <path id="Path_112434" data-name="Path 112434" d="M150.214,353.5H123.04" transform="translate(-13.99 -40.195)" fill="none" stroke="#b4c2c7" stroke-linecap="round" stroke-linejoin="round" stroke-width="2"/>
        <line id="Line_833" data-name="Line 833" x1="27.174" transform="translate(121.112 305.673)" fill="none" stroke="#b4c2c7" stroke-linecap="round" stroke-linejoin="round" stroke-width="2"/>
        <path id="Path_112435" data-name="Path 112435" d="M177.434,336.269H150.26" transform="translate(-17.086 -38.236)" fill="none" stroke="#b4c2c7" stroke-linecap="round" stroke-linejoin="round" stroke-width="2"/>
        <path id="Path_112436" data-name="Path 112436" d="M126.764,425.683v1.064a5.708,5.708,0,0,1-5.7,5.708,3.014,3.014,0,0,1-.931,3.6H56.72c.2-4.006,2.473-7.365,7.649-6.2v-6.886a4.573,4.573,0,0,1,4.573-4.573,5.127,5.127,0,0,1,5.132,5.123v4.733c.833-3.031,3.6-3.27,4.228-.151.9-4.325,4.688-3.882,5.655-1.046.718-2.3,3.66-2.836,4.813-.08v-9.829a5.08,5.08,0,0,1,7.817-4.29,4.87,4.87,0,0,1,2.233,3.324V402.506a5.874,5.874,0,0,1,5.867-5.867,10.343,10.343,0,0,1,10.343,10.343V419.9h5.956a5.787,5.787,0,0,1,5.779,5.787" transform="translate(-6.449 -45.1)" fill="#fff"/>
        <path id="Path_112437" data-name="Path 112437" d="M120.134,436.052a3.014,3.014,0,0,0,.931-3.6,5.708,5.708,0,0,0,5.7-5.708v-1.064a5.787,5.787,0,0,0-5.779-5.787h-5.956V406.982a10.343,10.343,0,0,0-10.343-10.343,5.874,5.874,0,0,0-5.867,5.867v13.676a4.87,4.87,0,0,0-2.233-3.324,5.08,5.08,0,0,0-7.817,4.29v9.829c-1.152-2.756-4.095-2.225-4.813.08-.966-2.836-4.759-3.279-5.655,1.046-.629-3.12-3.395-2.88-4.228.151V423.52a5.127,5.127,0,0,0-5.132-5.123,4.573,4.573,0,0,0-4.573,4.573v6.886c-5.176-1.17-7.445,2.189-7.649,6.2Z" transform="translate(-6.449 -45.1)" fill="none" stroke="#829aa2" stroke-linecap="round" stroke-linejoin="round" stroke-width="2"/>
        <path id="Path_112438" data-name="Path 112438" d="M976.055,363.079a5.98,5.98,0,0,1,5.982,5.982,5.991,5.991,0,0,1-5.982,5.982h-130.3a5.98,5.98,0,0,1-5.982-5.982,5.991,5.991,0,0,1,5.982-5.982h130.3Zm-9.138,5.982a.567.567,0,1,0-.567.567.571.571,0,0,0,.567-.567m-27.723,0a.567.567,0,0,0-1.135,0,.567.567,0,0,0,1.135,0m-27.723,0a.567.567,0,1,0-1.134,0,.571.571,0,0,0,.567.567.565.565,0,0,0,.567-.567m-27.714,0a.572.572,0,0,0-1.143,0,.572.572,0,0,0,1.143,0m-27.723,0a.567.567,0,1,0-.567.567.571.571,0,0,0,.567-.567" transform="translate(-95.487 -41.284)" fill="#fff"/>
        <rect id="Rectangle_5649" data-name="Rectangle 5649" width="16.742" height="57.193" transform="translate(862.488 333.759)" fill="#fff"/>
        <path id="Path_112439" data-name="Path 112439" d="M989.882,341.822v17.832H973.14V341.822l8.411-8.863Z" transform="translate(-110.653 -37.86)" fill="#fff"/>
        <path id="Path_112440" data-name="Path 112440" d="M982.517,369.189a.565.565,0,0,1,.567.567.571.571,0,0,1-.567.567.567.567,0,0,1,0-1.134" transform="translate(-111.654 -41.979)" fill="#fff"/>
        <rect id="Rectangle_5650" data-name="Rectangle 5650" width="16.751" height="57.193" transform="translate(834.764 333.759)" fill="#fff"/>
        <path id="Path_112441" data-name="Path 112441" d="M958.611,341.822v17.832H941.86V341.822l8.42-8.863Z" transform="translate(-107.096 -37.86)" fill="#fff"/>
        <path id="Path_112442" data-name="Path 112442" d="M951.237,369.189a.566.566,0,0,1,.567.567.567.567,0,0,1-1.135,0,.566.566,0,0,1,.567-.567" transform="translate(-108.097 -41.979)" fill="#fff"/>
        <rect id="Rectangle_5651" data-name="Rectangle 5651" width="16.751" height="57.193" transform="translate(807.041 333.759)" fill="#fff"/>
        <path id="Path_112443" data-name="Path 112443" d="M927.331,341.822v17.832H910.58V341.822l8.42-8.863Z" transform="translate(-103.539 -37.86)" fill="#fff"/>
        <path id="Path_112444" data-name="Path 112444" d="M919.957,369.189a.567.567,0,0,1,0,1.134.571.571,0,0,1-.567-.567.565.565,0,0,1,.567-.567" transform="translate(-104.541 -41.979)" fill="#fff"/>
        <rect id="Rectangle_5652" data-name="Rectangle 5652" width="16.742" height="57.193" transform="translate(779.327 333.759)" fill="#fff"/>
        <path id="Path_112445" data-name="Path 112445" d="M896.052,341.822v17.832H879.31V341.822l8.411-8.863Z" transform="translate(-99.983 -37.86)" fill="#fff"/>
        <path id="Path_112446" data-name="Path 112446" d="M888.686,369.189a.565.565,0,0,1,.567.567.572.572,0,1,1-.567-.567" transform="translate(-100.984 -41.979)" fill="#fff"/>
        <rect id="Rectangle_5653" data-name="Rectangle 5653" width="16.751" height="57.193" transform="translate(751.603 333.759)" fill="#fff"/>
        <path id="Path_112447" data-name="Path 112447" d="M864.781,341.822v17.832H848.03V341.822l8.42-8.863Z" transform="translate(-96.427 -37.86)" fill="#fff"/>
        <path id="Path_112448" data-name="Path 112448" d="M857.407,369.189a.565.565,0,0,1,.567.567.571.571,0,0,1-.567.567.567.567,0,0,1,0-1.134" transform="translate(-97.428 -41.979)" fill="#fff"/>
        <path id="Path_112449" data-name="Path 112449" d="M848.03,376.579v57.193h16.751V376.579" transform="translate(-96.427 -42.82)" fill="none" stroke="#829aa2" stroke-linecap="round" stroke-linejoin="round" stroke-width="2"/>
        <path id="Path_112450" data-name="Path 112450" d="M864.781,359.654V341.822l-8.331-8.863-8.42,8.863v17.832" transform="translate(-96.427 -37.86)" fill="none" stroke="#829aa2" stroke-linecap="round" stroke-linejoin="round" stroke-width="2"/>
        <path id="Path_112451" data-name="Path 112451" d="M879.31,376.579v57.193h16.742V376.579" transform="translate(-99.983 -42.82)" fill="none" stroke="#829aa2" stroke-linecap="round" stroke-linejoin="round" stroke-width="2"/>
        <path id="Path_112452" data-name="Path 112452" d="M896.052,359.654V341.822l-8.331-8.863-8.411,8.863v17.832" transform="translate(-99.983 -37.86)" fill="none" stroke="#829aa2" stroke-linecap="round" stroke-linejoin="round" stroke-width="2"/>
        <path id="Path_112453" data-name="Path 112453" d="M910.58,376.579v57.193h16.751V376.579" transform="translate(-103.539 -42.82)" fill="none" stroke="#829aa2" stroke-linecap="round" stroke-linejoin="round" stroke-width="2"/>
        <path id="Path_112454" data-name="Path 112454" d="M927.331,359.654V341.822L919,332.959l-8.42,8.863v17.832" transform="translate(-103.539 -37.86)" fill="none" stroke="#829aa2" stroke-linecap="round" stroke-linejoin="round" stroke-width="2"/>
        <path id="Path_112455" data-name="Path 112455" d="M941.86,376.579v57.193h16.751V376.579" transform="translate(-107.096 -42.82)" fill="none" stroke="#829aa2" stroke-linecap="round" stroke-linejoin="round" stroke-width="2"/>
        <path id="Path_112456" data-name="Path 112456" d="M958.611,359.654V341.822l-8.331-8.863-8.42,8.863v17.832" transform="translate(-107.096 -37.86)" fill="none" stroke="#829aa2" stroke-linecap="round" stroke-linejoin="round" stroke-width="2"/>
        <path id="Path_112457" data-name="Path 112457" d="M989.882,359.654V341.822l-8.331-8.863-8.411,8.863v17.832" transform="translate(-110.653 -37.86)" fill="none" stroke="#829aa2" stroke-linecap="round" stroke-linejoin="round" stroke-width="2"/>
        <path id="Path_112458" data-name="Path 112458" d="M973.14,376.579v57.193h16.742V376.579" transform="translate(-110.653 -42.82)" fill="none" stroke="#829aa2" stroke-linecap="round" stroke-linejoin="round" stroke-width="2"/>
        <path id="Path_112459" data-name="Path 112459" d="M974.717,363.079h1.338a5.98,5.98,0,0,1,5.982,5.982,5.991,5.991,0,0,1-5.982,5.982h-130.3a5.98,5.98,0,0,1-5.982-5.982,5.991,5.991,0,0,1,5.982-5.982H974.717Z" transform="translate(-95.487 -41.284)" fill="none" stroke="#829aa2" stroke-linecap="round" stroke-linejoin="round" stroke-width="2"/>
        <path id="Path_112460" data-name="Path 112460" d="M983.084,369.756a.567.567,0,1,0-.567.567A.571.571,0,0,0,983.084,369.756Z" transform="translate(-111.654 -41.979)" fill="none" stroke="#829aa2" stroke-linecap="round" stroke-linejoin="round" stroke-width="2"/>
        <path id="Path_112461" data-name="Path 112461" d="M951.8,369.756a.567.567,0,0,0-1.135,0,.567.567,0,0,0,1.135,0Z" transform="translate(-108.097 -41.979)" fill="none" stroke="#829aa2" stroke-linecap="round" stroke-linejoin="round" stroke-width="2"/>
        <path id="Path_112462" data-name="Path 112462" d="M920.524,369.756a.567.567,0,1,0-1.134,0,.571.571,0,0,0,.567.567A.565.565,0,0,0,920.524,369.756Z" transform="translate(-104.541 -41.979)" fill="none" stroke="#829aa2" stroke-linecap="round" stroke-linejoin="round" stroke-width="2"/>
        <path id="Path_112463" data-name="Path 112463" d="M889.253,369.756a.572.572,0,0,0-1.143,0,.572.572,0,0,0,1.143,0Z" transform="translate(-100.984 -41.979)" fill="none" stroke="#829aa2" stroke-linecap="round" stroke-linejoin="round" stroke-width="2"/>
        <path id="Path_112464" data-name="Path 112464" d="M857.974,369.756a.567.567,0,1,0-.567.567A.571.571,0,0,0,857.974,369.756Z" transform="translate(-97.428 -41.979)" fill="none" stroke="#829aa2" stroke-linecap="round" stroke-linejoin="round" stroke-width="2"/>
        <path id="Path_112465" data-name="Path 112465" d="M580.235,419.563H342.38V251.619H463.545V395.8H580.235ZM438.667,283.605H367.232v84.969h71.435Z" transform="translate(-38.931 -28.611)" fill="#fff"/>
        <path id="Path_112466" data-name="Path 112466" d="M899.823,438.06H610.75V414.3H899.823Z" transform="translate(-69.446 -47.109)" fill="#fff"/>
        <path id="Path_112467" data-name="Path 112467" d="M943.742,232.749H905.055v-10.68L763.16,97.9l12.506-12.231Z" transform="translate(-86.776 -9.741)" fill="#b7c5c9"/>
        <path id="Path_112468" data-name="Path 112468" d="M921.527,250.249V394.431H908.02V239.569h13.507Z" transform="translate(-103.248 -27.241)" fill="#fff"/>
        <path id="Path_112469" data-name="Path 112469" d="M888.77,223.639H619.94L746.875,99.469ZM758.406,141.426H722.342V206.2h36.063Z" transform="translate(-70.491 -11.31)" fill="#fff"/>
        <rect id="Rectangle_5654" data-name="Rectangle 5654" width="45.662" height="10.68" transform="translate(759.11 212.328)" fill="#b7c5c9"/>
        <path id="Path_112470" data-name="Path 112470" d="M827.337,250.249V394.431H697.53V270.953H638.264V394.431H600.02V367.2h13.055V282.235H600.02V250.249h6.736l10.919-10.68H827.337Zm-21.954,31.986H720.414V367.2h84.969ZM712.012,303.7V297.9a3.541,3.541,0,0,0-7.081,0V303.7a3.541,3.541,0,0,0,7.081,0m-82.806,0V297.9a3.541,3.541,0,0,0-7.081,0V303.7a3.541,3.541,0,0,0,7.081,0" transform="translate(-68.226 -27.241)" fill="#eef1f2"/>
        <path id="Path_112471" data-name="Path 112471" d="M820.829,372.678H735.86V287.709h84.969Zm-6.2-6.2V293.913h-32.4v72.561Zm-40.158,0V293.913h-32.4v72.561Z" transform="translate(-83.672 -32.714)" fill="#fff"/>
        <rect id="Rectangle_5655" data-name="Rectangle 5655" width="32.403" height="36.631" transform="translate(698.55 297.129)" fill="#b7c5c9"/>
        <rect id="Rectangle_5656" data-name="Rectangle 5656" width="32.403" height="35.93" transform="translate(698.55 261.199)" fill="#cfd8db"/>
        <rect id="Rectangle_5657" data-name="Rectangle 5657" width="32.403" height="36.631" transform="translate(658.392 297.129)" fill="#b7c5c9"/>
        <rect id="Rectangle_5658" data-name="Rectangle 5658" width="32.403" height="35.93" transform="translate(658.392 261.199)" fill="#b7c5c9"/>
        <path id="Path_112472" data-name="Path 112472" d="M724.653,85.669,712.148,97.9,585.213,222.069l-10.919,10.68H314.53L464.881,85.669Z" transform="translate(-35.764 -9.741)" fill="#eef1f2"/>
        <path id="Path_112473" data-name="Path 112473" d="M771.543,211.579H735.48v-64.77h36.063Zm-5.318-5.318V152.127H740.8v54.135Z" transform="translate(-83.629 -16.693)" fill="#fff"/>
        <path id="Path_112474" data-name="Path 112474" d="M766.908,178.689v31.2H741.48v-31.2h25.428Z" transform="translate(-84.311 -20.318)" fill="#b7c5c9"/>
        <rect id="Rectangle_5659" data-name="Rectangle 5659" width="12.771" height="22.937" transform="translate(669.825 135.434)" fill="#9fb1b7"/>
        <rect id="Rectangle_5660" data-name="Rectangle 5660" width="12.656" height="22.937" transform="translate(657.169 135.434)" fill="#b7c5c9"/>
        <path id="Path_112475" data-name="Path 112475" d="M725.471,304.925v5.805a3.541,3.541,0,0,1-7.081,0v-5.805a3.541,3.541,0,0,1,7.081,0" transform="translate(-81.686 -34.27)" fill="#fff"/>
        <path id="Path_112476" data-name="Path 112476" d="M702.436,398.457H643.17V274.979h59.266Zm-5.318-25.649V280.3H648.488v92.511h48.631Z" transform="translate(-73.133 -31.267)" fill="#fff"/>
        <rect id="Rectangle_5661" data-name="Rectangle 5661" width="24.373" height="23.132" transform="translate(599.613 318.409)" fill="#b7c5c9"/>
        <rect id="Rectangle_5662" data-name="Rectangle 5662" width="24.373" height="23.123" transform="translate(599.613 295.285)" fill="#b7c5c9"/>
        <rect id="Rectangle_5663" data-name="Rectangle 5663" width="24.373" height="23.132" transform="translate(599.613 272.153)" fill="#cfd8db"/>
        <rect id="Rectangle_5664" data-name="Rectangle 5664" width="24.373" height="23.123" transform="translate(599.613 249.03)" fill="#b7c5c9"/>
        <rect id="Rectangle_5665" data-name="Rectangle 5665" width="24.258" height="23.132" transform="translate(575.355 318.409)" fill="#cfd8db"/>
        <rect id="Rectangle_5666" data-name="Rectangle 5666" width="24.258" height="23.123" transform="translate(575.355 295.285)" fill="#b7c5c9"/>
        <rect id="Rectangle_5667" data-name="Rectangle 5667" width="24.258" height="23.132" transform="translate(575.355 272.153)" fill="#b7c5c9"/>
        <rect id="Rectangle_5668" data-name="Rectangle 5668" width="24.258" height="23.123" transform="translate(575.355 249.03)" fill="#b7c5c9"/>
        <path id="Path_112477" data-name="Path 112477" d="M632.041,304.925v5.805a3.541,3.541,0,0,1-7.081,0v-5.805a3.541,3.541,0,0,1,7.081,0" transform="translate(-71.062 -34.27)" fill="#fff"/>
        <path id="Path_112478" data-name="Path 112478" d="M613.075,287.709v84.969H600.02v-6.2h6.851V293.913H600.02v-6.2Z" transform="translate(-68.226 -32.714)" fill="#fff"/>
        <rect id="Rectangle_5669" data-name="Rectangle 5669" width="6.851" height="36.631" transform="translate(531.794 297.129)" fill="#b7c5c9"/>
        <rect id="Rectangle_5670" data-name="Rectangle 5670" width="6.851" height="35.93" transform="translate(531.794 261.199)" fill="#b7c5c9"/>
        <path id="Path_112479" data-name="Path 112479" d="M598.287,368.574V395.8H584.78V251.619h13.507V368.574Z" transform="translate(-66.493 -28.611)" fill="#fff"/>
        <path id="Path_112480" data-name="Path 112480" d="M572.762,368.574V395.8H479.09V251.619h93.672v31.986H511.7v84.969Z" transform="translate(-54.476 -28.611)" fill="#eef1f2"/>
        <path id="Path_112481" data-name="Path 112481" d="M576.946,366.474v6.2H515.88V287.709h61.066v6.2H564.9v72.561Zm-19.8,0V293.913H522.084v72.561Z" transform="translate(-58.659 -32.714)" fill="#fff"/>
        <rect id="Rectangle_5671" data-name="Rectangle 5671" width="12.045" height="36.631" transform="translate(506.242 297.129)" fill="#b7c5c9"/>
        <rect id="Rectangle_5672" data-name="Rectangle 5672" width="12.045" height="35.93" transform="translate(506.242 261.199)" fill="#b7c5c9"/>
        <rect id="Rectangle_5673" data-name="Rectangle 5673" width="35.062" height="36.631" transform="translate(463.425 297.129)" fill="#b7c5c9"/>
        <rect id="Rectangle_5674" data-name="Rectangle 5674" width="35.062" height="35.93" transform="translate(463.425 261.199)" fill="#b7c5c9"/>
        <path id="Path_112482" data-name="Path 112482" d="M441.855,372.678H370.42V287.709h71.435Zm-5.211-6.2V293.913H409.4v72.561Zm-33.768,0V293.913H375.631v72.561Z" transform="translate(-42.119 -32.714)" fill="#fff"/>
        <rect id="Rectangle_5675" data-name="Rectangle 5675" width="27.245" height="36.631" transform="translate(367.28 297.129)" fill="#9fb1b7"/>
        <rect id="Rectangle_5676" data-name="Rectangle 5676" width="27.245" height="35.93" transform="translate(367.28 261.199)" fill="#cfd8db"/>
        <rect id="Rectangle_5677" data-name="Rectangle 5677" width="27.245" height="36.631" transform="translate(333.512 297.129)" fill="#b7c5c9"/>
        <rect id="Rectangle_5678" data-name="Rectangle 5678" width="27.245" height="35.93" transform="translate(333.512 261.199)" fill="#9fb1b7"/>
        <path id="Path_112483" data-name="Path 112483" d="M1,441.109H1103.017" transform="translate(-0.114 -50.157)" fill="none" stroke="#375d69" stroke-linecap="round" stroke-linejoin="round" stroke-width="2"/>
        <line id="Line_834" data-name="Line 834" x2="9.04" transform="translate(1110.074 390.952)" fill="none" stroke="#375d69" stroke-linecap="round" stroke-linejoin="round" stroke-width="2"/>
        <path id="Path_112484" data-name="Path 112484" d="M884.853,419.563V395.8H479.09V251.619" transform="translate(-54.476 -28.611)" fill="none" stroke="#375d69" stroke-linecap="round" stroke-linejoin="round" stroke-width="2"/>
        <line id="Line_835" data-name="Line 835" y2="167.944" transform="translate(303.449 223.008)" fill="none" stroke="#375d69" stroke-linecap="round" stroke-linejoin="round" stroke-width="2"/>
        <path id="Path_112485" data-name="Path 112485" d="M314.53,251.619H574.294" transform="translate(-35.764 -28.611)" fill="none" stroke="#375d69" stroke-linecap="round" stroke-linejoin="round" stroke-width="2"/>
        <path id="Path_112486" data-name="Path 112486" d="M607.62,232.749l10.919-10.68L745.474,97.9,757.98,85.669l168.077,147.08H887.37" transform="translate(-69.09 -9.741)" fill="none" stroke="#375d69" stroke-linecap="round" stroke-linejoin="round" stroke-width="2"/>
        <line id="Line_836" data-name="Line 836" x2="45.662" transform="translate(759.11 223.008)" fill="none" stroke="#375d69" stroke-linecap="round" stroke-linejoin="round" stroke-width="2"/>
        <line id="Line_837" data-name="Line 837" x1="141.896" y1="124.17" transform="translate(676.384 88.159)" fill="none" stroke="#375d69" stroke-linecap="round" stroke-linejoin="round" stroke-width="2"/>
        <path id="Path_112487" data-name="Path 112487" d="M619.94,239.569H875.263" transform="translate(-70.491 -27.241)" fill="none" stroke="#375d69" stroke-linecap="round" stroke-linejoin="round" stroke-width="2"/>
        <path id="Path_112488" data-name="Path 112488" d="M724.653,85.669H464.881L314.53,232.749" transform="translate(-35.764 -9.741)" fill="none" stroke="#375d69" stroke-linecap="round" stroke-linejoin="round" stroke-width="2"/>
        <path id="Path_112489" data-name="Path 112489" d="M600.02,251.619V395.8" transform="translate(-68.226 -28.611)" fill="none" stroke="#375d69" stroke-linecap="round" stroke-linejoin="round" stroke-width="2"/>
        <path id="Path_112490" data-name="Path 112490" d="M584.78,395.8V251.619" transform="translate(-66.493 -28.611)" fill="none" stroke="#375d69" stroke-linecap="round" stroke-linejoin="round" stroke-width="2"/>
        <path id="Path_112491" data-name="Path 112491" d="M908.02,394.431V239.569h13.507V394.431" transform="translate(-103.248 -27.241)" fill="none" stroke="#375d69" stroke-linecap="round" stroke-linejoin="round" stroke-width="2"/>
        <line id="Line_838" data-name="Line 838" y2="23.762" transform="translate(541.304 367.19)" fill="none" stroke="#375d69" stroke-linecap="round" stroke-linejoin="round" stroke-width="2"/>
        <path id="Path_112492" data-name="Path 112492" d="M856.5,394.431V239.569" transform="translate(-97.39 -27.241)" fill="none" stroke="#375d69" stroke-linecap="round" stroke-linejoin="round" stroke-width="2"/>
        <rect id="Rectangle_5679" data-name="Rectangle 5679" width="36.063" height="64.77" transform="translate(651.851 130.116)" fill="none" stroke="#375d69" stroke-linecap="round" stroke-linejoin="round" stroke-width="2"/>
        <path id="Path_112493" data-name="Path 112493" d="M766.908,175.746v31.2H741.48V152.809h25.428Z" transform="translate(-84.311 -17.375)" fill="none" stroke="#375d69" stroke-linecap="round" stroke-linejoin="round" stroke-width="2"/>
        <path id="Path_112494" data-name="Path 112494" d="M741.48,178.689h25.428" transform="translate(-84.311 -20.318)" fill="none" stroke="#375d69" stroke-linecap="round" stroke-linejoin="round" stroke-width="2"/>
        <line id="Line_839" data-name="Line 839" y1="22.937" transform="translate(669.825 135.433)" fill="none" stroke="#375d69" stroke-linecap="round" stroke-linejoin="round" stroke-width="2"/>
        <rect id="Rectangle_5680" data-name="Rectangle 5680" width="84.969" height="84.969" transform="translate(652.188 254.995)" fill="none" stroke="#375d69" stroke-linecap="round" stroke-linejoin="round" stroke-width="2"/>
        <path id="Path_112495" data-name="Path 112495" d="M742.86,330.639v36.63h32.4V294.709h-32.4Z" transform="translate(-84.468 -33.51)" fill="none" stroke="#375d69" stroke-linecap="round" stroke-linejoin="round" stroke-width="2"/>
        <path id="Path_112496" data-name="Path 112496" d="M788.17,330.639v36.63h32.4V294.709h-32.4Z" transform="translate(-89.62 -33.51)" fill="none" stroke="#375d69" stroke-linecap="round" stroke-linejoin="round" stroke-width="2"/>
        <line id="Line_840" data-name="Line 840" x2="32.403" transform="translate(658.392 297.129)" fill="none" stroke="#375d69" stroke-linecap="round" stroke-linejoin="round" stroke-width="2"/>
        <line id="Line_841" data-name="Line 841" x2="32.403" transform="translate(698.55 297.129)" fill="none" stroke="#375d69" stroke-linecap="round" stroke-linejoin="round" stroke-width="2"/>
        <rect id="Rectangle_5681" data-name="Rectangle 5681" width="71.435" height="84.969" transform="translate(328.301 254.995)" fill="none" stroke="#375d69" stroke-linecap="round" stroke-linejoin="round" stroke-width="2"/>
        <path id="Path_112497" data-name="Path 112497" d="M376.3,330.639v36.63h27.245V294.709H376.3Z" transform="translate(-42.788 -33.51)" fill="none" stroke="#375d69" stroke-linecap="round" stroke-linejoin="round" stroke-width="2"/>
        <path id="Path_112498" data-name="Path 112498" d="M414.4,330.639v36.63h27.245V294.709H414.4Z" transform="translate(-47.12 -33.51)" fill="none" stroke="#375d69" stroke-linecap="round" stroke-linejoin="round" stroke-width="2"/>
        <line id="Line_842" data-name="Line 842" x2="27.245" transform="translate(333.512 297.129)" fill="none" stroke="#375d69" stroke-linecap="round" stroke-linejoin="round" stroke-width="2"/>
        <line id="Line_843" data-name="Line 843" x2="27.245" transform="translate(367.28 297.129)" fill="none" stroke="#375d69" stroke-linecap="round" stroke-linejoin="round" stroke-width="2"/>
        <path id="Path_112499" data-name="Path 112499" d="M600.02,287.709h13.055v84.969H600.02" transform="translate(-68.226 -32.714)" fill="none" stroke="#375d69" stroke-linecap="round" stroke-linejoin="round" stroke-width="2"/>
        <path id="Path_112500" data-name="Path 112500" d="M576.946,372.678H515.88V287.709h61.066" transform="translate(-58.659 -32.714)" fill="none" stroke="#375d69" stroke-linecap="round" stroke-linejoin="round" stroke-width="2"/>
        <path id="Path_112501" data-name="Path 112501" d="M522.88,330.639v36.63h35.062V294.709H522.88Z" transform="translate(-59.455 -33.51)" fill="none" stroke="#375d69" stroke-linecap="round" stroke-linejoin="round" stroke-width="2"/>
        <path id="Path_112502" data-name="Path 112502" d="M583.235,294.709H571.19V367.27h12.045" transform="translate(-64.948 -33.51)" fill="none" stroke="#375d69" stroke-linecap="round" stroke-linejoin="round" stroke-width="2"/>
        <path id="Path_112503" data-name="Path 112503" d="M600.02,367.27h6.851V294.709H600.02" transform="translate(-68.226 -33.51)" fill="none" stroke="#375d69" stroke-linecap="round" stroke-linejoin="round" stroke-width="2"/>
        <line id="Line_844" data-name="Line 844" x2="35.062" transform="translate(463.425 297.129)" fill="none" stroke="#375d69" stroke-linecap="round" stroke-linejoin="round" stroke-width="2"/>
        <line id="Line_845" data-name="Line 845" x2="12.045" transform="translate(506.242 297.129)" fill="none" stroke="#375d69" stroke-linecap="round" stroke-linejoin="round" stroke-width="2"/>
        <line id="Line_846" data-name="Line 846" x2="6.851" transform="translate(531.794 297.129)" fill="none" stroke="#375d69" stroke-linecap="round" stroke-linejoin="round" stroke-width="2"/>
        <path id="Path_112504" data-name="Path 112504" d="M702.436,398.457V274.979H643.17V398.457" transform="translate(-73.133 -31.267)" fill="none" stroke="#375d69" stroke-linecap="round" stroke-linejoin="round" stroke-width="2"/>
        <path id="Path_112505" data-name="Path 112505" d="M673.428,373.49H649.17V280.979H697.8V373.49Z" transform="translate(-73.815 -31.949)" fill="none" stroke="#375d69" stroke-linecap="round" stroke-linejoin="round" stroke-width="2"/>
        <path id="Path_112506" data-name="Path 112506" d="M676.54,280.979V373.49" transform="translate(-76.927 -31.949)" fill="none" stroke="#375d69" stroke-linecap="round" stroke-linejoin="round" stroke-width="2"/>
        <path id="Path_112507" data-name="Path 112507" d="M697.8,359.259H649.17" transform="translate(-73.815 -40.85)" fill="none" stroke="#375d69" stroke-linecap="round" stroke-linejoin="round" stroke-width="2"/>
        <path id="Path_112508" data-name="Path 112508" d="M697.8,333.169H649.17" transform="translate(-73.815 -37.884)" fill="none" stroke="#375d69" stroke-linecap="round" stroke-linejoin="round" stroke-width="2"/>
        <path id="Path_112509" data-name="Path 112509" d="M697.8,307.069H649.17" transform="translate(-73.815 -34.916)" fill="none" stroke="#375d69" stroke-linecap="round" stroke-linejoin="round" stroke-width="2"/>
        <path id="Path_112510" data-name="Path 112510" d="M721.935,314.267a3.537,3.537,0,0,1-3.545-3.536v-5.805a3.541,3.541,0,0,1,7.081,0v5.805A3.535,3.535,0,0,1,721.935,314.267Z" transform="translate(-81.686 -34.27)" fill="none" stroke="#375d69" stroke-linecap="round" stroke-linejoin="round" stroke-width="2"/>
        <path id="Path_112511" data-name="Path 112511" d="M628.505,314.267a3.537,3.537,0,0,1-3.545-3.536v-5.805a3.541,3.541,0,0,1,7.081,0v5.805A3.535,3.535,0,0,1,628.505,314.267Z" transform="translate(-71.062 -34.27)" fill="none" stroke="#375d69" stroke-linecap="round" stroke-linejoin="round" stroke-width="2"/>
        <path id="Path_112512" data-name="Path 112512" d="M310.213,402.347a19.912,19.912,0,0,1,4.564-.523,20.258,20.258,0,0,1,4.618.532,13.891,13.891,0,0,1,25.135-5.309h.009c.86-16.964,7.179-26.332,22.29-25.268,8.845.629,8.349,12.036,5.912,22.671,5.406-8.3,15.537-3.448,9.209,18.4,7.064-11.026,23.38-1.932,18.648,13.587,4.29-6.124,10.706-.08,10.015,6.78H298.319a20.033,20.033,0,0,1,1.409-24.568v-.009c-6.177-3.66-7.6-11.123-6.24-19.277,7.347,1.028,13.791,3,16.724,12.984" transform="translate(-33.318 -42.264)" fill="#fff"/>
        <path id="Path_112513" data-name="Path 112513" d="M351.029,402.808c-.027-2,0-3.926.106-5.761.86-16.964,7.179-26.332,22.29-25.268,8.845.629,8.349,12.036,5.912,22.671a128.354,128.354,0,0,1-5.912,18.4" transform="translate(-39.913 -42.264)" fill="none" stroke="#053544" stroke-linecap="round" stroke-linejoin="round" stroke-width="2"/>
        <path id="Path_112514" data-name="Path 112514" d="M372.958,396.9c0-.009.009-.009.009-.018,5.406-8.3,15.537-3.448,9.209,18.4,7.064-11.026,23.38-1.932,18.648,13.587,4.29-6.124,10.706-.08,10.015,6.78H298.545a20.033,20.033,0,0,1,1.409-24.568" transform="translate(-33.543 -44.694)" fill="none" stroke="#053544" stroke-linecap="round" stroke-linejoin="round" stroke-width="2"/>
        <path id="Path_112515" data-name="Path 112515" d="M312.42,404.821a19.912,19.912,0,0,1,4.564-.523,20.26,20.26,0,0,1,4.618.532,13.891,13.891,0,0,1,25.135-5.309" transform="translate(-35.524 -44.739)" fill="none" stroke="#053544" stroke-linecap="round" stroke-linejoin="round" stroke-width="2"/>
        <path id="Path_112516" data-name="Path 112516" d="M322.719,406.289a19.059,19.059,0,0,0,.257,9.749" transform="translate(-36.642 -46.198)" fill="none" stroke="#053544" stroke-linecap="round" stroke-linejoin="round" stroke-width="2"/>
        <path id="Path_112517" data-name="Path 112517" d="M293.489,391.629c-1.365,8.154.062,15.616,6.24,19.277a17.771,17.771,0,0,0,7.471,2.26" transform="translate(-33.318 -44.531)" fill="none" stroke="#053544" stroke-linecap="round" stroke-linejoin="round" stroke-width="2"/>
        <path id="Path_112518" data-name="Path 112518" d="M293.55,391.629c7.347,1.028,13.791,3,16.724,12.984a42.467,42.467,0,0,1,1.471,8.553" transform="translate(-33.379 -44.531)" fill="none" stroke="#053544" stroke-linecap="round" stroke-linejoin="round" stroke-width="2"/>
        <path id="Path_112526" data-name="Path 112526" d="M269.09,260.128s-7.829,9.018-19.425,22.326a66.85,66.85,0,0,1-4.326-10.607,55.564,55.564,0,0,1-2.516-18.829,50.315,50.315,0,0,1,.758-6.77,33.832,33.832,0,0,0,20.319,5.791,21.463,21.463,0,0,0,5.19,8.089" transform="translate(-27.605 -28)" fill="#fff"/>
        <path id="Path_112527" data-name="Path 112527" d="M267.171,235.35a11.634,11.634,0,0,0-1.095,1.142,10.959,10.959,0,0,0-1.458,2.29,22.5,22.5,0,0,1-17.247-6.056c.113-.262.214-.524.328-.786a54.485,54.485,0,0,1,4.712-8.491,17.534,17.534,0,0,0,2.272.534,12.131,12.131,0,0,0,12.487,11.366" transform="translate(-28.128 -25.408)" fill="#fff"/>
        <path id="Path_112542" data-name="Path 112542" d="M675.519,304.63c8.792,14.358,14.819,26.607,11.974,36.586-3.04-6.479-8.766-9.8-16.458-8.721-1.019-18.178-1.383-37.464,4.485-27.865" transform="translate(-76.234 -34.348)" fill="#a5b6bc"/>
        <path id="Path_112543" data-name="Path 112543" d="M687.57,345.092c-.106.4-.23.789-.372,1.179a70.02,70.02,0,0,1-9.723,10.8,3.172,3.172,0,0,1-5.238-2.225c-.266-4.928-.744-11.619-1.126-18.47,7.693-1.081,13.418,2.242,16.458,8.721" transform="translate(-76.31 -38.225)" fill="#fff"/>
        <path id="Path_112544" data-name="Path 112544" d="M671.035,332.495c-1.019-18.178-1.383-37.464,4.485-27.865,8.792,14.358,14.819,26.607,11.974,36.586-.106.4-.23.789-.372,1.179a70.02,70.02,0,0,1-9.723,10.8,3.172,3.172,0,0,1-5.238-2.225C671.894,346.037,671.416,339.346,671.035,332.495Z" transform="translate(-76.234 -34.348)" fill="none" stroke="#053544" stroke-linecap="round" stroke-linejoin="round" stroke-width="1.965"/>
        <path id="Path_112545" data-name="Path 112545" d="M671.111,336.371c7.693-1.081,13.418,2.242,16.458,8.721" transform="translate(-76.31 -38.225)" fill="none" stroke="#053544" stroke-linecap="round" stroke-linejoin="round" stroke-width="1.965"/>
        <path id="Path_112546" data-name="Path 112546" d="M671.442,523.677c.026,3.891.6,6.532,1.533,8.384,4.112,8.234,15.1.877,15.1,17.965H636.531s.186-10.343.425-26.349Z" transform="translate(-72.378 -59.546)" fill="#61c7c0"/>
        <path id="Path_112547" data-name="Path 112547" d="M676.173,338.257V502.593H636.494c.452-31.712,1.064-85.669.647-125.526a40.79,40.79,0,0,0-2.721-14.624,28.1,28.1,0,0,1-1.959-10.387,27.608,27.608,0,0,1,3.607-13.8Z" transform="translate(-71.915 -38.462)" fill="#fff"/>
        <path id="Path_112548" data-name="Path 112548" d="M669.771,532.381c1.108-1.7,3.634-2.73,5.841-3.324" transform="translate(-76.157 -60.157)" fill="none" stroke="#053544" stroke-linecap="round" stroke-linejoin="round" stroke-width="1.953"/>
        <path id="Path_112549" data-name="Path 112549" d="M671.881,536.257c.993-1.516,3.1-2.5,5.114-3.12" transform="translate(-76.397 -60.621)" fill="none" stroke="#053544" stroke-linecap="round" stroke-linejoin="round" stroke-width="1.953"/>
        <path id="Path_112551" data-name="Path 112551" d="M655.768,338.257v16.184c0,8.854-4.75,23.93-9.164,23.93h-4.573V338.257Z" transform="translate(-73.003 -38.462)" fill="#fff"/>
        <path id="Path_112553" data-name="Path 112553" d="M636.861,523.677c.133,21.174,16.627,5.415,16.627,26.349H601.941s.186-10.343.425-26.349Zm-14.925,10.857a4.737,4.737,0,1,0-4.733,4.742,4.732,4.732,0,0,0,4.733-4.742" transform="translate(-68.445 -59.546)" fill="#61c7c0"/>
        <path id="Path_112554" data-name="Path 112554" d="M641.583,338.257V502.593H601.9c.452-31.712,1.063-85.669.647-125.526a40.592,40.592,0,0,0-2.712-14.624,28.284,28.284,0,0,1,1.64-24.187Z" transform="translate(-67.982 -38.462)" fill="#fff"/>
        <path id="Path_112555" data-name="Path 112555" d="M618.553,530.587a4.737,4.737,0,1,1-4.742,4.733,4.732,4.732,0,0,1,4.742-4.733" transform="translate(-69.794 -60.331)" fill="#a3deda"/>
        <path id="Path_112556" data-name="Path 112556" d="M623.285,535.32a4.737,4.737,0,1,0-4.733,4.742A4.732,4.732,0,0,0,623.285,535.32Z" transform="translate(-69.794 -60.331)" fill="none" stroke="#053544" stroke-linecap="round" stroke-linejoin="round" stroke-width="1.953"/>
        <path id="Path_112557" data-name="Path 112557" d="M635.181,532.381c1.117-1.7,3.634-2.73,5.85-3.324" transform="translate(-72.224 -60.157)" fill="none" stroke="#053544" stroke-linecap="round" stroke-linejoin="round" stroke-width="1.953"/>
        <path id="Path_112558" data-name="Path 112558" d="M637.3,536.257c.984-1.516,3.093-2.5,5.1-3.12" transform="translate(-72.465 -60.621)" fill="none" stroke="#053544" stroke-linecap="round" stroke-linejoin="round" stroke-width="1.953"/>
        <path id="Path_112559" data-name="Path 112559" d="M601.478,338.257a28.284,28.284,0,0,0-1.64,24.187,40.592,40.592,0,0,1,2.712,14.624c.417,39.857-.2,93.814-.647,125.526-.239,16.007-.425,26.35-.425,26.35h51.547c0-20.934-16.494-5.176-16.627-26.35" transform="translate(-67.982 -38.462)" fill="none" stroke="#053544" stroke-linecap="round" stroke-linejoin="round" stroke-width="1.832"/>
        <path id="Path_112560" data-name="Path 112560" d="M602.421,505.5H642.1V363.8" transform="translate(-68.499 -41.366)" fill="none" stroke="#053544" stroke-linecap="round" stroke-linejoin="round" stroke-width="1.832"/>
        <path id="Path_112561" data-name="Path 112561" d="M673,246.867v78.57H601.941V236.6a7.149,7.149,0,0,1,5.717-7.019,191.736,191.736,0,0,1,44.784-3.979A21.271,21.271,0,0,1,673,246.867" transform="translate(-68.445 -25.642)" fill="#a5b6bc"/>
        <path id="Path_112562" data-name="Path 112562" d="M673,325.437v-78.57A21.271,21.271,0,0,0,652.442,225.6a191.736,191.736,0,0,0-44.784,3.979,7.149,7.149,0,0,0-5.717,7.019v88.833Z" transform="translate(-68.445 -25.642)" fill="none" stroke="#053544" stroke-linecap="round" stroke-linejoin="round" stroke-width="2"/>
        <path id="Path_112563" data-name="Path 112563" d="M622.318,337.428c.5,9.572-3.811,19.233-12.089,21.891-3.421-4.166-6.709-8.083-9.926-11.814-.027-.035-.053-.062-.08-.1-7.6-9.2,6.949-20.792,10.192-16.928,1.6,1.817,3.616,2.225,5.362,3.66a57.133,57.133,0,0,0,6.541,3.288" transform="translate(-68.003 -37.491)" fill="#fff"/>
        <path id="Path_112564" data-name="Path 112564" d="M612.806,232.881a12.1,12.1,0,0,1,1.223,16.937,9.06,9.06,0,0,1-.683.736c-14.934,14.73-21.758,25.375-28.849,38.022-1.622,2.322.957,4.183,2.934,6.364,5.442,5.982,13.675,17.487,19.082,24.2-3.244-3.864-17.788,7.728-10.192,16.928C588.5,327,581.086,318.993,573.2,310.91c-.807-1.214-11.079-8.429-9.235-22.317.674-5.167,2.748-8.172,3.829-10.742,14.145-29.212,28.264-43.765,28.273-43.765a11.776,11.776,0,0,1,16.742-1.205" transform="translate(-64.101 -26.146)" fill="#a5b6bc"/>
        <path id="Path_112565" data-name="Path 112565" d="M596.321,335.954c-7.826-9.067-15.235-17.07-23.123-25.153-.807-1.214-11.079-8.429-9.235-22.317.674-5.167,2.748-8.172,3.829-10.742,14.145-29.212,28.264-43.765,28.273-43.765a11.774,11.774,0,0,1,7.5-4.048l4.869-.938" transform="translate(-64.101 -26.038)" fill="none" stroke="#053544" stroke-linecap="round" stroke-linejoin="round" stroke-width="1.965"/>
        <path id="Path_112566" data-name="Path 112566" d="M608.285,262.178c-9.865,10.868-15.44,19.807-21.19,30.062-1.622,2.322.958,4.183,2.934,6.364,5.443,5.982,13.676,17.487,19.082,24.2,1.6,1.817,3.616,2.225,5.363,3.66a57.122,57.122,0,0,0,6.54,3.288c.5,9.572-3.811,19.233-12.089,21.891a14.774,14.774,0,0,1-2.473.567" transform="translate(-66.698 -29.811)" fill="none" stroke="#053544" stroke-linecap="round" stroke-linejoin="round" stroke-width="1.965"/>
        <path id="Path_112567" data-name="Path 112567" d="M610.517,361.6c-3.421-4.166-6.709-8.083-9.926-11.814" transform="translate(-68.291 -39.773)" fill="none" stroke="#053544" stroke-linecap="round" stroke-linejoin="round" stroke-width="1.965"/>
        <path id="Path_112568" data-name="Path 112568" d="M610.415,330.479c-3.244-3.864-17.788,7.729-10.192,16.928.027.035.053.062.08.1" transform="translate(-68.003 -37.491)" fill="none" stroke="#053544" stroke-linecap="round" stroke-linejoin="round" stroke-width="2.012"/>
        <path id="Path_112569" data-name="Path 112569" d="M656.326,225.32v13.348L650.211,233l1.684-9.6Z" transform="translate(-73.933 -25.402)" fill="#a5b6bc"/>
        <path id="Path_112570" data-name="Path 112570" d="M650.211,233l6.115,5.672V225.32l-4.431-1.923Z" transform="translate(-73.933 -25.402)" fill="none" stroke="#053544" stroke-linecap="round" stroke-linejoin="round" stroke-width="2"/>
        <path id="Path_112571" data-name="Path 112571" d="M664.9,180.1c-.292,8.606,3.714,19.977.718,26.934-3.581,8.3-14.686,9.067-14.686,9.067v9.3c0,5.3-19.383,2.774-19.383-4.334V199.7c-9.093-1.09-8.881-9.235-2.978-10.308a9.442,9.442,0,0,1,4.857.523c6.869,0,11.221-2.81,12.373-9.8H664.46c.151,0,.292-.009.443-.018" transform="translate(-70.997 -20.478)" fill="#fff"/>
        <path id="Path_112572" data-name="Path 112572" d="M629.091,187.685c-1.046-10.68,3.35-17.425,9.661-14.074,3.439-6.833,12.125-7.622,16.919-4.547a8.16,8.16,0,0,1,7.126-3.917h2.18a6.633,6.633,0,0,1,.443,13.25c-.151.009-.292.018-.443.018H646.321c-1.152,6.993-5.5,9.8-12.373,9.8a9.441,9.441,0,0,0-4.857-.523Z" transform="translate(-71.514 -18.778)" fill="#69868f"/>
        <g id="Group_40804" data-name="Group 40804">
          <path id="Path_112550" data-name="Path 112550" d="M636.485,502.593h39.688V338.257h-40.1a27.608,27.608,0,0,0-3.607,13.8,28.1,28.1,0,0,0,1.959,10.387,40.79,40.79,0,0,1,2.721,14.624c.417,39.857-.2,93.814-.647,125.526-.239,16.007-.425,26.35-.425,26.35h51.547c0-17.088-10.99-9.731-15.1-17.965-.931-1.852-1.507-4.494-1.533-8.384" transform="translate(-71.915 -38.462)" fill="none" stroke="#053544" stroke-linecap="round" stroke-linejoin="round" stroke-width="1.832"/>
          <path id="Path_112573" data-name="Path 112573" d="M664.9,178.4c-.292,8.606,3.714,19.977.718,26.934-3.581,8.3-14.686,9.067-14.686,9.067v9.3c0,5.3-19.383,2.774-19.383-4.334V198c-9.093-1.09-8.881-9.235-2.978-10.308a9.442,9.442,0,0,1,4.857.523c6.869,0,11.221-2.81,12.373-9.8H664.46c.151,0,.292-.009.443-.018a6.633,6.633,0,0,0-.443-13.25h-2.18a8.16,8.16,0,0,0-7.126,3.917c-4.795-3.075-13.481-2.287-16.919,4.547-6.31-3.35-10.706,3.394-9.661,14.074" transform="translate(-70.998 -18.778)" fill="none" stroke="#053544" stroke-linecap="round" stroke-linejoin="round" stroke-width="2"/>
        </g>
        <path id="Path_112574" data-name="Path 112574" d="M660.1,196.107c.31,1.037,2.615,3.058,0,4.626" transform="translate(-75.058 -22.299)" fill="none" stroke="#053544" stroke-linecap="round" stroke-linejoin="round" stroke-width="1.5"/>
        <path id="Path_112575" data-name="Path 112575" d="M663.221,206.645a6.735,6.735,0,0,0-4.83,2.038" transform="translate(-74.863 -23.495)" fill="none" stroke="#053544" stroke-linecap="round" stroke-linejoin="round" stroke-width="1.5"/>
        <line id="Line_847" data-name="Line 847" y1="0.966" x2="0.886" transform="translate(577.687 173.888)" fill="none" stroke="#053544" stroke-linecap="round" stroke-linejoin="round" stroke-width="2.5"/>
        <line id="Line_848" data-name="Line 848" y1="0.948" x2="0.886" transform="translate(589.395 173.356)" fill="none" stroke="#053544" stroke-linecap="round" stroke-linejoin="round" stroke-width="2.5"/>
        <path id="Path_112576" data-name="Path 112576" d="M648.051,191.4a17.61,17.61,0,0,1,5.309-1.746" transform="translate(-73.688 -21.565)" fill="none" stroke="#053544" stroke-linecap="round" stroke-linejoin="round" stroke-width="2"/>
        <path id="Path_112577" data-name="Path 112577" d="M662.521,189.6a16.192,16.192,0,0,1,4.414,1.613" transform="translate(-75.333 -21.558)" fill="none" stroke="#053544" stroke-linecap="round" stroke-linejoin="round" stroke-width="2"/>
        <path id="Path_112578" data-name="Path 112578" d="M628.071,194.716a3.593,3.593,0,0,1,3.323,2.774" transform="translate(-71.416 -22.14)" fill="none" stroke="#053544" stroke-linecap="round" stroke-linejoin="round" stroke-width="2"/>
        <path id="Path_112579" data-name="Path 112579" d="M632.033,224.127l8.473,8.508-7.161,7.5-4.724-13.64Z" transform="translate(-71.478 -25.485)" fill="#a5b6bc"/>
        <path id="Path_112580" data-name="Path 112580" d="M628.621,226.493l3.412-2.366,8.473,8.508-7.161,7.5Z" transform="translate(-71.478 -25.485)" fill="none" stroke="#053544" stroke-linecap="round" stroke-linejoin="round" stroke-width="2"/>
        <path id="Path_112581" data-name="Path 112581" d="M606.506,556.477h-50v-6h49.544a33.708,33.708,0,0,1,.461,6" transform="translate(-63.278 -62.593)" fill="#fff"/>
        <path id="Path_112582" data-name="Path 112582" d="M589.427,534.967c4.742,5.867,14.4-.151,16.618,12.169H556.5V530.012c8.606,2.677,12.319,11.034,20.5,2.863a13.413,13.413,0,0,0,3.226-5.663c1.312-4.254,3.111-5.991,4.494-6.115,1.188-.106,2.065.975,2.065,2.677,0,5.867,1.037,9.209,2.641,11.194" transform="translate(-63.278 -59.251)" fill="#69868f"/>
        <path id="Path_112583" data-name="Path 112583" d="M584.721,472.7v42.9c-1.383.124-3.182,1.861-4.494,6.115A13.413,13.413,0,0,1,577,527.372c-8.18,8.172-11.894-.186-20.5-2.863V472.7Z" transform="translate(-63.278 -53.749)" fill="#fff"/>
        <path id="Path_112584" data-name="Path 112584" d="M584.721,515.594V472.7H556.5v74.936h50a33.708,33.708,0,0,0-.461-6c-2.216-12.319-11.876-6.3-16.618-12.169-1.6-1.985-2.641-5.327-2.641-11.194,0-1.7-.877-2.783-2.065-2.677-1.383.124-3.182,1.861-4.494,6.115A13.413,13.413,0,0,1,577,527.372c-8.18,8.172-11.894-.186-20.5-2.863" transform="translate(-63.278 -53.749)" fill="none" stroke="#053544" stroke-linecap="round" stroke-linejoin="round" stroke-width="2"/>
        <path id="Path_112585" data-name="Path 112585" d="M556.5,550.477h49.553" transform="translate(-63.278 -62.593)" fill="none" stroke="#053544" stroke-linecap="round" stroke-linejoin="round" stroke-width="2"/>
        <line id="Line_849" data-name="Line 849" y1="1.728" x2="3.51" transform="translate(521 472.569)" fill="none" stroke="#053544" stroke-linecap="round" stroke-linejoin="round" stroke-width="2"/>
        <line id="Line_850" data-name="Line 850" y1="1.79" x2="3.634" transform="translate(522.515 475.715)" fill="none" stroke="#053544" stroke-linecap="round" stroke-linejoin="round" stroke-width="2"/>
        <path id="Path_112586" data-name="Path 112586" d="M578.506,556.477h-50v-6h49.544a33.707,33.707,0,0,1,.461,6" transform="translate(-60.094 -62.593)" fill="#fff"/>
        <path id="Path_112587" data-name="Path 112587" d="M561.427,534.967c4.742,5.867,14.4-.151,16.618,12.169H528.5V530.012c8.6,2.677,12.32,11.034,20.5,2.863a13.6,13.6,0,0,0,3.226-5.663c1.321-4.263,3.111-6,4.494-6.115,1.179-.106,2.056.984,2.056,2.677a26.213,26.213,0,0,0,1.01,8.048,9.6,9.6,0,0,0,1.64,3.146" transform="translate(-60.094 -59.251)" fill="#69868f"/>
        <path id="Path_112588" data-name="Path 112588" d="M556.721,472.7v42.9c-1.383.115-3.173,1.852-4.494,6.115A13.6,13.6,0,0,1,549,527.372c-8.18,8.172-11.9-.186-20.5-2.863V472.7Z" transform="translate(-60.094 -53.749)" fill="#fff"/>
        <path id="Path_112589" data-name="Path 112589" d="M556.721,515.594V472.7H528.5v74.936h50a33.708,33.708,0,0,0-.461-6c-2.216-12.319-11.876-6.3-16.618-12.169a9.6,9.6,0,0,1-1.64-3.146,26.213,26.213,0,0,1-1.01-8.048c0-1.693-.877-2.783-2.056-2.677-1.383.115-3.173,1.852-4.494,6.115A13.6,13.6,0,0,1,549,527.372c-8.18,8.172-11.9-.186-20.5-2.863" transform="translate(-60.094 -53.749)" fill="none" stroke="#053544" stroke-linecap="round" stroke-linejoin="round" stroke-width="2"/>
        <line id="Line_851" data-name="Line 851" x2="49.544" transform="translate(468.407 487.884)" fill="none" stroke="#053544" stroke-linecap="round" stroke-linejoin="round" stroke-width="2"/>
        <line id="Line_852" data-name="Line 852" y1="1.728" x2="3.51" transform="translate(496.183 472.569)" fill="none" stroke="#053544" stroke-linecap="round" stroke-linejoin="round" stroke-width="2"/>
        <line id="Line_853" data-name="Line 853" y1="1.79" x2="3.634" transform="translate(497.699 475.715)" fill="none" stroke="#053544" stroke-linecap="round" stroke-linejoin="round" stroke-width="2"/>
        <path id="Path_112590" data-name="Path 112590" d="M585.3,323.591c22.68,53.39,17.256,138.217,17.256,138.217H504.027s-5.814-83.577,13.755-131.428a29.446,29.446,0,0,1,25.4-18.222L564.5,310.8a21.123,21.123,0,0,1,20.8,12.789" transform="translate(-57.219 -35.335)" fill="#c3cfd2"/>
        <path id="Path_112591" data-name="Path 112591" d="M517.783,330.38c-19.569,47.851-13.755,131.428-13.755,131.428h98.529s5.424-84.827-17.256-138.217A21.123,21.123,0,0,0,564.5,310.8l-21.315,1.356A29.446,29.446,0,0,0,517.783,330.38Z" transform="translate(-57.219 -35.335)" fill="none" stroke="#053544" stroke-linecap="round" stroke-linejoin="round" stroke-width="2"/>
        <path id="Path_112592" data-name="Path 112592" d="M542.919,185.379,539.2,195.97l-7.436-2.774c0-3.572,3.146-8.792,5.4-10.449Z" transform="translate(-60.465 -20.78)" fill="#f5cc7c"/>
        <path id="Path_112593" data-name="Path 112593" d="M533.043,234.719a43.04,43.04,0,0,1-2.118,14.181c-8.163,25.02-40.344,9.324-40.344,9.324,34.681-16.742,14.5-36.825,14.5-53.257s17.283-29.088,27.4-22.45c-2.251,1.657-5.4,6.878-5.4,10.449-4.432,8.482,3.35,20.367,5.468,35.416a50.834,50.834,0,0,1,.5,6.337" transform="translate(-55.782 -20.549)" fill="#69868f"/>
        <path id="Path_112594" data-name="Path 112594" d="M531.761,193.2l7.436,2.774,3.722-10.591-5.761-2.632C534.907,184.4,531.761,189.625,531.761,193.2Z" transform="translate(-60.465 -20.78)" fill="none" stroke="#053544" stroke-linecap="round" stroke-linejoin="round" stroke-width="2"/>
        <path id="Path_112595" data-name="Path 112595" d="M527.079,192.965c-4.432,8.482,3.35,20.367,5.468,35.416a50.834,50.834,0,0,1,.5,6.337,43.04,43.04,0,0,1-2.118,14.181c-8.163,25.02-40.344,9.324-40.344,9.324,34.681-16.742,14.5-36.825,14.5-53.257s17.283-29.088,27.4-22.45" transform="translate(-55.782 -20.549)" fill="none" stroke="#053544" stroke-linecap="round" stroke-linejoin="round" stroke-width="2"/>
        <path id="Path_112596" data-name="Path 112596" d="M609.285,309a12.733,12.733,0,0,1-17,14.969l-26.305-10.325,25.844-10.077c0-4.254-.266-9.022-.691-13.808-.4-4.5-.939-9.014-1.524-13.108,4.609-.5,11.522.009,11.894,1.507Z" transform="translate(-64.356 -31.436)" fill="#fff"/>
        <path id="Path_112597" data-name="Path 112597" d="M583.511,271.536c.585,4.095,1.126,8.606,1.524,13.108a17.1,17.1,0,0,0-5.592-1.711c-1.781-.142-7.392,1.126-14.252,2.925-8.934-4.68-19.862-2.916-30.169.08l1.188-10.166.018-.142c0-3.1-22.964-4.068-23.877,1.817l2.357-15.085a34.057,34.057,0,0,1,20.385-26.075c13.9-5.894,23.77-7.268,37.933.931a43.143,43.143,0,0,1,20.11,26.819l2.269,9c-.372-1.5-7.285-2-11.894-1.507" transform="translate(-58.258 -26.319)" fill="#01a499"/>
        <path id="Path_112598" data-name="Path 112598" d="M532.448,299.5c-.062.018-.133.044-.2.062a2.481,2.481,0,0,1-.833.133,2.659,2.659,0,0,1-.833-5.185c2.056-.682,4.166-1.347,6.3-1.968,10.308-3,21.236-4.759,30.169-.08-5.823,1.533-12.55,3.457-18.621,5.247a2.654,2.654,0,0,1-2.1,2.056c-7.569,1.427-11.637,4.644-11.681,4.68a2.657,2.657,0,1,1-3.377-4.1,13.987,13.987,0,0,1,1.17-.842" transform="translate(-60.123 -32.928)" fill="#fff"/>
        <path id="Path_112599" data-name="Path 112599" d="M528.913,298.44a2.481,2.481,0,0,0,.833-.133c.062-.018.133-.044.2-.062a13.987,13.987,0,0,0-1.17.842,2.657,2.657,0,0,0,3.377,4.1c.044-.035,4.112-3.253,11.681-4.68a2.654,2.654,0,0,0,2.1-2.056c6.071-1.79,12.8-3.714,18.621-5.247,6.86-1.8,12.47-3.067,14.252-2.925a17.1,17.1,0,0,1,5.593,1.711c.425,4.786.691,9.554.691,13.808l-25.844,10.077-35.168,13.7a12.73,12.73,0,0,1-17.2-13.826L511.71,282.8c.913-5.885,23.877-4.919,23.877-1.817l-.018.142-1.188,10.166c-2.136.62-4.245,1.285-6.3,1.968a2.659,2.659,0,0,0,.833,5.185" transform="translate(-57.617 -31.669)" fill="#fff"/>
        <path id="Path_112600" data-name="Path 112600" d="M543.867,294.889a34.7,34.7,0,0,0-11.22,4.609,13.979,13.979,0,0,0-1.17.842,2.657,2.657,0,0,0,3.377,4.1c.044-.035,4.112-3.253,11.681-4.68a2.654,2.654,0,0,0,2.1-2.056c6.071-1.79,12.8-3.714,18.621-5.247,6.86-1.8,12.47-3.067,14.252-2.925a17.1,17.1,0,0,1,5.593,1.711" transform="translate(-60.322 -32.921)" fill="none" stroke="#053544" stroke-linecap="round" stroke-linejoin="round" stroke-width="2"/>
        <path id="Path_112601" data-name="Path 112601" d="M559.242,308.53l26.305,10.325a12.733,12.733,0,0,0,17-14.969l-7.782-30.843-2.269-9a43.143,43.143,0,0,0-20.11-26.819c-14.163-8.2-24.036-6.824-37.933-.931a34.057,34.057,0,0,0-20.385,26.075l-2.358,15.085-4.839,30.958a12.73,12.73,0,0,0,17.2,13.826l35.168-13.7,25.844-10.077c0-4.254-.266-9.022-.691-13.808-.4-4.5-.939-9.014-1.524-13.108-.736-5.185-1.551-9.687-2.242-12.665" transform="translate(-57.617 -26.319)" fill="none" stroke="#053544" stroke-linecap="round" stroke-linejoin="round" stroke-width="2"/>
        <path id="Path_112602" data-name="Path 112602" d="M512.351,282.8c.913-5.885,23.877-4.919,23.877-1.817" transform="translate(-58.258 -31.669)" fill="none" stroke="#053544" stroke-linecap="round" stroke-linejoin="round" stroke-width="2"/>
        <path id="Path_112603" data-name="Path 112603" d="M604.535,278.16c-.372-1.5-7.285-2-11.894-1.507" transform="translate(-67.387 -31.436)" fill="none" stroke="#053544" stroke-linecap="round" stroke-linejoin="round" stroke-width="2"/>
        <path id="Path_112604" data-name="Path 112604" d="M540.927,264.077l-1.79,15.262-.018.142-1.188,10.166" transform="translate(-61.166 -30.027)" fill="none" stroke="#053544" stroke-linecap="round" stroke-linejoin="round" stroke-width="2"/>
        <path id="Path_112605" data-name="Path 112605" d="M532.448,299.5c-.062.018-.133.044-.2.062a2.481,2.481,0,0,1-.833.133,2.659,2.659,0,0,1-.833-5.185c2.056-.682,4.166-1.347,6.3-1.968,10.308-3,21.236-4.759,30.169-.08" transform="translate(-60.123 -32.928)" fill="none" stroke="#053544" stroke-linecap="round" stroke-linejoin="round" stroke-width="2"/>
        <path id="Path_112606" data-name="Path 112606" d="M590.571,172.249c3.138,3.129.762,10.582-5.291,16.645a28.233,28.233,0,0,1-5.229,4.148c-.931-3.5-1.914-6.816-2.411-9.554-12.523.576-7.622,10.405-19.091,10.405-5.07,0-6.133.1-7.782-.443-6.709-2.189-12.745,6.807-1.95,10.76v13.206c-5.761-5.043-14.3-14.349-12.479-24.036a39.374,39.374,0,0,1,5.061-10.272c7.126-10,18.346-12.612,32.722-5.761,6.027-5.92,13.348-8.2,16.45-5.1" transform="translate(-60.957 -19.428)" fill="#69868f"/>
        <path id="Path_112607" data-name="Path 112607" d="M580.926,194.661c3.1,11.735,5.5,25.5-13.87,26.252v8.234a8.681,8.681,0,0,1-17.362,0V205.829c-10.8-3.953-4.759-12.949,1.95-10.76,1.648.541,2.712.443,7.782.443,11.469,0,6.567-9.829,19.091-10.405.5,2.739,1.48,6.053,2.411,9.554" transform="translate(-61.832 -21.048)" fill="#fff"/>
        <path id="Path_112608" data-name="Path 112608" d="M580.926,194.661c3.1,11.735,5.5,25.5-13.87,26.252v8.234a8.681,8.681,0,0,1-17.362,0V205.829c-10.8-3.953-4.759-12.949,1.95-10.76,1.648.541,2.712.443,7.782.443,11.469,0,6.567-9.829,19.091-10.405C579.011,187.846,580,191.16,580.926,194.661Z" transform="translate(-61.832 -21.048)" fill="none" stroke="#053544" stroke-linecap="round" stroke-linejoin="round" stroke-width="2"/>
        <path id="Path_112609" data-name="Path 112609" d="M580.051,193.042a28.233,28.233,0,0,0,5.229-4.148c6.053-6.062,8.429-13.516,5.291-16.645-3.1-3.1-10.423-.824-16.45,5.1-14.376-6.851-25.6-4.236-32.722,5.761a39.374,39.374,0,0,0-5.061,10.272c-1.817,9.687,6.718,18.993,12.479,24.036" transform="translate(-60.957 -19.428)" fill="none" stroke="#053544" stroke-linecap="round" stroke-linejoin="round" stroke-width="2"/>
        <path id="Path_112610" data-name="Path 112610" d="M547.461,200.565a2.634,2.634,0,0,1,2.65,2.6" transform="translate(-62.25 -22.804)" fill="none" stroke="#053544" stroke-linecap="round" stroke-linejoin="round" stroke-width="2"/>
        <path id="Path_112611" data-name="Path 112611" d="M578.151,200.687c0,5.309,2.845,4.4,2.845,5.513s-2.845,1.852-2.845,1.852" transform="translate(-65.74 -22.819)" fill="none" stroke="#053544" stroke-linecap="round" stroke-linejoin="round" stroke-width="1.5"/>
        <line id="Line_854" data-name="Line 854" x1="0.372" y2="1.64" transform="translate(504.913 180.119)" fill="none" stroke="#053544" stroke-linecap="round" stroke-linejoin="round" stroke-width="2.5"/>
        <line id="Line_855" data-name="Line 855" x1="0.195" y2="1.019" transform="translate(517.295 179.862)" fill="none" stroke="#053544" stroke-linecap="round" stroke-linejoin="round" stroke-width="2.5"/>
        <path id="Path_112612" data-name="Path 112612" d="M565.4,199.586a24.067,24.067,0,0,1,6.372-1.719" transform="translate(-64.29 -22.499)" fill="none" stroke="#053544" stroke-linecap="round" stroke-linejoin="round" stroke-width="2"/>
        <path id="Path_112613" data-name="Path 112613" d="M581.961,198.1a22.693,22.693,0,0,1,3.784.576" transform="translate(-66.173 -22.525)" fill="none" stroke="#053544" stroke-linecap="round" stroke-linejoin="round" stroke-width="2"/>
        <path id="Path_112614" data-name="Path 112614" d="M574.612,214.227a7.6,7.6,0,0,0-4.75-.9" transform="translate(-64.797 -24.243)" fill="none" stroke="#053544" stroke-linecap="round" stroke-linejoin="round" stroke-width="1.5"/>
      </g>
    </g>
  </g>
</svg>
