<svg id="Group_40390" data-name="Group 40390" xmlns="http://www.w3.org/2000/svg" xmlns:xlink="http://www.w3.org/1999/xlink" width="185.53" height="114.086" viewBox="0 0 185.53 114.086">
  <defs>
    <clipPath id="clip-path">
      <rect id="Rectangle_5966" data-name="Rectangle 5966" width="185.53" height="114.086" fill="none"/>
    </clipPath>
  </defs>
  <g id="Group_40389" data-name="Group 40389" clip-path="url(#clip-path)">
    <path id="Path_113598" data-name="Path 113598" d="M173.1,41.355c-8.694-3.4-7.284,17.3.4,16.881-1.032,7.358,1.211,11.8,7.191,11.095-.221,4.467,6.688,5.284,8.245,2.1.362,1.352,1.968,2.118,3.832,2.314,2.522.262,5.522-.52,6.554-2.314a3.606,3.606,0,0,0,3.749,1.9,3.255,3.255,0,0,0,2.308-1.9,5.709,5.709,0,0,0,.794.583,7.474,7.474,0,0,0,2.625.967,6.655,6.655,0,0,0,2.2.029c2.227-.358,4.022-2.012,3.563-5.63,4.06,2.067,10.047.759,9.246-6.438,10.145-4.916,5.96-23.22-1.785-19.99,2.192-4.636-2.076-9.4-4.535-6.829l.147-11.607a3.988,3.988,0,0,0-7.97-.276l-.2,3.631c.2-3.631-2.612-9.819-4.718-5.736L203.583,4.823A4.627,4.627,0,0,0,199.084.5h-.119a4.623,4.623,0,0,0-4.617,4.525L194.19,12.5l-1.423-2.07a1.583,1.583,0,0,0-2.663,1.711l2.349,3.906a5.475,5.475,0,0,1,.778,2.814v3.064c-1.692-2.894-4.3-2.583-4.493,1.913-.942-3.361-4.852-.663-5.9,2.923.026-4.288-3.3-4.092-4.285.311-3.237-2.919-8.008,4.669-5.457,14.286" transform="translate(-44.641 -0.134)" fill="#00a499"/>
    <path id="Path_113599" data-name="Path 113599" d="M212.295,99.181a3.606,3.606,0,0,1-3.75-1.9c-1.032,1.795-4.031,2.577-6.553,2.314l0,.045c0,2.166-.055,4.336-.055,6.5,0,5.579.41,5.46.41,9.4a87.94,87.94,0,0,1-.676,9.556h14.049c.08-13.5-.866-11.691-.321-19.785a12.174,12.174,0,0,0,1.561-1.157,11.261,11.261,0,0,0,1.788-1.97,9.117,9.117,0,0,0,1.217-2.385,8.149,8.149,0,0,0,.257-.935,6.68,6.68,0,0,1-2.2-.029v0a6.749,6.749,0,0,1-1.22,1.791,8.425,8.425,0,0,1-1.4,1.192V97.864a5.735,5.735,0,0,1-.794-.583,3.252,3.252,0,0,1-2.307,1.9" transform="translate(-53.862 -25.982)" fill="#c3cfd2"/>
    <path id="Path_113600" data-name="Path 113600" d="M220.658,128.019c.08-13.5-.866-11.69-.32-19.785" transform="translate(-58.803 -28.908)" fill="none" stroke="#053544" stroke-linecap="round" stroke-linejoin="round" stroke-width="1"/>
    <path id="Path_113601" data-name="Path 113601" d="M220.4,102.035V98.077" transform="translate(-58.865 -26.195)" fill="none" stroke="#053544" stroke-linecap="round" stroke-linejoin="round" stroke-width="1"/>
    <path id="Path_113602" data-name="Path 113602" d="M192.77,73.746c2.522.263,5.522-.519,6.553-2.314a3.607,3.607,0,0,0,3.75,1.9,3.252,3.252,0,0,0,2.307-1.9,5.736,5.736,0,0,0,.794.583,7.451,7.451,0,0,0,2.625.967,6.68,6.68,0,0,0,2.2.029c2.227-.359,4.021-2.013,3.563-5.63,4.06,2.067,10.046.759,9.245-6.438,10.146-4.916,5.961-23.22-1.785-19.99,2.191-4.637-2.077-9.406-4.535-6.829l.147-11.606a3.988,3.988,0,0,0-7.97-.276l-.205,3.631c.205-3.631-2.611-9.819-4.717-5.737l-1.16-15.314A4.625,4.625,0,0,0,199.083.5h-.119a4.623,4.623,0,0,0-4.618,4.524L194.19,12.5l-1.423-2.07a1.584,1.584,0,0,0-2.663,1.711l2.349,3.906a5.476,5.476,0,0,1,.779,2.814v3.064c-1.692-2.894-4.3-2.584-4.493,1.913-.943-3.362-4.852-.663-5.9,2.922.026-4.288-3.3-4.092-4.284.311-3.237-2.92-8.009,4.669-5.457,14.285-8.695-3.4-7.284,17.3.4,16.882-1.032,7.358,1.212,11.8,7.191,11.094-.221,4.467,6.688,5.284,8.245,2.1C189.3,72.785,190.9,73.55,192.77,73.746Z" transform="translate(-44.64 -0.134)" fill="none" stroke="#053544" stroke-linecap="round" stroke-linejoin="round" stroke-width="1"/>
    <path id="Path_113603" data-name="Path 113603" d="M222.245,99.4a6.74,6.74,0,0,1-1.221,1.791,8.43,8.43,0,0,1-1.4,1.192c-.051.038-.106.073-.157.108a9.045,9.045,0,0,1-1.791.91,1.9,1.9,0,0,0-.189.084" transform="translate(-58.086 -26.549)" fill="none" stroke="#053544" stroke-linecap="round" stroke-linejoin="round" stroke-width="1"/>
    <path id="Path_113604" data-name="Path 113604" d="M219.468,106.279a.071.071,0,0,0,.019-.012l.013-.007c.224-.122.442-.247.65-.375a12.223,12.223,0,0,0,1.561-1.157,11.263,11.263,0,0,0,1.788-1.971,9.1,9.1,0,0,0,1.218-2.384,8.153,8.153,0,0,0,.257-.936" transform="translate(-58.616 -26.558)" fill="none" stroke="#053544" stroke-linecap="round" stroke-linejoin="round" stroke-width="1"/>
    <path id="Path_113605" data-name="Path 113605" d="M212.438,99.293q-.115.76-.237,1.509c-.15.9-.307,1.8-.49,2.68-.092.435-.185.874-.295,1.282a6.377,6.377,0,0,1-.343,1.038l-.012.032a1.585,1.585,0,0,0-.131.439" transform="translate(-56.336 -26.52)" fill="none" stroke="#053544" stroke-linecap="round" stroke-linejoin="round" stroke-width="1"/>
    <path id="Path_113606" data-name="Path 113606" d="M215.406,106.893a9.86,9.86,0,0,0,.257-1.406c.061-.5.1-.975.134-1.455.067-.955.1-1.891.135-2.83.013-.443.023-.885.032-1.327" transform="translate(-57.532 -26.675)" fill="none" stroke="#053544" stroke-linecap="round" stroke-linejoin="round" stroke-width="1"/>
    <path id="Path_113607" data-name="Path 113607" d="M215.718,125.953H201.669a88.016,88.016,0,0,0,.676-9.556c0-3.936-.41-3.817-.41-9.4,0-2.166.054-4.336.054-6.5" transform="translate(-53.863 -26.842)" fill="none" stroke="#053544" stroke-linecap="round" stroke-linejoin="round" stroke-width="1"/>
    <path id="Path_113608" data-name="Path 113608" d="M163.98,52.88v60.183H122.415c-.275-7.079-3.028-5.391-4.612-2.535-.473-2.982-4.173-5.327-5.564-.794.527-7.572-4.448-9.63-5.933-5.785-1.107-2.405-4.765-3.845-6.067-1.252-1.329-4.525-5.624-2.169-5.731.992V52.88Zm-13.994,43.1V68.034H108.51v27.95h41.477Z" transform="translate(-25.242 -14.123)" fill="#e9eeef"/>
    <path id="Path_113609" data-name="Path 113609" d="M116.979,4.238l34.448,35.65H81.955L47.506,4.238Z" transform="translate(-12.688 -1.132)" fill="#a5b6bc"/>
    <rect id="Rectangle_5957" data-name="Rectangle 5957" width="2.333" height="27.95" transform="translate(122.412 53.911)" fill="#a5b6bc"/>
    <rect id="Rectangle_5958" data-name="Rectangle 5958" width="10.294" height="27.95" transform="translate(112.118 53.911)" fill="#69868f"/>
    <rect id="Rectangle_5959" data-name="Rectangle 5959" width="14.945" height="27.95" transform="translate(97.174 53.911)" fill="#879ea5"/>
    <path id="Path_113610" data-name="Path 113610" d="M128.134,73.557v27.95H115.919V97.849a46.171,46.171,0,0,0,7.6-24.292Z" transform="translate(-30.96 -19.646)" fill="#69868f"/>
    <path id="Path_113611" data-name="Path 113611" d="M114.986,127.437H66.872c-.84-3.791,1.253-8.228,6.033-7.568v-9.087a4.082,4.082,0,1,1,8.163,0v6.288c.748-3.54,4.818-4.483,6.01.992.107-3.161,4.4-5.517,5.731-.992,1.3-2.593,4.96-1.154,6.068,1.253,1.485-3.846,6.46-1.788,5.933,5.784,1.39-4.532,5.09-2.188,5.564.794,1.585-2.856,4.337-4.544,4.612,2.535" transform="translate(-17.812 -28.498)" fill="#30b5ac"/>
    <path id="Path_113612" data-name="Path 113612" d="M113.612,73.557h9.293a46.174,46.174,0,0,1-7.6,24.292h-1.692Z" transform="translate(-30.344 -19.646)" fill="#c3cfd2"/>
    <rect id="Rectangle_5960" data-name="Rectangle 5960" width="1.692" height="3.658" transform="translate(83.268 78.203)" fill="#e9eeef"/>
    <path id="Path_113613" data-name="Path 113613" d="M69.4,39.888V90.7c-1.191-5.476-5.261-4.532-6.01-.992V83.416a4.082,4.082,0,1,0-8.163,0V92.5c-4.78-.66-6.873,3.777-6.033,7.568H44.276V55.043H25.915v38.37H21.386v3.33h-3.33v3.33H.5V39.888L34.952,4.238Zm-7,28.232V55.269H59.74L57,52.233l-2.737,3.036H51.6V68.12ZM39.7,37.357V25h-9.21V37.357H39.7ZM19.29,82.993V55.043H7.213v27.95H19.29Z" transform="translate(-0.134 -1.132)" fill="#fff"/>
    <path id="Path_113614" data-name="Path 113614" d="M81.02,73.864V86.717H70.226V73.864H81.02Z" transform="translate(-18.756 -19.728)" fill="#fff"/>
    <path id="Path_113615" data-name="Path 113615" d="M76.59,69.723l2.742,3.036H73.852Z" transform="translate(-19.725 -18.622)" fill="#fff"/>
    <path id="Path_113616" data-name="Path 113616" d="M57.365,125.909v6.659H49.508v-3.33h3.329v-3.33h4.529Z" transform="translate(-13.223 -33.628)" fill="#c3cfd2"/>
    <path id="Path_113617" data-name="Path 113617" d="M53.537,73.557v38.37H35.176V73.557Z" transform="translate(-9.395 -19.646)" fill="#a5b6bc"/>
    <path id="Path_113618" data-name="Path 113618" d="M47.359,125.909v3.33H29v-3.33H47.359Z" transform="translate(-7.745 -33.628)" fill="#fff"/>
    <rect id="Rectangle_5961" data-name="Rectangle 5961" width="6.865" height="12.36" transform="translate(32.699 23.865)" fill="#879ea5"/>
    <path id="Path_113619" data-name="Path 113619" d="M42.816,130.452v3.33H24.454v-3.33H42.816Z" transform="translate(-6.531 -34.842)" fill="#fff"/>
    <rect id="Rectangle_5962" data-name="Rectangle 5962" width="9.878" height="17.01" transform="translate(9.279 64.851)" fill="#69868f"/>
    <path id="Path_113620" data-name="Path 113620" d="M21.736,84.674v2.791H9.659V84.674Z" transform="translate(-2.58 -22.615)" fill="#fff"/>
    <rect id="Rectangle_5963" data-name="Rectangle 5963" width="12.077" height="8.148" transform="translate(7.079 53.911)" fill="#92d8d3"/>
    <rect id="Rectangle_5964" data-name="Rectangle 5964" width="2.199" height="17.01" transform="translate(7.078 64.851)" fill="#a5b6bc"/>
    <line id="Line_1029" data-name="Line 1029" x1="69.473" transform="translate(34.818 3.106)" fill="none" stroke="#053544" stroke-linecap="round" stroke-linejoin="round" stroke-width="1"/>
    <path id="Path_113621" data-name="Path 113621" d="M69.4,90.7V39.888L34.952,4.238.5,39.888v60.183H138.872V39.888L104.425,4.238" transform="translate(-0.134 -1.132)" fill="none" stroke="#053544" stroke-linecap="round" stroke-linejoin="round" stroke-width="1"/>
    <line id="Line_1030" data-name="Line 1030" x2="69.472" transform="translate(69.266 38.757)" fill="none" stroke="#053544" stroke-linecap="round" stroke-linejoin="round" stroke-width="1"/>
    <path id="Path_113622" data-name="Path 113622" d="M35.175,111.926V73.557H53.537v45.029" transform="translate(-9.395 -19.646)" fill="none" stroke="#053544" stroke-linecap="round" stroke-linejoin="round" stroke-width="1"/>
    <path id="Path_113623" data-name="Path 113623" d="M43.761,44.922H41.416V32.562h9.21v12.36Z" transform="translate(-11.062 -8.697)" fill="none" stroke="#053544" stroke-linecap="round" stroke-linejoin="round" stroke-width="1"/>
    <line id="Line_1031" data-name="Line 1031" y2="12.36" transform="translate(32.699 23.865)" fill="none" stroke="#053544" stroke-linecap="round" stroke-linejoin="round" stroke-width="1"/>
    <path id="Path_113624" data-name="Path 113624" d="M9.659,84.5v17.01H21.736V73.557H9.659V84.5Z" transform="translate(-2.58 -19.646)" fill="none" stroke="#053544" stroke-linecap="round" stroke-linejoin="round" stroke-width="1"/>
    <line id="Line_1032" data-name="Line 1032" x2="12.077" transform="translate(7.079 62.059)" fill="none" stroke="#053544" stroke-linecap="round" stroke-linejoin="round" stroke-width="1"/>
    <path id="Path_113625" data-name="Path 113625" d="M9.659,88.483H21.736" transform="translate(-2.58 -23.632)" fill="none" stroke="#053544" stroke-linecap="round" stroke-linejoin="round" stroke-width="1"/>
    <line id="Line_1033" data-name="Line 1033" y1="17.01" transform="translate(9.278 64.85)" fill="none" stroke="#053544" stroke-linecap="round" stroke-linejoin="round" stroke-width="1"/>
    <path id="Path_113626" data-name="Path 113626" d="M78.363,73.864H81.02V86.717H70.226V73.864h8.137Z" transform="translate(-18.756 -19.728)" fill="none" stroke="#053544" stroke-linecap="round" stroke-linejoin="round" stroke-width="1"/>
    <path id="Path_113627" data-name="Path 113627" d="M73.852,72.758l2.737-3.036,2.742,3.036" transform="translate(-19.725 -18.622)" fill="none" stroke="#053544" stroke-linecap="round" stroke-linejoin="round" stroke-width="1"/>
    <path id="Path_113628" data-name="Path 113628" d="M49.507,132.568v-3.33h3.33v-3.33h4.528" transform="translate(-13.223 -33.628)" fill="none" stroke="#053544" stroke-linecap="round" stroke-linejoin="round" stroke-width="1"/>
    <path id="Path_113629" data-name="Path 113629" d="M24.454,132.568v-3.33h3.33v-3.33H46.145" transform="translate(-6.531 -33.628)" fill="none" stroke="#053544" stroke-linecap="round" stroke-linejoin="round" stroke-width="1"/>
    <line id="Line_1034" data-name="Line 1034" x2="15.032" transform="translate(21.252 95.61)" fill="none" stroke="#053544" stroke-linecap="round" stroke-linejoin="round" stroke-width="1"/>
    <line id="Line_1035" data-name="Line 1035" y1="3.742" transform="translate(41.141 72.102)" fill="none" stroke="#053544" stroke-linecap="round" stroke-linejoin="round" stroke-width="1"/>
    <path id="Path_113630" data-name="Path 113630" d="M152.756,73.557h2.333v27.95H113.612V73.557h39.144Z" transform="translate(-30.344 -19.646)" fill="none" stroke="#053544" stroke-linecap="round" stroke-linejoin="round" stroke-width="1"/>
    <line id="Line_1036" data-name="Line 1036" y2="27.95" transform="translate(122.412 53.911)" fill="none" stroke="#053544" stroke-linecap="round" stroke-linejoin="round" stroke-width="1"/>
    <line id="Line_1037" data-name="Line 1037" y1="27.95" transform="translate(112.118 53.911)" fill="none" stroke="#053544" stroke-linecap="round" stroke-linejoin="round" stroke-width="1"/>
    <line id="Line_1038" data-name="Line 1038" y1="27.95" transform="translate(97.174 53.911)" fill="none" stroke="#053544" stroke-linecap="round" stroke-linejoin="round" stroke-width="1"/>
    <path id="Path_113631" data-name="Path 113631" d="M123.522,73.557a46.174,46.174,0,0,1-7.6,24.292v3.658" transform="translate(-30.96 -19.646)" fill="none" stroke="#053544" stroke-linecap="round" stroke-linejoin="round" stroke-width="1"/>
    <line id="Line_1039" data-name="Line 1039" x1="1.692" transform="translate(83.268 78.203)" fill="none" stroke="#053544" stroke-linecap="round" stroke-linejoin="round" stroke-width="1"/>
    <path id="Path_113632" data-name="Path 113632" d="M66.873,127.437c-.84-3.791,1.253-8.228,6.033-7.568v-9.087a4.082,4.082,0,1,1,8.163,0v6.288c.749-3.54,4.819-4.483,6.01.992.107-3.161,4.4-5.517,5.731-.992,1.3-2.593,4.96-1.154,6.067,1.253,1.486-3.846,6.461-1.788,5.934,5.784,1.39-4.532,5.09-2.188,5.564.794,1.585-2.856,4.337-4.544,4.612,2.535" transform="translate(-17.812 -28.498)" fill="none" stroke="#053544" stroke-linecap="round" stroke-linejoin="round" stroke-width="1"/>
    <path id="Path_113633" data-name="Path 113633" d="M75.6,79.9H73.253v2.265c2.772-.535,2.875,1.76,2.142,2.581a1.94,1.94,0,0,1-2.528.111" transform="translate(-19.462 -21.341)" fill="none" stroke="#053544" stroke-linecap="round" stroke-linejoin="round" stroke-width="1"/>
    <path id="Path_113634" data-name="Path 113634" d="M78.855,81.088a1.259,1.259,0,0,1,1.2-1.279,1.168,1.168,0,0,1,1.165,1.279c0,2.272-2.581,2.345-2.581,4.23h2.891" transform="translate(-21.002 -21.316)" fill="none" stroke="#053544" stroke-linecap="round" stroke-linejoin="round" stroke-width="1"/>
    <path id="Path_113635" data-name="Path 113635" d="M192.929,109.491v.043a2.674,2.674,0,0,1-2.673,2.673H140.447a2.672,2.672,0,0,1-2.673-2.654V87.4a2.673,2.673,0,0,1,2.673-2.672h49.809a2.676,2.676,0,0,1,2.673,2.672v22.092Zm-2.673-2.63V90.072a2.671,2.671,0,0,1-2.673-2.673H143.12a2.673,2.673,0,0,1-2.673,2.673v16.789a2.676,2.676,0,0,1,2.673,2.673h44.463a2.674,2.674,0,0,1,2.673-2.673" transform="translate(-36.797 -22.629)" fill="#c3cfd2"/>
    <path id="Path_113636" data-name="Path 113636" d="M144.094,88.373a2.674,2.674,0,0,1-2.673,2.673v7.433l14.694-10.106Z" transform="translate(-37.771 -23.603)" fill="#e9eeef"/>
    <path id="Path_113637" data-name="Path 113637" d="M191.23,91.046a2.67,2.67,0,0,1-2.673-2.672H156.115L141.421,98.48v9.355a2.675,2.675,0,0,1,2.672,2.673h33.616l13.521-9.3ZM155.6,100.821a1.654,1.654,0,0,1-1.653,1.653,1.655,1.655,0,0,1-1.653-1.653V97.973a1.654,1.654,0,0,1,1.653-1.653,1.657,1.657,0,0,1,1.653,1.653Zm5.136-1.55a1.641,1.641,0,0,1-1.18.508h-1.7V96.32h1.7a1.7,1.7,0,0,1,1.669,1.73,1.754,1.754,0,0,1-.489,1.222m7.1,0a1.633,1.633,0,0,1-1.18.508h-1.692V96.32h1.692a1.7,1.7,0,0,1,1.669,1.73,1.754,1.754,0,0,1-.489,1.222" transform="translate(-37.771 -23.603)" fill="#fff"/>
    <path id="Path_113638" data-name="Path 113638" d="M190.934,115.185h10.847a2.674,2.674,0,0,1,2.673-2.673v-6.626Z" transform="translate(-50.995 -28.28)" fill="#e9eeef"/>
    <rect id="Rectangle_5965" data-name="Rectangle 5965" width="4.219" height="24.143" transform="translate(126.444 89.577)" fill="#69868f"/>
    <path id="Path_113639" data-name="Path 113639" d="M175.235,99.215a1.7,1.7,0,0,1,1.668,1.73,1.757,1.757,0,0,1-.489,1.222,1.634,1.634,0,0,1-1.179.508h-1.692V99.215Z" transform="translate(-46.351 -26.499)" fill="#fff"/>
    <path id="Path_113640" data-name="Path 113640" d="M165.543,99.215a1.7,1.7,0,0,1,1.669,1.73,1.757,1.757,0,0,1-.489,1.222,1.641,1.641,0,0,1-1.18.508h-1.7V99.215Z" transform="translate(-43.761 -26.499)" fill="#fff"/>
    <path id="Path_113641" data-name="Path 113641" d="M159.559,100.867v2.848a1.653,1.653,0,0,1-3.307,0v-2.848a1.654,1.654,0,0,1,1.653-1.653,1.657,1.657,0,0,1,1.653,1.653" transform="translate(-41.732 -26.499)" fill="#fff"/>
    <path id="Path_113642" data-name="Path 113642" d="M209.381,121.246a2.674,2.674,0,0,0,2.673-2.673" transform="translate(-55.922 -31.669)" fill="none" stroke="#053544" stroke-linecap="round" stroke-linejoin="round" stroke-width="1"/>
    <path id="Path_113643" data-name="Path 113643" d="M137.774,118.6a2.672,2.672,0,0,0,2.673,2.654" transform="translate(-36.797 -31.676)" fill="none" stroke="#053544" stroke-linecap="round" stroke-linejoin="round" stroke-width="1"/>
    <path id="Path_113644" data-name="Path 113644" d="M141.369,122.22h49.885" transform="translate(-37.757 -32.643)" fill="none" stroke="#053544" stroke-linecap="round" stroke-linejoin="round" stroke-width="1"/>
    <line id="Line_1040" data-name="Line 1040" y1="0.042" transform="translate(156.131 64.728)" fill="none" stroke="#053544" stroke-linecap="round" stroke-linejoin="round" stroke-width="1"/>
    <path id="Path_113645" data-name="Path 113645" d="M213.027,110.57V88.436" transform="translate(-56.896 -23.62)" fill="none" stroke="#053544" stroke-linecap="round" stroke-linejoin="round" stroke-width="1"/>
    <path id="Path_113646" data-name="Path 113646" d="M176.742,122.22v24.143h-4.219V122.22" transform="translate(-46.078 -32.643)" fill="none" stroke="#053544" stroke-linecap="round" stroke-linejoin="round" stroke-width="1"/>
    <path id="Path_113647" data-name="Path 113647" d="M150.48,105.461V99.215h2.959" transform="translate(-40.191 -26.499)" fill="none" stroke="#053544" stroke-linecap="round" stroke-linejoin="round" stroke-width="1"/>
    <line id="Line_1041" data-name="Line 1041" x2="2.161" transform="translate(110.29 75.839)" fill="none" stroke="#053544" stroke-linecap="round" stroke-linejoin="round" stroke-width="1"/>
    <path id="Path_113648" data-name="Path 113648" d="M184.052,105.461h-2.959V99.215h2.959" transform="translate(-48.367 -26.499)" fill="none" stroke="#053544" stroke-linecap="round" stroke-linejoin="round" stroke-width="1"/>
    <line id="Line_1042" data-name="Line 1042" x2="2.157" transform="translate(132.725 75.839)" fill="none" stroke="#053544" stroke-linecap="round" stroke-linejoin="round" stroke-width="1"/>
    <path id="Path_113649" data-name="Path 113649" d="M159.559,103.717a1.654,1.654,0,0,1-1.653,1.653,1.657,1.657,0,0,1-1.653-1.653v-2.848a1.653,1.653,0,0,1,3.307,0Z" transform="translate(-41.732 -26.499)" fill="none" stroke="#053544" stroke-linecap="round" stroke-linejoin="round" stroke-width="1"/>
    <path id="Path_113650" data-name="Path 113650" d="M163.848,105.438V99.214h1.7a1.7,1.7,0,0,1,1.669,1.73,1.757,1.757,0,0,1-.489,1.222,1.638,1.638,0,0,1-1.18.508h-1.7" transform="translate(-43.761 -26.499)" fill="none" stroke="#053544" stroke-linecap="round" stroke-linejoin="round" stroke-width="1"/>
    <line id="Line_1043" data-name="Line 1043" x2="2.18" y2="2.765" transform="translate(121.271 76.175)" fill="none" stroke="#053544" stroke-linecap="round" stroke-linejoin="round" stroke-width="1"/>
    <path id="Path_113651" data-name="Path 113651" d="M173.544,105.438V99.214h1.692a1.7,1.7,0,0,1,1.668,1.73,1.757,1.757,0,0,1-.488,1.222,1.632,1.632,0,0,1-1.18.508h-1.692" transform="translate(-46.351 -26.499)" fill="none" stroke="#053544" stroke-linecap="round" stroke-linejoin="round" stroke-width="1"/>
    <line id="Line_1044" data-name="Line 1044" x2="2.18" y2="2.765" transform="translate(128.373 76.175)" fill="none" stroke="#053544" stroke-linecap="round" stroke-linejoin="round" stroke-width="1"/>
    <path id="Path_113652" data-name="Path 113652" d="M187.511,105.461V99.215l4,6.247V99.215" transform="translate(-50.081 -26.499)" fill="none" stroke="#053544" stroke-linecap="round" stroke-linejoin="round" stroke-width="1"/>
    <line id="Line_1045" data-name="Line 1045" y1="6.247" transform="translate(144.871 72.716)" fill="none" stroke="#053544" stroke-linecap="round" stroke-linejoin="round" stroke-width="1"/>
    <path id="Path_113653" data-name="Path 113653" d="M195.013,99.215H198.9" transform="translate(-52.085 -26.499)" fill="none" stroke="#053544" stroke-linecap="round" stroke-linejoin="round" stroke-width="1"/>
    <path id="Path_113654" data-name="Path 113654" d="M144.094,88.373h44.463a2.671,2.671,0,0,0,2.673,2.673v16.789a2.673,2.673,0,0,0-2.673,2.672H144.094a2.675,2.675,0,0,0-2.673-2.672V91.046A2.674,2.674,0,0,0,144.094,88.373Z" transform="translate(-37.771 -23.603)" fill="none" stroke="#053544" stroke-linecap="round" stroke-linejoin="round" stroke-width="1"/>
    <path id="Path_113655" data-name="Path 113655" d="M192.928,87.445V87.4a2.676,2.676,0,0,0-2.673-2.672H140.446a2.673,2.673,0,0,0-2.672,2.672v22.154" transform="translate(-36.797 -22.629)" fill="none" stroke="#053544" stroke-linecap="round" stroke-linejoin="round" stroke-width="1"/>
  </g>
</svg>
