<svg xmlns="http://www.w3.org/2000/svg" width="122.15" height="30" viewBox="0 0 122.15 30">
  <g id="Group_40750" data-name="Group 40750" transform="translate(34.255 -471.964)">
    <path id="Path_117412" data-name="Path 117412" d="M263.486,570.543h12.371v2.312H271v12.971h-2.675V572.855h-4.837Zm11.836,4.217h2.29v2.14h.043a2.467,2.467,0,0,1,.417-.878,4.069,4.069,0,0,1,.749-.781,3.783,3.783,0,0,1,.974-.567,2.919,2.919,0,0,1,1.092-.214,5.356,5.356,0,0,1,.589.021l.332.043v2.354q-.257-.043-.524-.075a4.41,4.41,0,0,0-.524-.032,2.809,2.809,0,0,0-1.167.246,2.68,2.68,0,0,0-.952.728,3.562,3.562,0,0,0-.642,1.188,5.136,5.136,0,0,0-.235,1.627v5.265h-2.44ZM293,585.825h-2.4v-1.541h-.043a3.351,3.351,0,0,1-1.338,1.338,3.635,3.635,0,0,1-1.809.5,4.062,4.062,0,0,1-3.157-1.081,4.745,4.745,0,0,1-.974-3.264v-7.02h2.44v6.785a3,3,0,0,0,.556,2.055,2.026,2.026,0,0,0,1.563.6,3.078,3.078,0,0,0,1.284-.235,2.267,2.267,0,0,0,.835-.631,2.424,2.424,0,0,0,.46-.952,4.939,4.939,0,0,0,.139-1.2V574.76H293Zm4.152-3.553a1.837,1.837,0,0,0,.813,1.5,3.2,3.2,0,0,0,1.691.428,6.517,6.517,0,0,0,.781-.053,3.387,3.387,0,0,0,.824-.2,1.55,1.55,0,0,0,.631-.439,1.056,1.056,0,0,0,.225-.76,1.079,1.079,0,0,0-.342-.771,2.38,2.38,0,0,0-.824-.482,8.021,8.021,0,0,0-1.145-.31q-.642-.128-1.306-.278a12.18,12.18,0,0,1-1.316-.364,4.233,4.233,0,0,1-1.134-.578,2.667,2.667,0,0,1-.8-.931,2.972,2.972,0,0,1-.3-1.4,2.516,2.516,0,0,1,.439-1.509,3.363,3.363,0,0,1,1.113-.985,4.859,4.859,0,0,1,1.5-.524,8.822,8.822,0,0,1,1.573-.15,7.213,7.213,0,0,1,1.637.182,4.458,4.458,0,0,1,1.413.589,3.461,3.461,0,0,1,1.049,1.059,3.671,3.671,0,0,1,.524,1.573h-2.547a1.521,1.521,0,0,0-.8-1.177,3.334,3.334,0,0,0-1.445-.3,5.2,5.2,0,0,0-.61.043,2.842,2.842,0,0,0-.663.161,1.4,1.4,0,0,0-.524.342.818.818,0,0,0-.214.589.93.93,0,0,0,.31.728,2.449,2.449,0,0,0,.813.46,7.966,7.966,0,0,0,1.145.31q.642.128,1.327.278.663.15,1.306.364a4.218,4.218,0,0,1,1.145.578,2.817,2.817,0,0,1,.813.92,2.782,2.782,0,0,1,.31,1.37,2.976,2.976,0,0,1-.45,1.669,3.55,3.55,0,0,1-1.166,1.113,5.3,5.3,0,0,1-1.595.621,8.076,8.076,0,0,1-1.734.193,7.544,7.544,0,0,1-1.937-.235,4.509,4.509,0,0,1-1.541-.717,3.457,3.457,0,0,1-1.027-1.2,3.808,3.808,0,0,1-.4-1.7Zm8.048-7.513h1.841v-3.318h2.44v3.318h2.2v1.819h-2.2v5.907a5.9,5.9,0,0,0,.032.663,1.141,1.141,0,0,0,.15.471.714.714,0,0,0,.353.289,1.735,1.735,0,0,0,.642.1q.257,0,.514-.011a2.549,2.549,0,0,0,.514-.075V585.8l-.792.086a7.21,7.21,0,0,1-.792.043,5.4,5.4,0,0,1-1.552-.182,2.069,2.069,0,0,1-.92-.535,1.843,1.843,0,0,1-.45-.888,6.658,6.658,0,0,1-.139-1.22v-6.528H305.2Zm8.2,0h2.312v1.5h.043a3.017,3.017,0,0,1,1.434-1.38,4.761,4.761,0,0,1,1.991-.417,5.287,5.287,0,0,1,2.28.46,4.5,4.5,0,0,1,1.616,1.263,5.488,5.488,0,0,1,.963,1.873,7.938,7.938,0,0,1,.321,2.29,8.1,8.1,0,0,1-.289,2.162,5.629,5.629,0,0,1-.878,1.852,4.277,4.277,0,0,1-3.607,1.766,6.033,6.033,0,0,1-1.07-.1,4.632,4.632,0,0,1-1.027-.31,4.031,4.031,0,0,1-.91-.546,3.025,3.025,0,0,1-.7-.781h-.043v5.522H313.4Zm8.519,5.543a5.5,5.5,0,0,0-.193-1.455,3.953,3.953,0,0,0-.578-1.252,2.988,2.988,0,0,0-.963-.878,2.619,2.619,0,0,0-1.327-.332,2.69,2.69,0,0,0-2.322,1.07,4.722,4.722,0,0,0-.781,2.847,5.657,5.657,0,0,0,.2,1.552,3.488,3.488,0,0,0,.61,1.231,3.042,3.042,0,0,0,.974.813,2.773,2.773,0,0,0,1.316.3,2.725,2.725,0,0,0,1.413-.342,2.986,2.986,0,0,0,.953-.888,3.605,3.605,0,0,0,.535-1.242A6.3,6.3,0,0,0,321.921,580.3Zm4.3-9.76h2.44v2.312h-2.44Zm0,4.217h2.44v11.066h-2.44Zm4.621-4.217h2.44v15.282h-2.44Zm9.91,15.582a6.028,6.028,0,0,1-2.365-.439,5.038,5.038,0,0,1-1.755-1.209,5.167,5.167,0,0,1-1.092-1.841,7.522,7.522,0,0,1,0-4.687,5.168,5.168,0,0,1,1.092-1.841,5.044,5.044,0,0,1,1.755-1.209,6.594,6.594,0,0,1,4.73,0,5.05,5.05,0,0,1,1.755,1.209,5.175,5.175,0,0,1,1.092,1.841,7.52,7.52,0,0,1,0,4.687,5.174,5.174,0,0,1-1.092,1.841,5.044,5.044,0,0,1-1.755,1.209A6.031,6.031,0,0,1,340.753,586.125Zm0-1.926a2.8,2.8,0,0,0,1.413-.342,2.973,2.973,0,0,0,.985-.9,3.922,3.922,0,0,0,.567-1.252,5.619,5.619,0,0,0,0-2.836,3.789,3.789,0,0,0-.567-1.252,3.027,3.027,0,0,0-.985-.888,3.085,3.085,0,0,0-2.825,0,3.024,3.024,0,0,0-.985.888,3.785,3.785,0,0,0-.567,1.252,5.621,5.621,0,0,0,0,2.836,3.918,3.918,0,0,0,.567,1.252,2.97,2.97,0,0,0,.985.9A2.8,2.8,0,0,0,340.753,584.2Zm6.292-9.439h1.841v-3.318h2.44v3.318h2.2v1.819h-2.2v5.907a5.9,5.9,0,0,0,.032.663,1.141,1.141,0,0,0,.15.471.713.713,0,0,0,.353.289,1.735,1.735,0,0,0,.642.1q.257,0,.514-.011a2.547,2.547,0,0,0,.514-.075V585.8l-.792.086a7.209,7.209,0,0,1-.792.043,5.4,5.4,0,0,1-1.552-.182,2.068,2.068,0,0,1-.92-.535,1.842,1.842,0,0,1-.45-.888,6.652,6.652,0,0,1-.139-1.22v-6.528h-1.841Z" transform="translate(-265.637 -87.95)" fill="#191919"/>
    <path id="Path_117413" data-name="Path 117413" d="M-5,482.593l-11.175,0-3.453-10.628L-23.08,482.59l-11.176,0,9.042,6.571-3.453,10.629,9.04-6.568,9.038,6.568-3.452-10.626L-5,482.593Z" fill="#00a499"/>
    <path id="Path_117414" data-name="Path 117414" d="M107.785,633.869,107,631.46l-5.586,4.058Z" transform="translate(-121.043 -142.298)" fill="#053544"/>
  </g>
</svg>
